2400 0 5 0           
12 BoardModeler 14 ACIS 24.0.2 NT 24 Tue Mar 29 22:23:00 2016 
1 9.9999999999999995e-007 1e-010 
body $5 -1 -1 $-1 $6 $-1 $-1 F #
body $7 -1 -1 $-1 $8 $-1 $-1 F #
body $9 -1 -1 $-1 $10 $-1 $-1 F #
body $11 -1 -1 $-1 $12 $-1 $-1 F #
body $13 -1 -1 $-1 $14 $-1 $-1 F #
rgb_color-st-attrib $-1 -1 $-1 $-1 $0 2 1 2 1 1 1 1 1 1 1 1 1 1 1 0 1 1 1 0.75294117647059 0.75294117647059 0.75294117647059 #
lump $-1 -1 -1 $-1 $-1 $15 $0 F #
rgb_color-st-attrib $-1 -1 $-1 $-1 $1 2 1 2 1 1 1 1 1 1 1 1 1 1 1 0 1 1 1 0.75294117647059 0.75294117647059 0.75294117647059 #
lump $-1 -1 -1 $-1 $-1 $16 $1 F #
rgb_color-st-attrib $-1 -1 $-1 $-1 $2 2 1 2 1 1 1 1 1 1 1 1 1 1 1 0 1 1 1 0.25098039215686002 0.25098039215686002 0.25098039215686002 #
lump $-1 -1 -1 $-1 $-1 $17 $2 F #
rgb_color-st-attrib $-1 -1 $-1 $-1 $3 2 1 2 1 1 1 1 1 1 1 1 1 1 1 0 1 1 1 0.99607843137255003 0.87058823529411999 0.76078431372549005 #
lump $-1 -1 -1 $-1 $-1 $18 $3 F #
rgb_color-st-attrib $-1 -1 $-1 $-1 $4 2 1 2 1 1 1 1 1 1 1 1 1 1 1 0 1 1 1 0.25098039215686002 0.25098039215686002 0.25098039215686002 #
lump $-1 -1 -1 $-1 $-1 $19 $4 F #
shell $-1 -1 -1 $-1 $-1 $-1 $20 $-1 $6 F #
shell $-1 -1 -1 $-1 $-1 $-1 $21 $-1 $8 F #
shell $-1 -1 -1 $-1 $-1 $-1 $22 $-1 $10 F #
shell $-1 -1 -1 $-1 $-1 $-1 $23 $-1 $12 F #
shell $-1 -1 -1 $-1 $-1 $-1 $24 $-1 $14 F #
face $25 -1 -1 $-1 $26 $27 $15 $-1 $28 forward single F F #
face $29 -1 -1 $-1 $30 $31 $16 $-1 $32 forward single F F #
face $33 -1 -1 $-1 $34 $35 $17 $-1 $36 reversed single F F #
face $37 -1 -1 $-1 $38 $39 $18 $-1 $40 reversed single F F #
face $41 -1 -1 $-1 $42 $43 $19 $-1 $44 reversed single F F #
rgb_color-st-attrib $-1 -1 $-1 $-1 $20 2 1 2 1 1 1 1 1 1 1 1 1 1 1 0 1 1 1 0.75294117647059 0.75294117647059 0.75294117647059 #
face $45 -1 -1 $-1 $46 $47 $15 $-1 $48 forward single F F #
loop $-1 -1 -1 $-1 $-1 $49 $20 F unknown #
cone-surface $-1 -1 -1 $-1 -0.75 0.40000000000000002 0.69999999999999996 0 -1 0 0.050000000000000003 0 0 1 I I 0 1 0.050000000000000003 forward I I I I #
rgb_color-st-attrib $-1 -1 $-1 $-1 $21 2 1 2 1 1 1 1 1 1 1 1 1 1 1 0 1 1 1 0.75294117647059 0.75294117647059 0.75294117647059 #
face $50 -1 -1 $-1 $51 $52 $16 $-1 $53 forward single F F #
loop $-1 -1 -1 $-1 $-1 $54 $21 F unknown #
plane-surface $-1 -1 -1 $-1 0.5 0.40000000000000002 0.75 0 0 1 1 0 0 forward_v I I I I #
rgb_color-st-attrib $-1 -1 $-1 $-1 $22 2 1 2 1 1 1 1 1 1 1 1 1 1 1 0 1 1 1 0.25098039215686002 0.25098039215686002 0.25098039215686002 #
face $55 -1 -1 $-1 $56 $57 $17 $-1 $58 forward single F F #
loop $-1 -1 -1 $-1 $-1 $59 $22 F unknown #
plane-surface $-1 -1 -1 $-1 0.5 -0.40000000000000002 0.75 -1 0 0 0 -0 1 forward_v I I I I #
rgb_color-st-attrib $-1 -1 $-1 $-1 $23 2 1 2 1 1 1 1 1 1 1 1 1 1 1 0 1 1 1 0.99607843137255003 0.87058823529411999 0.76078431372549005 #
face $60 -1 -1 $-1 $61 $62 $18 $-1 $63 reversed single F F #
loop $-1 -1 -1 $-1 $-1 $64 $23 F unknown #
plane-surface $-1 -1 -1 $-1 0.69999999999999996 -0.40000000000000002 0.65000000000000002 -1 0 0 0 -0 1 forward_v I I I I #
rgb_color-st-attrib $-1 -1 $-1 $-1 $24 2 1 2 1 1 1 1 1 1 1 1 1 1 1 0 1 1 1 0.25098039215686002 0.25098039215686002 0.25098039215686002 #
face $65 -1 -1 $-1 $66 $67 $19 $-1 $68 reversed single F F #
loop $-1 -1 -1 $-1 $-1 $69 $24 F unknown #
plane-surface $-1 -1 -1 $-1 0.5 -0.40000000000000002 0.10000000000000001 -1 0 0 0 -0 1 forward_v I I I I #
rgb_color-st-attrib $-1 -1 $-1 $-1 $26 2 1 2 1 1 1 1 1 1 1 1 1 1 1 0 1 1 1 0.75294117647059 0.75294117647059 0.75294117647059 #
face $70 -1 -1 $-1 $71 $72 $15 $-1 $73 forward single F F #
loop $-1 -1 -1 $-1 $-1 $74 $26 F unknown #
plane-surface $-1 -1 -1 $-1 -0.5 0.40000000000000002 0.65000000000000002 1 0 0 0 0 -1 forward_v I I I I #
coedge $-1 -1 -1 $-1 $75 $76 $77 $78 reversed $27 $-1 #
rgb_color-st-attrib $-1 -1 $-1 $-1 $30 2 1 2 1 1 1 1 1 1 1 1 1 1 1 0 1 1 1 0.75294117647059 0.75294117647059 0.75294117647059 #
face $79 -1 -1 $-1 $80 $81 $16 $-1 $82 forward single F F #
loop $-1 -1 -1 $-1 $-1 $83 $30 F unknown #
plane-surface $-1 -1 -1 $-1 0.5 0.40000000000000002 0.65000000000000002 -1 0 0 0 -0 1 forward_v I I I I #
coedge $-1 -1 -1 $-1 $84 $85 $86 $87 forward $31 $-1 #
rgb_color-st-attrib $-1 -1 $-1 $-1 $34 2 1 2 1 1 1 1 1 1 1 1 1 1 1 0 1 1 1 0.25098039215686002 0.25098039215686002 0.25098039215686002 #
face $88 -1 -1 $-1 $89 $90 $17 $-1 $91 reversed single F F #
loop $-1 -1 -1 $-1 $-1 $92 $34 F unknown #
cone-surface $-1 -1 -1 $-1 0 0 0.751 0 0 -1 0 0.34999999999999998 0 1 I I 0 1 0.34999999999999998 forward I I I I #
coedge $-1 -1 -1 $-1 $93 $94 $95 $96 forward $35 $-1 #
rgb_color-st-attrib $-1 -1 $-1 $-1 $38 2 1 2 1 1 1 1 1 1 1 1 1 1 1 0 1 1 1 0.99607843137255003 0.87058823529411999 0.76078431372549005 #
face $97 -1 -1 $-1 $98 $99 $18 $-1 $100 reversed single F F #
loop $-1 -1 -1 $-1 $-1 $101 $38 F unknown #
plane-surface $-1 -1 -1 $-1 -0.69999999999999996 0.40000000000000002 0.65000000000000002 0 -1 0 0 0 -1 forward_v I I I I #
coedge $-1 -1 -1 $-1 $102 $103 $104 $105 forward $39 $-1 #
rgb_color-st-attrib $-1 -1 $-1 $-1 $42 2 1 2 1 1 1 1 1 1 1 1 1 1 1 0 1 1 1 0.25098039215686002 0.25098039215686002 0.25098039215686002 #
face $106 -1 -1 $-1 $107 $108 $19 $-1 $109 reversed single F F #
loop $-1 -1 -1 $-1 $-1 $110 $42 F unknown #
plane-surface $-1 -1 -1 $-1 -0.5 0.40000000000000002 0.10000000000000001 0 -1 0 0 0 -1 forward_v I I I I #
coedge $-1 -1 -1 $-1 $111 $112 $113 $114 forward $43 $-1 #
rgb_color-st-attrib $-1 -1 $-1 $-1 $46 2 1 2 1 1 1 1 1 1 1 1 1 1 1 0 1 1 1 0.75294117647059 0.75294117647059 0.75294117647059 #
face $115 -1 -1 $-1 $116 $117 $15 $-1 $118 forward single F F #
loop $-1 -1 -1 $-1 $-1 $119 $46 F unknown #
plane-surface $-1 -1 -1 $-1 -0.69999999999999996 0.40000000000000002 0.65000000000000002 0 0 -1 -1 0 0 forward_v I I I I #
coedge $-1 -1 -1 $-1 $120 $121 $122 $123 forward $47 $-1 #
coedge $-1 -1 -1 $-1 $124 $49 $125 $126 reversed $27 $-1 #
coedge $-1 -1 -1 $-1 $49 $124 $127 $128 reversed $27 $-1 #
coedge $-1 -1 -1 $-1 $129 $130 $49 $78 forward $131 $-1 #
edge $-1 -1 -1 $-1 $132 -3.1415926535897931 $133 -1.5707963267948966 $49 $134 forward @7 unknown F #
rgb_color-st-attrib $-1 -1 $-1 $-1 $51 2 1 2 1 1 1 1 1 1 1 1 1 1 1 0 1 1 1 0.75294117647059 0.75294117647059 0.75294117647059 #
face $135 -1 -1 $-1 $136 $137 $16 $-1 $138 forward single F F #
loop $-1 -1 -1 $-1 $-1 $139 $51 F unknown #
plane-surface $-1 -1 -1 $-1 0.69999999999999996 0.40000000000000002 0.65000000000000002 0 0 -1 -1 0 0 forward_v I I I I #
coedge $-1 -1 -1 $-1 $140 $141 $85 $142 reversed $52 $-1 #
coedge $-1 -1 -1 $-1 $143 $54 $144 $145 forward $31 $-1 #
coedge $-1 -1 -1 $-1 $54 $143 $83 $142 forward $31 $-1 #
coedge $-1 -1 -1 $-1 $146 $147 $54 $87 reversed $148 $-1 #
edge $-1 -1 -1 $-1 $149 0 $150 0.00025000000000000001 $54 $151 forward @7 unknown F #
rgb_color-st-attrib $-1 -1 $-1 $-1 $56 2 1 2 1 1 1 1 1 1 1 1 1 1 1 0 1 1 1 0.25098039215686002 0.25098039215686002 0.25098039215686002 #
face $152 -1 -1 $-1 $153 $154 $17 $-1 $155 reversed single F F #
loop $-1 -1 -1 $-1 $156 $157 $56 F unknown #
plane-surface $-1 -1 -1 $-1 0 0 0.75 0 0 -1 -1 0 0 forward_v I I I I #
coedge $-1 -1 -1 $-1 $158 $159 $160 $161 reversed $57 $-1 #
coedge $-1 -1 -1 $-1 $162 $59 $163 $164 reversed $35 $-1 #
coedge $-1 -1 -1 $-1 $59 $162 $165 $166 forward $35 $-1 #
coedge $-1 -1 -1 $-1 $167 $168 $59 $96 reversed $169 $-1 #
edge $-1 -1 -1 $-1 $170 0 $171 0.00080000000000000004 $59 $172 forward @7 unknown F #
rgb_color-st-attrib $-1 -1 $-1 $-1 $61 2 1 2 1 1 1 1 1 1 1 1 1 1 1 0 1 1 1 0.99607843137255003 0.87058823529411999 0.76078431372549005 #
face $173 -1 -1 $-1 $174 $175 $18 $-1 $176 reversed single F F #
loop $-1 -1 -1 $-1 $-1 $177 $61 F unknown #
plane-surface $-1 -1 -1 $-1 -0.69999999999999996 -0.40000000000000002 0.65000000000000002 1 0 0 0 0 -1 forward_v I I I I #
coedge $-1 -1 -1 $-1 $178 $179 $180 $181 forward $62 $-1 #
coedge $-1 -1 -1 $-1 $182 $64 $179 $183 reversed $39 $-1 #
coedge $-1 -1 -1 $-1 $64 $182 $184 $185 forward $39 $-1 #
coedge $-1 -1 -1 $-1 $186 $180 $64 $105 reversed $187 $-1 #
edge $-1 -1 -1 $-1 $188 0 $189 0.00080000000000000004 $64 $190 forward @7 unknown F #
rgb_color-st-attrib $-1 -1 $-1 $-1 $66 2 1 2 1 1 1 1 1 1 1 1 1 1 1 0 1 1 1 0.25098039215686002 0.25098039215686002 0.25098039215686002 #
face $191 -1 -1 $-1 $192 $193 $19 $-1 $194 reversed single F F #
loop $-1 -1 -1 $-1 $-1 $195 $66 F unknown #
plane-surface $-1 -1 -1 $-1 -0.5 -0.40000000000000002 0.10000000000000001 1 0 0 0 0 -1 forward_v I I I I #
coedge $-1 -1 -1 $-1 $196 $197 $198 $199 forward $67 $-1 #
coedge $-1 -1 -1 $-1 $200 $69 $197 $201 reversed $43 $-1 #
coedge $-1 -1 -1 $-1 $69 $200 $202 $203 forward $43 $-1 #
coedge $-1 -1 -1 $-1 $204 $198 $69 $114 reversed $205 $-1 #
edge $-1 -1 -1 $-1 $206 0 $207 0.00080000000000000004 $69 $208 forward @7 unknown F #
rgb_color-st-attrib $-1 -1 $-1 $-1 $71 2 1 2 1 1 1 1 1 1 1 1 1 1 1 0 1 1 1 0.75294117647059 0.75294117647059 0.75294117647059 #
face $209 -1 -1 $-1 $210 $211 $15 $-1 $212 forward single F F #
loop $-1 -1 -1 $-1 $-1 $213 $71 F unknown #
plane-surface $-1 -1 -1 $-1 -0.69999999999999996 0.40000000000000002 0.10000000000000001 1 0 0 0 0 -1 forward_v I I I I #
coedge $-1 -1 -1 $-1 $214 $215 $216 $217 forward $72 $-1 #
coedge $-1 -1 -1 $-1 $216 $74 $218 $219 reversed $47 $-1 #
coedge $-1 -1 -1 $-1 $74 $216 $220 $221 forward $47 $-1 #
coedge $-1 -1 -1 $-1 $222 $223 $74 $123 reversed $224 $-1 #
edge $-1 -1 -1 $-1 $225 0 $226 0.00080000000000000004 $74 $227 forward @7 unknown F #
coedge $-1 -1 -1 $-1 $76 $75 $228 $229 reversed $27 $-1 #
coedge $-1 -1 -1 $-1 $230 $231 $75 $126 forward $232 $-1 #
edge $-1 -1 -1 $-1 $233 -0.00080000000000000004 $132 0 $75 $234 forward @7 unknown F #
coedge $-1 -1 -1 $-1 $223 $222 $76 $128 forward $224 $-1 #
edge $-1 -1 -1 $-1 $133 0 $235 0.00080000000000000004 $76 $236 forward @7 unknown F #
coedge $-1 -1 -1 $-1 $220 $77 $222 $237 reversed $131 $-1 #
coedge $-1 -1 -1 $-1 $77 $238 $230 $239 reversed $131 $-1 #
loop $-1 -1 -1 $-1 $-1 $240 $241 F unknown #
vertex $-1 -1 -1 $-1 $78 $242 #
vertex $-1 -1 -1 $-1 $237 $243 #
ellipse-curve $-1 -1 -1 $-1 -0.75 0.40000000000000002 0.69999999999999996 0 1 0 0.050000000000000003 -0 0 1 I I #
rgb_color-st-attrib $-1 -1 $-1 $-1 $80 2 1 2 1 1 1 1 1 1 1 1 1 1 1 0 1 1 1 0.75294117647059 0.75294117647059 0.75294117647059 #
face $244 -1 -1 $-1 $245 $246 $16 $-1 $247 forward single F F #
loop $-1 -1 -1 $-1 $-1 $248 $80 F unknown #
plane-surface $-1 -1 -1 $-1 0.69999999999999996 0.40000000000000002 0.10000000000000001 -1 0 0 0 -0 1 forward_v I I I I #
coedge $-1 -1 -1 $-1 $249 $250 $251 $252 reversed $81 $-1 #
coedge $-1 -1 -1 $-1 $251 $83 $253 $254 reversed $52 $-1 #
coedge $-1 -1 -1 $-1 $83 $251 $146 $255 forward $52 $-1 #
edge $-1 -1 -1 $-1 $256 0 $149 0.00080000000000000004 $85 $257 forward @7 unknown F #
coedge $-1 -1 -1 $-1 $85 $84 $258 $259 reversed $31 $-1 #
coedge $-1 -1 -1 $-1 $260 $261 $84 $145 reversed $262 $-1 #
edge $-1 -1 -1 $-1 $150 -0.00080000000000000004 $263 0 $84 $264 forward @7 unknown F #
coedge $-1 -1 -1 $-1 $265 $86 $141 $255 reversed $148 $-1 #
coedge $-1 -1 -1 $-1 $86 $266 $260 $267 forward $148 $-1 #
loop $-1 -1 -1 $-1 $-1 $268 $269 F unknown #
vertex $-1 -1 -1 $-1 $255 $270 #
vertex $-1 -1 -1 $-1 $267 $271 #
straight-curve $-1 -1 -1 $-1 0.5 -0.40000000000000002 0.75 1000 0 0 I I #
rgb_color-st-attrib $-1 -1 $-1 $-1 $89 2 1 2 1 1 1 1 1 1 1 1 1 1 1 0 1 1 1 0.25098039215686002 0.25098039215686002 0.25098039215686002 #
face $272 -1 -1 $-1 $273 $274 $17 $-1 $275 reversed single F F #
loop $-1 -1 -1 $-1 $-1 $276 $89 F unknown #
plane-surface $-1 -1 -1 $-1 -0.5 0.40000000000000002 0.75 0 -1 0 0 0 -1 forward_v I I I I #
loop $-1 -1 -1 $-1 $-1 $277 $56 F unknown #
coedge $-1 -1 -1 $-1 $278 $279 $162 $280 forward $90 $-1 #
coedge $-1 -1 -1 $-1 $281 $92 $282 $283 forward $57 $-1 #
coedge $-1 -1 -1 $-1 $92 $281 $284 $285 reversed $57 $-1 #
coedge $-1 -1 -1 $-1 $286 $286 $92 $161 forward $287 $-1 #
edge $-1 -1 -1 $-1 $288 0 $289 3.1415926535897931 $92 $290 forward @7 unknown F #
coedge $-1 -1 -1 $-1 $94 $93 $157 $280 reversed $35 $-1 #
coedge $-1 -1 -1 $-1 $276 $291 $93 $164 forward $154 $-1 #
edge $-1 -1 -1 $-1 $292 0 $171 9.9999999999999978e-005 $93 $293 forward @7 unknown F #
coedge $-1 -1 -1 $-1 $294 $295 $94 $166 reversed $296 $-1 #
edge $-1 -1 -1 $-1 $297 0 $170 9.9999999999999978e-005 $94 $298 forward @7 unknown F #
coedge $-1 -1 -1 $-1 $299 $95 $295 $300 reversed $169 $-1 #
coedge $-1 -1 -1 $-1 $95 $299 $276 $301 reversed $169 $-1 #
loop $-1 -1 -1 $-1 $-1 $95 $302 F unknown #
vertex $-1 -1 -1 $-1 $300 $303 #
vertex $-1 -1 -1 $-1 $301 $304 #
straight-curve $-1 -1 -1 $-1 0.5 -0.40000000000000002 0.65000000000000002 0 1000 0 I I #
rgb_color-st-attrib $-1 -1 $-1 $-1 $98 2 1 2 1 1 1 1 1 1 1 1 1 1 1 0 1 1 1 0.99607843137255003 0.87058823529411999 0.76078431372549005 #
face $305 -1 -1 $-1 $306 $307 $18 $-1 $308 reversed single F F #
loop $-1 -1 -1 $-1 $-1 $309 $98 F unknown #
plane-surface $-1 -1 -1 $-1 -0.69999999999999996 -0.40000000000000002 0.65000000000000002 0 1 0 0 0 1 forward_v I I I I #
coedge $-1 -1 -1 $-1 $310 $311 $312 $313 forward $99 $-1 #
coedge $-1 -1 -1 $-1 $314 $101 $311 $315 reversed $62 $-1 #
coedge $-1 -1 -1 $-1 $101 $314 $102 $183 forward $62 $-1 #
coedge $-1 -1 -1 $-1 $104 $312 $101 $181 reversed $187 $-1 #
edge $-1 -1 -1 $-1 $189 -0.0014 $316 0 $101 $317 forward @7 unknown F #
coedge $-1 -1 -1 $-1 $103 $102 $318 $319 reversed $39 $-1 #
edge $-1 -1 -1 $-1 $320 0 $189 0.00055000000000000003 $102 $321 forward @7 unknown F #
coedge $-1 -1 -1 $-1 $322 $309 $103 $185 reversed $175 $-1 #
edge $-1 -1 -1 $-1 $323 0 $188 0.00055000000000000003 $103 $324 forward @7 unknown F #
coedge $-1 -1 -1 $-1 $312 $104 $309 $325 reversed $187 $-1 #
loop $-1 -1 -1 $-1 $-1 $104 $306 F unknown #
vertex $-1 -1 -1 $-1 $325 $326 #
vertex $-1 -1 -1 $-1 $181 $327 #
straight-curve $-1 -1 -1 $-1 0.69999999999999996 -0.40000000000000002 0.10000000000000001 0 1000 0 I I #
rgb_color-st-attrib $-1 -1 $-1 $-1 $107 2 1 2 1 1 1 1 1 1 1 1 1 1 1 0 1 1 1 0.25098039215686002 0.25098039215686002 0.25098039215686002 #
face $328 -1 -1 $-1 $329 $330 $19 $-1 $331 reversed single F F #
loop $-1 -1 -1 $-1 $-1 $332 $107 F unknown #
plane-surface $-1 -1 -1 $-1 -0.5 -0.40000000000000002 0.10000000000000001 0 1 0 0 0 1 forward_v I I I I #
coedge $-1 -1 -1 $-1 $333 $334 $335 $336 forward $108 $-1 #
coedge $-1 -1 -1 $-1 $337 $110 $334 $338 reversed $67 $-1 #
coedge $-1 -1 -1 $-1 $110 $337 $111 $201 forward $67 $-1 #
coedge $-1 -1 -1 $-1 $113 $335 $110 $199 reversed $205 $-1 #
edge $-1 -1 -1 $-1 $207 -0.001 $339 0 $110 $340 forward @7 unknown F #
coedge $-1 -1 -1 $-1 $112 $111 $341 $342 reversed $43 $-1 #
edge $-1 -1 -1 $-1 $343 0 $207 0.0001 $111 $344 forward @7 unknown F #
coedge $-1 -1 -1 $-1 $345 $332 $112 $203 reversed $193 $-1 #
edge $-1 -1 -1 $-1 $346 0 $206 0.0001 $112 $347 forward @7 unknown F #
coedge $-1 -1 -1 $-1 $335 $113 $332 $348 reversed $205 $-1 #
loop $-1 -1 -1 $-1 $-1 $113 $329 F unknown #
vertex $-1 -1 -1 $-1 $348 $349 #
vertex $-1 -1 -1 $-1 $199 $350 #
straight-curve $-1 -1 -1 $-1 0.5 -0.40000000000000002 0 0 1000 0 I I #
rgb_color-st-attrib $-1 -1 $-1 $-1 $116 2 1 2 1 1 1 1 1 1 1 1 1 1 1 0 1 1 1 0.75294117647059 0.75294117647059 0.75294117647059 #
face $351 -1 -1 $-1 $352 $353 $15 $-1 $354 forward single F F #
loop $-1 -1 -1 $-1 $-1 $355 $116 F unknown #
plane-surface $-1 -1 -1 $-1 -0.5 0.40000000000000002 0.10000000000000001 0 0 1 1 0 0 forward_v I I I I #
coedge $-1 -1 -1 $-1 $356 $357 $358 $359 forward $117 $-1 #
coedge $-1 -1 -1 $-1 $358 $119 $360 $361 reversed $72 $-1 #
coedge $-1 -1 -1 $-1 $119 $358 $362 $363 forward $72 $-1 #
coedge $-1 -1 -1 $-1 $121 $120 $119 $217 reversed $47 $-1 #
edge $-1 -1 -1 $-1 $364 0 $365 0.00080000000000000004 $216 $366 forward @7 unknown F #
coedge $-1 -1 -1 $-1 $367 $360 $120 $219 forward $368 $-1 #
edge $-1 -1 -1 $-1 $365 0 $226 9.9999999999999978e-005 $120 $369 forward @7 unknown F #
coedge $-1 -1 -1 $-1 $362 $129 $121 $221 reversed $131 $-1 #
edge $-1 -1 -1 $-1 $364 0 $225 9.9999999999999978e-005 $121 $370 forward @7 unknown F #
coedge $-1 -1 -1 $-1 $127 $122 $129 $237 forward $224 $-1 #
coedge $-1 -1 -1 $-1 $122 $127 $367 $371 reversed $224 $-1 #
loop $-1 -1 -1 $-1 $-1 $222 $372 F unknown #
vertex $-1 -1 -1 $-1 $221 $373 #
vertex $-1 -1 -1 $-1 $371 $374 #
straight-curve $-1 -1 -1 $-1 -0.5 0.40000000000000002 0.75 0 -1000 0 I I #
coedge $-1 -1 -1 $-1 $375 $367 $124 $229 forward $368 $-1 #
edge $-1 -1 -1 $-1 $235 1.5707963267948966 $233 3.1415926535897931 $124 $376 forward @7 unknown F #
coedge $-1 -1 -1 $-1 $377 $125 $130 $239 forward $232 $-1 #
coedge $-1 -1 -1 $-1 $125 $377 $375 $378 reversed $232 $-1 #
loop $-1 -1 -1 $-1 $-1 $230 $379 F unknown #
vertex $-1 -1 -1 $-1 $229 $380 #
straight-curve $-1 -1 -1 $-1 -0.80000000000000004 0.40000000000000002 0.69999999999999996 0 1000 0 I I #
vertex $-1 -1 -1 $-1 $229 $381 #
straight-curve $-1 -1 -1 $-1 -0.75 0.40000000000000002 0.75 0 -1000 0 I I #
edge $-1 -1 -1 $-1 $225 0 $133 0.00025000000000000001 $222 $382 forward @7 unknown F #
coedge $-1 -1 -1 $-1 $130 $240 $383 $384 forward $131 $-1 #
edge $-1 -1 -1 $-1 $132 5.0000000000000043e-005 $385 0.00069999999999999999 $230 $386 forward @7 unknown F #
coedge $-1 -1 -1 $-1 $238 $387 $388 $389 reversed $131 $-1 #
face $390 -1 -1 $-1 $391 $131 $15 $-1 $392 reversed single F F #
point $-1 -1 -1 $-1 -0.80000000000000004 0.40000000000000002 0.69999999999999996 #
point $-1 -1 -1 $-1 -0.75 0.40000000000000002 0.75 #
rgb_color-st-attrib $-1 -1 $-1 $-1 $136 2 1 2 1 1 1 1 1 1 1 1 1 1 1 0 1 1 1 0.75294117647059 0.75294117647059 0.75294117647059 #
face $393 -1 -1 $-1 $394 $395 $16 $-1 $396 forward single F F #
loop $-1 -1 -1 $-1 $-1 $397 $136 F unknown #
plane-surface $-1 -1 -1 $-1 0.5 0.40000000000000002 0.10000000000000001 0 0 1 1 0 0 forward_v I I I I #
coedge $-1 -1 -1 $-1 $398 $399 $400 $401 reversed $137 $-1 #
coedge $-1 -1 -1 $-1 $400 $139 $402 $403 reversed $81 $-1 #
coedge $-1 -1 -1 $-1 $139 $400 $265 $404 forward $81 $-1 #
coedge $-1 -1 -1 $-1 $141 $140 $139 $252 forward $52 $-1 #
edge $-1 -1 -1 $-1 $405 0 $406 0.00080000000000000004 $251 $407 forward @7 unknown F #
coedge $-1 -1 -1 $-1 $258 $402 $140 $254 forward $408 $-1 #
edge $-1 -1 -1 $-1 $405 0 $256 9.9999999999999978e-005 $140 $409 forward @7 unknown F #
edge $-1 -1 -1 $-1 $406 0 $149 9.9999999999999978e-005 $141 $410 forward @7 unknown F #
vertex $-1 -1 -1 $-1 $259 $411 #
straight-curve $-1 -1 -1 $-1 0.5 0.40000000000000002 0.75 0 -1000 0 I I #
coedge $-1 -1 -1 $-1 $412 $253 $143 $259 forward $408 $-1 #
edge $-1 -1 -1 $-1 $256 0 $263 0.00025000000000000001 $143 $413 forward @7 unknown F #
coedge $-1 -1 -1 $-1 $414 $144 $147 $267 reversed $262 $-1 #
coedge $-1 -1 -1 $-1 $144 $414 $412 $415 reversed $262 $-1 #
loop $-1 -1 -1 $-1 $-1 $261 $416 F unknown #
vertex $-1 -1 -1 $-1 $145 $417 #
straight-curve $-1 -1 -1 $-1 0.75 0.40000000000000002 0.75 0 1000 0 I I #
coedge $-1 -1 -1 $-1 $418 $146 $250 $404 reversed $148 $-1 #
coedge $-1 -1 -1 $-1 $147 $419 $420 $421 reversed $148 $-1 #
edge $-1 -1 -1 $-1 $422 0 $150 1.5707963267948966 $147 $423 forward @7 unknown F #
coedge $-1 -1 -1 $-1 $419 $424 $425 $426 reversed $148 $-1 #
face $427 -1 -1 $-1 $428 $148 $16 $-1 $429 forward single F F #
point $-1 -1 -1 $-1 0.5 -0.40000000000000002 0.75 #
point $-1 -1 -1 $-1 0.75 -0.40000000000000002 0.75 #
rgb_color-st-attrib $-1 -1 $-1 $-1 $153 2 1 2 1 1 1 1 1 1 1 1 1 1 1 0 1 1 1 0.25098039215686002 0.25098039215686002 0.25098039215686002 #
face $430 -1 -1 $-1 $302 $296 $17 $-1 $431 reversed single F F #
loop $-1 -1 -1 $-1 $-1 $432 $153 F unknown #
plane-surface $-1 -1 -1 $-1 -0.5 -0.40000000000000002 0.75 1 0 0 0 0 -1 forward_v I I I I #
coedge $-1 -1 -1 $-1 $433 $163 $168 $301 forward $154 $-1 #
coedge $-1 -1 -1 $-1 $434 $434 $435 $436 reversed $156 $-1 #
coedge $-1 -1 -1 $-1 $437 $157 $291 $438 forward $90 $-1 #
coedge $-1 -1 -1 $-1 $157 $437 $294 $439 forward $90 $-1 #
edge $-1 -1 -1 $-1 $297 0 $292 0.00080000000000000004 $162 $440 forward @7 unknown F #
coedge $-1 -1 -1 $-1 $159 $158 $434 $441 forward $57 $-1 #
coedge $-1 -1 -1 $-1 $442 $435 $158 $283 reversed $443 $-1 #
edge $-1 -1 -1 $-1 $288 0 $444 1.0000000000000008e-006 $158 $445 forward @7 unknown F #
coedge $-1 -1 -1 $-1 $435 $442 $159 $285 forward $443 $-1 #
edge $-1 -1 -1 $-1 $289 0 $446 1.0000000000000008e-006 $159 $447 forward @7 unknown F #
coedge $-1 -1 -1 $-1 $160 $160 $442 $448 forward $287 $-1 #
loop $-1 -1 -1 $-1 $-1 $286 $449 F unknown #
vertex $-1 -1 -1 $-1 $161 $450 #
vertex $-1 -1 -1 $-1 $161 $451 #
ellipse-curve $-1 -1 -1 $-1 0 0 0.751 0 0 1 0 -0.34999999999999998 0 1 I I #
coedge $-1 -1 -1 $-1 $163 $433 $278 $438 reversed $154 $-1 #
vertex $-1 -1 -1 $-1 $164 $452 #
straight-curve $-1 -1 -1 $-1 0.5 0.40000000000000002 0.75 0 0 -1000 I I #
coedge $-1 -1 -1 $-1 $453 $165 $279 $439 reversed $296 $-1 #
coedge $-1 -1 -1 $-1 $165 $453 $167 $300 forward $296 $-1 #
loop $-1 -1 -1 $-1 $-1 $295 $273 F unknown #
vertex $-1 -1 -1 $-1 $439 $454 #
straight-curve $-1 -1 -1 $-1 0.5 -0.40000000000000002 0.75 0 0 -1000 I I #
coedge $-1 -1 -1 $-1 $168 $167 $432 $455 reversed $169 $-1 #
edge $-1 -1 -1 $-1 $456 0 $170 0.001 $295 $457 forward @7 unknown F #
edge $-1 -1 -1 $-1 $171 -0.001 $458 0 $276 $459 forward @7 unknown F #
face $460 -1 -1 $-1 $461 $169 $17 $-1 $462 forward single F F #
point $-1 -1 -1 $-1 0.5 -0.40000000000000002 0.65000000000000002 #
point $-1 -1 -1 $-1 0.5 0.40000000000000002 0.65000000000000002 #
rgb_color-st-attrib $-1 -1 $-1 $-1 $174 2 1 2 1 1 1 1 1 1 1 1 1 1 1 0 1 1 1 0.99607843137255003 0.87058823529411999 0.76078431372549005 #
face $463 -1 -1 $-1 $-1 $187 $18 $-1 $464 forward single F F #
loop $-1 -1 -1 $-1 $-1 $318 $174 F unknown #
plane-surface $-1 -1 -1 $-1 0 0 0.65000000000000002 0 0 -1 -1 0 0 forward_v I I I I #
coedge $-1 -1 -1 $-1 $184 $465 $186 $325 forward $175 $-1 #
coedge $-1 -1 -1 $-1 $466 $177 $465 $467 reversed $99 $-1 #
coedge $-1 -1 -1 $-1 $177 $466 $178 $315 forward $99 $-1 #
coedge $-1 -1 -1 $-1 $180 $186 $177 $313 reversed $187 $-1 #
edge $-1 -1 -1 $-1 $316 -0.00080000000000000004 $468 0 $177 $469 forward @7 unknown F #
coedge $-1 -1 -1 $-1 $179 $178 $470 $471 reversed $62 $-1 #
edge $-1 -1 -1 $-1 $472 0 $316 0.00055000000000000003 $178 $473 forward @7 unknown F #
vertex $-1 -1 -1 $-1 $181 $474 #
straight-curve $-1 -1 -1 $-1 -0.69999999999999996 0.40000000000000002 0.10000000000000001 -1000 0 0 I I #
coedge $-1 -1 -1 $-1 $470 $475 $182 $319 forward $307 $-1 #
edge $-1 -1 -1 $-1 $323 0 $320 0.00080000000000000004 $182 $476 forward @7 unknown F #
vertex $-1 -1 -1 $-1 $471 $477 #
straight-curve $-1 -1 -1 $-1 0.69999999999999996 0.40000000000000002 0.65000000000000002 0 0 -1000 I I #
coedge $-1 -1 -1 $-1 $465 $184 $475 $478 reversed $175 $-1 #
vertex $-1 -1 -1 $-1 $478 $479 #
straight-curve $-1 -1 -1 $-1 0.69999999999999996 -0.40000000000000002 0.65000000000000002 0 0 -1000 I I #
edge $-1 -1 -1 $-1 $468 0 $188 0.0014 $309 $480 forward @7 unknown F #
point $-1 -1 -1 $-1 0.69999999999999996 -0.40000000000000002 0.10000000000000001 #
point $-1 -1 -1 $-1 0.69999999999999996 0.40000000000000002 0.10000000000000001 #
rgb_color-st-attrib $-1 -1 $-1 $-1 $192 2 1 2 1 1 1 1 1 1 1 1 1 1 1 0 1 1 1 0.25098039215686002 0.25098039215686002 0.25098039215686002 #
face $481 -1 -1 $-1 $-1 $205 $19 $-1 $482 forward single F F #
loop $-1 -1 -1 $-1 $-1 $341 $192 F unknown #
plane-surface $-1 -1 -1 $-1 0 0 0.10000000000000001 0 0 -1 -1 0 0 forward_v I I I I #
coedge $-1 -1 -1 $-1 $202 $483 $204 $348 forward $193 $-1 #
coedge $-1 -1 -1 $-1 $484 $195 $483 $485 reversed $108 $-1 #
coedge $-1 -1 -1 $-1 $195 $484 $196 $338 forward $108 $-1 #
coedge $-1 -1 -1 $-1 $198 $204 $195 $336 reversed $205 $-1 #
edge $-1 -1 -1 $-1 $339 -0.00080000000000000004 $486 0 $195 $487 forward @7 unknown F #
coedge $-1 -1 -1 $-1 $197 $196 $488 $489 reversed $67 $-1 #
edge $-1 -1 -1 $-1 $490 0 $339 0.0001 $196 $491 forward @7 unknown F #
vertex $-1 -1 -1 $-1 $199 $492 #
straight-curve $-1 -1 -1 $-1 -0.5 0.40000000000000002 0 -1000 0 0 I I #
coedge $-1 -1 -1 $-1 $488 $493 $200 $342 forward $330 $-1 #
edge $-1 -1 -1 $-1 $346 0 $343 0.00080000000000000004 $200 $494 forward @7 unknown F #
vertex $-1 -1 -1 $-1 $489 $495 #
straight-curve $-1 -1 -1 $-1 0.5 0.40000000000000002 0.10000000000000001 0 0 -1000 I I #
coedge $-1 -1 -1 $-1 $483 $202 $493 $496 reversed $193 $-1 #
vertex $-1 -1 -1 $-1 $496 $497 #
straight-curve $-1 -1 -1 $-1 0.5 -0.40000000000000002 0.10000000000000001 0 0 -1000 I I #
edge $-1 -1 -1 $-1 $486 0 $206 0.001 $332 $498 forward @7 unknown F #
point $-1 -1 -1 $-1 0.5 -0.40000000000000002 0 #
point $-1 -1 -1 $-1 0.5 0.40000000000000002 0 #
rgb_color-st-attrib $-1 -1 $-1 $-1 $210 2 1 2 1 1 1 1 1 1 1 1 1 1 1 0 1 1 1 0.75294117647059 0.75294117647059 0.75294117647059 #
face $499 -1 -1 $-1 $379 $500 $15 $-1 $501 forward single F F #
loop $-1 -1 -1 $-1 $-1 $502 $210 F unknown #
plane-surface $-1 -1 -1 $-1 -0.5 0.40000000000000002 0 1 0 0 0 0 -1 forward_v I I I I #
coedge $-1 -1 -1 $-1 $503 $504 $505 $506 forward $211 $-1 #
coedge $-1 -1 -1 $-1 $505 $213 $507 $508 reversed $117 $-1 #
coedge $-1 -1 -1 $-1 $213 $505 $509 $510 forward $117 $-1 #
coedge $-1 -1 -1 $-1 $215 $214 $213 $359 reversed $72 $-1 #
edge $-1 -1 -1 $-1 $511 0 $512 0.00080000000000000004 $358 $513 forward @7 unknown F #
coedge $-1 -1 -1 $-1 $218 $507 $214 $361 forward $368 $-1 #
edge $-1 -1 -1 $-1 $512 0 $365 0.00019999999999999996 $214 $514 forward @7 unknown F #
coedge $-1 -1 -1 $-1 $509 $220 $215 $363 reversed $131 $-1 #
edge $-1 -1 -1 $-1 $511 0 $364 0.00019999999999999996 $215 $515 forward @7 unknown F #
vertex $-1 -1 -1 $-1 $363 $516 #
vertex $-1 -1 -1 $-1 $219 $517 #
straight-curve $-1 -1 -1 $-1 -0.5 0.40000000000000002 0.65000000000000002 0 -1000 0 I I #
coedge $-1 -1 -1 $-1 $228 $218 $223 $371 forward $368 $-1 #
loop $-1 -1 -1 $-1 $-1 $375 $391 F unknown #
straight-curve $-1 -1 -1 $-1 -0.5 -0.40000000000000002 0.65000000000000002 0 0 1000 I I #
straight-curve $-1 -1 -1 $-1 -0.5 0.40000000000000002 0.65000000000000002 0 0 1000 I I #
edge $-1 -1 -1 $-1 $226 0 $235 0.00025000000000000001 $223 $518 forward @7 unknown F #
face $519 -1 -1 $-1 $241 $224 $15 $-1 $520 forward single F F #
point $-1 -1 -1 $-1 -0.5 0.40000000000000002 0.75 #
point $-1 -1 -1 $-1 -0.5 -0.40000000000000002 0.75 #
coedge $-1 -1 -1 $-1 $521 $228 $231 $378 forward $368 $-1 #
ellipse-curve $-1 -1 -1 $-1 -0.75 -0.40000000000000002 0.69999999999999996 0 -1 0 0.050000000000000003 0 0 1 I I #
coedge $-1 -1 -1 $-1 $231 $230 $522 $523 forward $232 $-1 #
edge $-1 -1 -1 $-1 $233 5.0000000000000043e-005 $524 0.00069999999999999999 $231 $525 forward @7 unknown F #
face $526 -1 -1 $-1 $372 $232 $15 $-1 $527 forward single F F #
point $-1 -1 -1 $-1 -0.80000000000000004 -0.40000000000000002 0.69999999999999996 #
point $-1 -1 -1 $-1 -0.75 -0.40000000000000002 0.75 #
straight-curve $-1 -1 -1 $-1 -0.5 0.40000000000000002 0.75 -1000 0 0 I I #
coedge $-1 -1 -1 $-1 $528 $522 $238 $384 reversed $529 $-1 #
edge $-1 -1 -1 $-1 $530 1.5707963267948966 $385 3.1415926535897931 $238 $531 forward @7 unknown F #
vertex $-1 -1 -1 $-1 $523 $532 #
straight-curve $-1 -1 -1 $-1 -0.80000000000000004 0.40000000000000002 0.75 0 0 -1000 I I #
coedge $-1 -1 -1 $-1 $240 $533 $534 $535 reversed $131 $-1 #
coedge $-1 -1 -1 $-1 $536 $537 $240 $389 forward $500 $-1 #
edge $-1 -1 -1 $-1 $530 5.0000000000000043e-005 $538 0.00030000000000000003 $388 $539 forward @7 unknown F #
rgb_color-st-attrib $-1 -1 $-1 $-1 $241 2 1 2 1 1 1 1 1 1 1 1 1 1 1 0 1 1 1 0.75294117647059 0.75294117647059 0.75294117647059 #
face $540 -1 -1 $-1 $541 $368 $15 $-1 $542 forward single F F #
plane-surface $-1 -1 -1 $-1 0 0.40000000000000002 0 0 -1 0 0 0 -1 forward_v I I I I #
rgb_color-st-attrib $-1 -1 $-1 $-1 $245 2 1 2 1 1 1 1 1 1 1 1 1 1 1 0 1 1 1 0.75294117647059 0.75294117647059 0.75294117647059 #
face $543 -1 -1 $-1 $544 $545 $16 $-1 $546 forward single F F #
loop $-1 -1 -1 $-1 $-1 $547 $245 F unknown #
plane-surface $-1 -1 -1 $-1 0.5 0.40000000000000002 0 -1 0 0 0 -0 1 forward_v I I I I #
coedge $-1 -1 -1 $-1 $548 $549 $550 $551 reversed $246 $-1 #
coedge $-1 -1 -1 $-1 $550 $248 $552 $553 reversed $137 $-1 #
coedge $-1 -1 -1 $-1 $248 $550 $418 $554 forward $137 $-1 #
coedge $-1 -1 -1 $-1 $250 $249 $248 $401 forward $81 $-1 #
edge $-1 -1 -1 $-1 $555 0 $556 0.00080000000000000004 $400 $557 forward @7 unknown F #
coedge $-1 -1 -1 $-1 $253 $552 $249 $403 forward $408 $-1 #
edge $-1 -1 -1 $-1 $555 0 $405 0.00019999999999999996 $249 $558 forward @7 unknown F #
edge $-1 -1 -1 $-1 $556 0 $406 0.00019999999999999996 $250 $559 forward @7 unknown F #
vertex $-1 -1 -1 $-1 $254 $560 #
vertex $-1 -1 -1 $-1 $404 $561 #
straight-curve $-1 -1 -1 $-1 0.5 0.40000000000000002 0.65000000000000002 0 -1000 0 I I #
loop $-1 -1 -1 $-1 $-1 $562 $563 F unknown #
straight-curve $-1 -1 -1 $-1 0.5 0.40000000000000002 0.65000000000000002 0 0 1000 I I #
straight-curve $-1 -1 -1 $-1 0.5 -0.40000000000000002 0.65000000000000002 0 0 1000 I I #
point $-1 -1 -1 $-1 0.5 0.40000000000000002 0.75 #
coedge $-1 -1 -1 $-1 $562 $258 $261 $415 forward $408 $-1 #
straight-curve $-1 -1 -1 $-1 0.5 0.40000000000000002 0.75 1000 0 0 I I #
coedge $-1 -1 -1 $-1 $261 $260 $564 $565 reversed $262 $-1 #
edge $-1 -1 -1 $-1 $263 -1.5707963267948966 $566 0 $412 $567 forward @7 unknown F #
face $568 -1 -1 $-1 $-1 $262 $16 $-1 $569 forward single F F #
point $-1 -1 -1 $-1 0.75 0.40000000000000002 0.75 #
coedge $-1 -1 -1 $-1 $570 $265 $399 $554 reversed $148 $-1 #
coedge $-1 -1 -1 $-1 $266 $268 $571 $572 forward $148 $-1 #
coedge $-1 -1 -1 $-1 $573 $564 $266 $421 forward $574 $-1 #
edge $-1 -1 -1 $-1 $422 5.0000000000000043e-005 $575 0.00069999999999999999 $420 $576 forward @7 unknown F #
vertex $-1 -1 -1 $-1 $565 $577 #
ellipse-curve $-1 -1 -1 $-1 0.75 -0.40000000000000002 0.69999999999999996 0 -1 0 0.050000000000000003 0 0 1 I I #
coedge $-1 -1 -1 $-1 $268 $570 $578 $579 reversed $148 $-1 #
coedge $-1 -1 -1 $-1 $580 $581 $268 $426 forward $545 $-1 #
edge $-1 -1 -1 $-1 $582 5.0000000000000043e-005 $583 0.00030000000000000003 $425 $584 forward @7 unknown F #
rgb_color-st-attrib $-1 -1 $-1 $-1 $269 2 1 2 1 1 1 1 1 1 1 1 1 1 1 0 1 1 1 0.75294117647059 0.75294117647059 0.75294117647059 #
face $585 -1 -1 $-1 $416 $586 $16 $-1 $587 forward single F F #
plane-surface $-1 -1 -1 $-1 0 -0.40000000000000002 0 0 -1 0 0 0 -1 forward_v I I I I #
rgb_color-st-attrib $-1 -1 $-1 $-1 $273 2 1 2 1 1 1 1 1 1 1 1 1 1 1 0 1 1 1 0.25098039215686002 0.25098039215686002 0.25098039215686002 #
plane-surface $-1 -1 -1 $-1 -0.5 -0.40000000000000002 0.75 0 1 0 0 0 1 forward_v I I I I #
coedge $-1 -1 -1 $-1 $588 $589 $299 $455 forward $274 $-1 #
coedge $-1 -1 -1 $-1 $291 $276 $589 $590 reversed $154 $-1 #
coedge $-1 -1 -1 $-1 $277 $277 $281 $441 reversed $156 $-1 #
coedge $-1 -1 -1 $-1 $282 $284 $277 $436 forward $443 $-1 #
edge $-1 -1 -1 $-1 $446 0 $444 3.1415926535897931 $277 $591 forward @7 unknown F #
coedge $-1 -1 -1 $-1 $279 $278 $592 $593 forward $90 $-1 #
edge $-1 -1 -1 $-1 $292 -0.001 $594 0 $278 $595 forward @7 unknown F #
edge $-1 -1 -1 $-1 $596 0 $297 0.001 $279 $597 forward @7 unknown F #
straight-curve $-1 -1 -1 $-1 0.5 -0.40000000000000002 0.75 0 1000 0 I I #
edge $-1 -1 -1 $-1 $444 -3.1415926535897931 $446 0 $281 $598 forward @7 unknown F #
coedge $-1 -1 -1 $-1 $284 $282 $286 $448 reversed $443 $-1 #
loop $-1 -1 -1 $-1 $-1 $282 $461 F unknown #
vertex $-1 -1 -1 $-1 $436 $599 #
straight-curve $-1 -1 -1 $-1 0 -0.34999999999999998 0.751 0 0 -1000 I I #
vertex $-1 -1 -1 $-1 $436 $600 #
straight-curve $-1 -1 -1 $-1 0 0.34999999999999998 0.751 0 0 -1000 I I #
edge $-1 -1 -1 $-1 $289 -3.1415926535897931 $288 0 $442 $601 forward @7 unknown F #
face $602 -1 -1 $-1 $-1 $287 $17 $-1 $603 forward single F F #
point $-1 -1 -1 $-1 0 -0.34999999999999998 0.751 #
point $-1 -1 -1 $-1 0 0.34999999999999998 0.751 #
point $-1 -1 -1 $-1 0.5 0.40000000000000002 0.75 #
coedge $-1 -1 -1 $-1 $295 $294 $588 $604 forward $296 $-1 #
point $-1 -1 -1 $-1 0.5 -0.40000000000000002 0.75 #
edge $-1 -1 -1 $-1 $458 -0.00080000000000000004 $456 0 $432 $605 forward @7 unknown F #
vertex $-1 -1 -1 $-1 $455 $606 #
straight-curve $-1 -1 -1 $-1 -0.5 -0.40000000000000002 0.65000000000000002 1000 0 0 I I #
vertex $-1 -1 -1 $-1 $301 $607 #
straight-curve $-1 -1 -1 $-1 -0.5 0.40000000000000002 0.65000000000000002 -1000 0 0 I I #
rgb_color-st-attrib $-1 -1 $-1 $-1 $302 2 1 2 1 1 1 1 1 1 1 1 1 1 1 0 1 1 1 0.25098039215686002 0.25098039215686002 0.25098039215686002 #
face $608 -1 -1 $-1 $449 $443 $17 $-1 $609 forward single F F #
plane-surface $-1 -1 -1 $-1 0 0 0.65000000000000002 0 0 -1 -1 0 0 forward_v I I I I #
rgb_color-st-attrib $-1 -1 $-1 $-1 $306 2 1 2 1 1 1 1 1 1 1 1 1 1 1 0 1 1 1 0.99607843137255003 0.87058823529411999 0.76078431372549005 #
plane-surface $-1 -1 -1 $-1 0 0 0.10000000000000001 0 0 -1 -1 0 0 forward_v I I I I #
coedge $-1 -1 -1 $-1 $309 $322 $310 $467 forward $175 $-1 #
coedge $-1 -1 -1 $-1 $311 $310 $610 $611 reversed $99 $-1 #
edge $-1 -1 -1 $-1 $612 0 $468 0.00055000000000000003 $310 $613 forward @7 unknown F #
vertex $-1 -1 -1 $-1 $313 $614 #
straight-curve $-1 -1 -1 $-1 -0.69999999999999996 -0.40000000000000002 0.10000000000000001 0 -1000 0 I I #
coedge $-1 -1 -1 $-1 $610 $318 $314 $471 forward $307 $-1 #
edge $-1 -1 -1 $-1 $320 -0.0014 $472 0 $314 $615 forward @7 unknown F #
vertex $-1 -1 -1 $-1 $611 $616 #
straight-curve $-1 -1 -1 $-1 -0.69999999999999996 0.40000000000000002 0.65000000000000002 0 0 -1000 I I #
point $-1 -1 -1 $-1 -0.69999999999999996 0.40000000000000002 0.10000000000000001 #
coedge $-1 -1 -1 $-1 $318 $610 $322 $478 forward $307 $-1 #
straight-curve $-1 -1 -1 $-1 0.69999999999999996 -0.40000000000000002 0.65000000000000002 0 1000 0 I I #
point $-1 -1 -1 $-1 0.69999999999999996 0.40000000000000002 0.65000000000000002 #
edge $-1 -1 -1 $-1 $612 0 $323 0.0014 $322 $617 forward @7 unknown F #
point $-1 -1 -1 $-1 0.69999999999999996 -0.40000000000000002 0.65000000000000002 #
straight-curve $-1 -1 -1 $-1 -0.69999999999999996 -0.40000000000000002 0.10000000000000001 1000 0 0 I I #
rgb_color-st-attrib $-1 -1 $-1 $-1 $329 2 1 2 1 1 1 1 1 1 1 1 1 1 1 0 1 1 1 0.25098039215686002 0.25098039215686002 0.25098039215686002 #
plane-surface $-1 -1 -1 $-1 0 0 0 0 0 -1 -1 0 0 forward_v I I I I #
coedge $-1 -1 -1 $-1 $332 $345 $333 $485 forward $193 $-1 #
coedge $-1 -1 -1 $-1 $334 $333 $618 $619 reversed $108 $-1 #
edge $-1 -1 -1 $-1 $620 0 $486 0.0001 $333 $621 forward @7 unknown F #
vertex $-1 -1 -1 $-1 $336 $622 #
straight-curve $-1 -1 -1 $-1 -0.5 -0.40000000000000002 0 0 -1000 0 I I #
coedge $-1 -1 -1 $-1 $618 $341 $337 $489 forward $330 $-1 #
edge $-1 -1 -1 $-1 $343 -0.001 $490 0 $337 $623 forward @7 unknown F #
vertex $-1 -1 -1 $-1 $619 $624 #
straight-curve $-1 -1 -1 $-1 -0.5 0.40000000000000002 0.10000000000000001 0 0 -1000 I I #
point $-1 -1 -1 $-1 -0.5 0.40000000000000002 0 #
coedge $-1 -1 -1 $-1 $341 $618 $345 $496 forward $330 $-1 #
straight-curve $-1 -1 -1 $-1 0.5 -0.40000000000000002 0.10000000000000001 0 1000 0 I I #
point $-1 -1 -1 $-1 0.5 0.40000000000000002 0.10000000000000001 #
edge $-1 -1 -1 $-1 $620 0 $346 0.001 $345 $625 forward @7 unknown F #
point $-1 -1 -1 $-1 0.5 -0.40000000000000002 0.10000000000000001 #
straight-curve $-1 -1 -1 $-1 -0.5 -0.40000000000000002 0 1000 0 0 I I #
rgb_color-st-attrib $-1 -1 $-1 $-1 $352 2 1 2 1 1 1 1 1 1 1 1 1 1 1 0 1 1 1 0.75294117647059 0.75294117647059 0.75294117647059 #
loop $-1 -1 -1 $-1 $-1 $626 $352 F unknown #
plane-surface $-1 -1 -1 $-1 -0.80000000000000004 0.40000000000000002 0 0 0 -1 -1 0 0 forward_v I I I I #
coedge $-1 -1 -1 $-1 $627 $534 $628 $629 forward $353 $-1 #
coedge $-1 -1 -1 $-1 $628 $355 $630 $631 reversed $211 $-1 #
coedge $-1 -1 -1 $-1 $355 $628 $533 $632 forward $211 $-1 #
coedge $-1 -1 -1 $-1 $357 $356 $355 $506 reversed $117 $-1 #
edge $-1 -1 -1 $-1 $633 0 $634 0.00080000000000000004 $505 $635 forward @7 unknown F #
coedge $-1 -1 -1 $-1 $360 $630 $356 $508 forward $368 $-1 #
edge $-1 -1 -1 $-1 $634 0 $512 0.00055000000000000003 $356 $636 forward @7 unknown F #
coedge $-1 -1 -1 $-1 $533 $362 $357 $510 reversed $131 $-1 #
edge $-1 -1 -1 $-1 $633 0 $511 0.00055000000000000003 $357 $637 forward @7 unknown F #
vertex $-1 -1 -1 $-1 $510 $638 #
vertex $-1 -1 -1 $-1 $361 $639 #
straight-curve $-1 -1 -1 $-1 -0.69999999999999996 0.40000000000000002 0.65000000000000002 0 -1000 0 I I #
straight-curve $-1 -1 -1 $-1 -0.69999999999999996 -0.40000000000000002 0.65000000000000002 1000 0 0 I I #
straight-curve $-1 -1 -1 $-1 -0.69999999999999996 0.40000000000000002 0.65000000000000002 1000 0 0 I I #
point $-1 -1 -1 $-1 -0.5 0.40000000000000002 0.65000000000000002 #
point $-1 -1 -1 $-1 -0.5 -0.40000000000000002 0.65000000000000002 #
straight-curve $-1 -1 -1 $-1 -0.5 -0.40000000000000002 0.75 -1000 0 0 I I #
rgb_color-st-attrib $-1 -1 $-1 $-1 $372 2 1 2 1 1 1 1 1 1 1 1 1 1 1 0 1 1 1 0.75294117647059 0.75294117647059 0.75294117647059 #
plane-surface $-1 -1 -1 $-1 -0.5 0.40000000000000002 0.75 0 0 1 1 0 0 forward_v I I I I #
coedge $-1 -1 -1 $-1 $640 $375 $641 $642 forward $368 $-1 #
coedge $-1 -1 -1 $-1 $383 $641 $377 $523 reversed $529 $-1 #
edge $-1 -1 -1 $-1 $385 0 $524 0.00080000000000000004 $377 $643 forward @7 unknown F #
vertex $-1 -1 -1 $-1 $523 $644 #
straight-curve $-1 -1 -1 $-1 -0.80000000000000004 -0.40000000000000002 0.75 0 0 -1000 I I #
rgb_color-st-attrib $-1 -1 $-1 $-1 $379 2 1 2 1 1 1 1 1 1 1 1 1 1 1 0 1 1 1 0.75294117647059 0.75294117647059 0.75294117647059 #
plane-surface $-1 -1 -1 $-1 -0.80000000000000004 0.40000000000000002 0.75 -1 0 0 0 -0 1 forward_v I I I I #
coedge $-1 -1 -1 $-1 $641 $383 $537 $645 reversed $529 $-1 #
loop $-1 -1 -1 $-1 $-1 $383 $541 F unknown #
vertex $-1 -1 -1 $-1 $645 $646 #
ellipse-curve $-1 -1 -1 $-1 -0.75 0.40000000000000002 0.050000000000000003 0 1 0 0.050000000000000003 -0 0 1 I I #
point $-1 -1 -1 $-1 -0.80000000000000004 0.40000000000000002 0.050000000000000003 #
coedge $-1 -1 -1 $-1 $387 $509 $504 $632 reversed $131 $-1 #
coedge $-1 -1 -1 $-1 $502 $647 $387 $535 forward $353 $-1 #
edge $-1 -1 -1 $-1 $538 0 $648 0.0001 $534 $649 forward @7 unknown F #
coedge $-1 -1 -1 $-1 $626 $388 $647 $650 forward $500 $-1 #
coedge $-1 -1 -1 $-1 $388 $626 $528 $645 forward $500 $-1 #
vertex $-1 -1 -1 $-1 $535 $651 #
straight-curve $-1 -1 -1 $-1 -0.80000000000000004 0.40000000000000002 0 1000 0 0 I I #
rgb_color-st-attrib $-1 -1 $-1 $-1 $391 2 1 2 1 1 1 1 1 1 1 1 1 1 1 0 1 1 1 0.75294117647059 0.75294117647059 0.75294117647059 #
face $652 -1 -1 $-1 $-1 $529 $15 $-1 $653 forward single F F #
plane-surface $-1 -1 -1 $-1 0 -0.40000000000000002 0 0 -1 0 0 0 -1 forward_v I I I I #
rgb_color-st-attrib $-1 -1 $-1 $-1 $394 2 1 2 1 1 1 1 1 1 1 1 1 1 1 0 1 1 1 0.75294117647059 0.75294117647059 0.75294117647059 #
face $654 -1 -1 $-1 $563 $574 $16 $-1 $655 forward single F F #
loop $-1 -1 -1 $-1 $-1 $656 $394 F unknown #
plane-surface $-1 -1 -1 $-1 0.80000000000000004 0.40000000000000002 0 0 0 -1 -1 0 0 forward_v I I I I #
coedge $-1 -1 -1 $-1 $657 $578 $658 $659 reversed $395 $-1 #
coedge $-1 -1 -1 $-1 $658 $397 $660 $661 reversed $246 $-1 #
coedge $-1 -1 -1 $-1 $397 $658 $570 $662 forward $246 $-1 #
coedge $-1 -1 -1 $-1 $399 $398 $397 $551 forward $137 $-1 #
edge $-1 -1 -1 $-1 $663 0 $664 0.00080000000000000004 $550 $665 forward @7 unknown F #
coedge $-1 -1 -1 $-1 $402 $660 $398 $553 forward $408 $-1 #
edge $-1 -1 -1 $-1 $663 0 $555 0.00055000000000000003 $398 $666 forward @7 unknown F #
edge $-1 -1 -1 $-1 $664 0 $556 0.00055000000000000003 $399 $667 forward @7 unknown F #
vertex $-1 -1 -1 $-1 $403 $668 #
vertex $-1 -1 -1 $-1 $554 $669 #
straight-curve $-1 -1 -1 $-1 0.69999999999999996 0.40000000000000002 0.65000000000000002 0 -1000 0 I I #
straight-curve $-1 -1 -1 $-1 0.69999999999999996 0.40000000000000002 0.65000000000000002 -1000 0 0 I I #
straight-curve $-1 -1 -1 $-1 0.69999999999999996 -0.40000000000000002 0.65000000000000002 -1000 0 0 I I #
point $-1 -1 -1 $-1 0.5 0.40000000000000002 0.65000000000000002 #
point $-1 -1 -1 $-1 0.5 -0.40000000000000002 0.65000000000000002 #
coedge $-1 -1 -1 $-1 $670 $412 $671 $672 forward $408 $-1 #
face $673 -1 -1 $-1 $269 $408 $16 $-1 $674 reversed single F F #
coedge $-1 -1 -1 $-1 $420 $671 $414 $565 forward $574 $-1 #
edge $-1 -1 -1 $-1 $566 0 $422 0.00080000000000000004 $564 $675 forward @7 unknown F #
vertex $-1 -1 -1 $-1 $565 $676 #
ellipse-curve $-1 -1 -1 $-1 0.75 0.40000000000000002 0.69999999999999996 0 1 0 0.050000000000000003 -0 0 1 I I #
rgb_color-st-attrib $-1 -1 $-1 $-1 $416 2 1 2 1 1 1 1 1 1 1 1 1 1 1 0 1 1 1 0.75294117647059 0.75294117647059 0.75294117647059 #
cone-surface $-1 -1 -1 $-1 0.75 0.40000000000000002 0.69999999999999996 0 -1 0 0.050000000000000003 0 0 1 I I 0 1 0.050000000000000003 forward I I I I #
coedge $-1 -1 -1 $-1 $424 $418 $549 $662 reversed $148 $-1 #
coedge $-1 -1 -1 $-1 $677 $678 $419 $572 reversed $586 $-1 #
edge $-1 -1 -1 $-1 $582 -1.5707963267948966 $575 0 $419 $679 forward @7 unknown F #
coedge $-1 -1 -1 $-1 $671 $420 $678 $680 forward $574 $-1 #
loop $-1 -1 -1 $-1 $-1 $420 $544 F unknown #
vertex $-1 -1 -1 $-1 $572 $681 #
straight-curve $-1 -1 -1 $-1 0.80000000000000004 -0.40000000000000002 0.75 0 0 -1000 I I #
point $-1 -1 -1 $-1 0.80000000000000004 -0.40000000000000002 0.69999999999999996 #
coedge $-1 -1 -1 $-1 $547 $682 $424 $579 forward $395 $-1 #
edge $-1 -1 -1 $-1 $583 0 $683 0.0001 $578 $684 forward @7 unknown F #
coedge $-1 -1 -1 $-1 $656 $425 $682 $685 reversed $545 $-1 #
coedge $-1 -1 -1 $-1 $425 $656 $677 $686 forward $545 $-1 #
vertex $-1 -1 -1 $-1 $686 $687 #
vertex $-1 -1 -1 $-1 $579 $688 #
straight-curve $-1 -1 -1 $-1 0.80000000000000004 -0.40000000000000002 0 -1000 0 0 I I #
rgb_color-st-attrib $-1 -1 $-1 $-1 $428 2 1 2 1 1 1 1 1 1 1 1 1 1 1 0 1 1 1 0.75294117647059 0.75294117647059 0.75294117647059 #
loop $-1 -1 -1 $-1 $-1 $689 $428 F unknown #
cone-surface $-1 -1 -1 $-1 0.75 0.40000000000000002 0.050000000000000003 0 -1 0 0.050000000000000003 0 0 1 I I 0 1 0.050000000000000003 forward I I I I #
coedge $-1 -1 -1 $-1 $592 $432 $453 $604 reversed $274 $-1 #
coedge $-1 -1 -1 $-1 $432 $592 $433 $590 forward $274 $-1 #
edge $-1 -1 -1 $-1 $594 0 $458 9.9999999999999978e-005 $433 $690 forward @7 unknown F #
ellipse-curve $-1 -1 -1 $-1 0 0 0.75 0 0 1 0 0.34999999999999998 -0 1 I I #
coedge $-1 -1 -1 $-1 $589 $588 $437 $593 reversed $274 $-1 #
edge $-1 -1 -1 $-1 $594 -0.00080000000000000004 $596 0 $437 $691 forward @7 unknown F #
vertex $-1 -1 -1 $-1 $590 $692 #
straight-curve $-1 -1 -1 $-1 -0.5 0.40000000000000002 0.75 -1000 0 0 I I #
vertex $-1 -1 -1 $-1 $604 $693 #
straight-curve $-1 -1 -1 $-1 -0.5 -0.40000000000000002 0.75 1000 0 0 I I #
ellipse-curve $-1 -1 -1 $-1 0 0 0.75 0 0 1 0 0.34999999999999998 -0 1 I I #
point $-1 -1 -1 $-1 0 -0.34999999999999998 0.75 #
point $-1 -1 -1 $-1 0 0.34999999999999998 0.75 #
ellipse-curve $-1 -1 -1 $-1 0 0 0.751 0 0 1 0 -0.34999999999999998 0 1 I I #
rgb_color-st-attrib $-1 -1 $-1 $-1 $449 2 1 2 1 1 1 1 1 1 1 1 1 1 1 0 1 1 1 1 0 0 #
sphere-surface $-1 -1 -1 $-1 0 0 0.751 0.34999999999999998 1 0 0 0 0 1 forward_v I I I I #
edge $-1 -1 -1 $-1 $596 0 $456 9.9999999999999978e-005 $588 $694 forward @7 unknown F #
straight-curve $-1 -1 -1 $-1 -0.5 -0.40000000000000002 0.65000000000000002 0 -1000 0 I I #
point $-1 -1 -1 $-1 -0.5 -0.40000000000000002 0.65000000000000002 #
point $-1 -1 -1 $-1 -0.5 0.40000000000000002 0.65000000000000002 #
rgb_color-st-attrib $-1 -1 $-1 $-1 $461 2 1 2 1 1 1 1 1 1 1 1 1 1 1 0 1 1 1 0.25098039215686002 0.25098039215686002 0.25098039215686002 #
cone-surface $-1 -1 -1 $-1 0 0 0.751 0 0 -1 0 0.34999999999999998 0 1 I I 0 1 0.34999999999999998 forward I I I I #
coedge $-1 -1 -1 $-1 $475 $470 $466 $611 forward $307 $-1 #
edge $-1 -1 -1 $-1 $472 -0.00080000000000000004 $612 0 $466 $695 forward @7 unknown F #
vertex $-1 -1 -1 $-1 $478 $696 #
straight-curve $-1 -1 -1 $-1 -0.69999999999999996 -0.40000000000000002 0.65000000000000002 0 0 -1000 I I #
point $-1 -1 -1 $-1 -0.69999999999999996 -0.40000000000000002 0.10000000000000001 #
straight-curve $-1 -1 -1 $-1 -0.69999999999999996 0.40000000000000002 0.65000000000000002 -1000 0 0 I I #
point $-1 -1 -1 $-1 -0.69999999999999996 0.40000000000000002 0.65000000000000002 #
straight-curve $-1 -1 -1 $-1 -0.69999999999999996 -0.40000000000000002 0.65000000000000002 1000 0 0 I I #
coedge $-1 -1 -1 $-1 $493 $488 $484 $619 forward $330 $-1 #
edge $-1 -1 -1 $-1 $490 -0.00080000000000000004 $620 0 $484 $697 forward @7 unknown F #
vertex $-1 -1 -1 $-1 $496 $698 #
straight-curve $-1 -1 -1 $-1 -0.5 -0.40000000000000002 0.10000000000000001 0 0 -1000 I I #
point $-1 -1 -1 $-1 -0.5 -0.40000000000000002 0 #
straight-curve $-1 -1 -1 $-1 -0.5 0.40000000000000002 0.10000000000000001 -1000 0 0 I I #
point $-1 -1 -1 $-1 -0.5 0.40000000000000002 0.10000000000000001 #
straight-curve $-1 -1 -1 $-1 -0.5 -0.40000000000000002 0.10000000000000001 1000 0 0 I I #
coedge $-1 -1 -1 $-1 $537 $536 $640 $699 reversed $500 $-1 #
coedge $-1 -1 -1 $-1 $647 $502 $700 $701 reversed $353 $-1 #
coedge $-1 -1 -1 $-1 $504 $503 $502 $629 reversed $211 $-1 #
edge $-1 -1 -1 $-1 $648 0 $702 0.00080000000000000004 $628 $703 forward @7 unknown F #
coedge $-1 -1 -1 $-1 $507 $700 $503 $631 forward $368 $-1 #
edge $-1 -1 -1 $-1 $702 0 $634 0.00019999999999999996 $503 $704 forward @7 unknown F #
edge $-1 -1 -1 $-1 $648 0 $633 0.00019999999999999996 $504 $705 forward @7 unknown F #
vertex $-1 -1 -1 $-1 $632 $706 #
vertex $-1 -1 -1 $-1 $508 $707 #
straight-curve $-1 -1 -1 $-1 -0.69999999999999996 0.40000000000000002 0.10000000000000001 0 -1000 0 I I #
straight-curve $-1 -1 -1 $-1 -0.69999999999999996 -0.40000000000000002 0.10000000000000001 0 0 1000 I I #
straight-curve $-1 -1 -1 $-1 -0.69999999999999996 0.40000000000000002 0.10000000000000001 0 0 1000 I I #
point $-1 -1 -1 $-1 -0.69999999999999996 0.40000000000000002 0.65000000000000002 #
point $-1 -1 -1 $-1 -0.69999999999999996 -0.40000000000000002 0.65000000000000002 #
coedge $-1 -1 -1 $-1 $700 $521 $626 $699 forward $368 $-1 #
coedge $-1 -1 -1 $-1 $522 $528 $521 $642 reversed $529 $-1 #
edge $-1 -1 -1 $-1 $524 -3.1415926535897931 $708 -1.5707963267948966 $521 $709 forward @7 unknown F #
straight-curve $-1 -1 -1 $-1 -0.80000000000000004 0.40000000000000002 0.050000000000000003 0 -1000 0 I I #
point $-1 -1 -1 $-1 -0.80000000000000004 -0.40000000000000002 0.050000000000000003 #
edge $-1 -1 -1 $-1 $708 -0.00080000000000000004 $530 0 $537 $710 forward @7 unknown F #
point $-1 -1 -1 $-1 -0.75 0.40000000000000002 0 #
coedge $-1 -1 -1 $-1 $534 $627 $536 $650 reversed $353 $-1 #
vertex $-1 -1 -1 $-1 $535 $711 #
straight-curve $-1 -1 -1 $-1 -0.5 0.40000000000000002 0 0 0 1000 I I #
edge $-1 -1 -1 $-1 $538 0 $712 0.00080000000000000004 $647 $713 forward @7 unknown F #
point $-1 -1 -1 $-1 -0.5 0.40000000000000002 0 #
rgb_color-st-attrib $-1 -1 $-1 $-1 $541 2 1 2 1 1 1 1 1 1 1 1 1 1 1 0 1 1 1 0.75294117647059 0.75294117647059 0.75294117647059 #
cone-surface $-1 -1 -1 $-1 -0.75 0.40000000000000002 0.050000000000000003 0 -1 0 0.050000000000000003 0 0 1 I I 0 1 0.050000000000000003 forward I I I I #
rgb_color-st-attrib $-1 -1 $-1 $-1 $544 2 1 2 1 1 1 1 1 1 1 1 1 1 1 0 1 1 1 0.75294117647059 0.75294117647059 0.75294117647059 #
plane-surface $-1 -1 -1 $-1 0.80000000000000004 0.40000000000000002 0.75 1 0 0 0 0 -1 forward_v I I I I #
coedge $-1 -1 -1 $-1 $581 $580 $714 $715 reversed $545 $-1 #
coedge $-1 -1 -1 $-1 $682 $547 $716 $717 reversed $395 $-1 #
coedge $-1 -1 -1 $-1 $549 $548 $547 $659 forward $246 $-1 #
edge $-1 -1 -1 $-1 $718 0 $683 0.00080000000000000004 $658 $719 forward @7 unknown F #
coedge $-1 -1 -1 $-1 $552 $716 $548 $661 forward $408 $-1 #
edge $-1 -1 -1 $-1 $718 0 $663 0.00019999999999999996 $548 $720 forward @7 unknown F #
edge $-1 -1 -1 $-1 $683 0 $664 0.00019999999999999996 $549 $721 forward @7 unknown F #
vertex $-1 -1 -1 $-1 $553 $722 #
vertex $-1 -1 -1 $-1 $662 $723 #
straight-curve $-1 -1 -1 $-1 0.69999999999999996 0.40000000000000002 0.10000000000000001 0 -1000 0 I I #
straight-curve $-1 -1 -1 $-1 0.69999999999999996 0.40000000000000002 0.10000000000000001 0 0 1000 I I #
straight-curve $-1 -1 -1 $-1 0.69999999999999996 -0.40000000000000002 0.10000000000000001 0 0 1000 I I #
point $-1 -1 -1 $-1 0.69999999999999996 0.40000000000000002 0.65000000000000002 #
point $-1 -1 -1 $-1 0.69999999999999996 -0.40000000000000002 0.65000000000000002 #
coedge $-1 -1 -1 $-1 $714 $562 $689 $724 forward $408 $-1 #
coedge $-1 -1 -1 $-1 $564 $573 $562 $672 reversed $574 $-1 #
edge $-1 -1 -1 $-1 $566 5.0000000000000043e-005 $725 0.00069999999999999999 $671 $726 forward @7 unknown F #
rgb_color-st-attrib $-1 -1 $-1 $-1 $563 2 1 2 1 1 1 1 1 1 1 1 1 1 1 0 1 1 1 0.75294117647059 0.75294117647059 0.75294117647059 #
plane-surface $-1 -1 -1 $-1 0 0.40000000000000002 0 0 -1 0 0 0 -1 forward_v I I I I #
straight-curve $-1 -1 -1 $-1 0.80000000000000004 0.40000000000000002 0.69999999999999996 0 -1000 0 I I #
point $-1 -1 -1 $-1 0.80000000000000004 0.40000000000000002 0.69999999999999996 #
coedge $-1 -1 -1 $-1 $689 $571 $581 $686 reversed $586 $-1 #
coedge $-1 -1 -1 $-1 $571 $689 $573 $680 reversed $586 $-1 #
ellipse-curve $-1 -1 -1 $-1 0.75 -0.40000000000000002 0.050000000000000003 0 -1 0 0.050000000000000003 0 0 1 I I #
edge $-1 -1 -1 $-1 $575 -0.00080000000000000004 $725 0 $573 $727 forward @7 unknown F #
point $-1 -1 -1 $-1 0.80000000000000004 -0.40000000000000002 0.050000000000000003 #
coedge $-1 -1 -1 $-1 $578 $657 $580 $685 forward $395 $-1 #
vertex $-1 -1 -1 $-1 $579 $728 #
straight-curve $-1 -1 -1 $-1 0.5 -0.40000000000000002 0 0 0 1000 I I #
edge $-1 -1 -1 $-1 $729 0 $583 0.00080000000000000004 $682 $730 forward @7 unknown F #
edge $-1 -1 -1 $-1 $731 0 $582 0.00080000000000000004 $581 $732 forward @7 unknown F #
point $-1 -1 -1 $-1 0.75 -0.40000000000000002 0 #
point $-1 -1 -1 $-1 0.5 -0.40000000000000002 0 #
coedge $-1 -1 -1 $-1 $678 $677 $670 $724 reversed $586 $-1 #
straight-curve $-1 -1 -1 $-1 -0.5 0.40000000000000002 0.75 0 0 -1000 I I #
straight-curve $-1 -1 -1 $-1 -0.5 -0.40000000000000002 0.75 0 -1000 0 I I #
point $-1 -1 -1 $-1 -0.5 0.40000000000000002 0.75 #
point $-1 -1 -1 $-1 -0.5 -0.40000000000000002 0.75 #
straight-curve $-1 -1 -1 $-1 -0.5 -0.40000000000000002 0.75 0 0 -1000 I I #
straight-curve $-1 -1 -1 $-1 -0.69999999999999996 -0.40000000000000002 0.65000000000000002 0 -1000 0 I I #
point $-1 -1 -1 $-1 -0.69999999999999996 -0.40000000000000002 0.65000000000000002 #
straight-curve $-1 -1 -1 $-1 -0.5 -0.40000000000000002 0.10000000000000001 0 -1000 0 I I #
point $-1 -1 -1 $-1 -0.5 -0.40000000000000002 0.10000000000000001 #
edge $-1 -1 -1 $-1 $708 5.0000000000000043e-005 $712 0.00030000000000000003 $626 $733 forward @7 unknown F #
coedge $-1 -1 -1 $-1 $630 $640 $627 $701 forward $368 $-1 #
edge $-1 -1 -1 $-1 $712 0 $702 0.0001 $627 $734 forward @7 unknown F #
vertex $-1 -1 -1 $-1 $631 $735 #
straight-curve $-1 -1 -1 $-1 -0.5 0.40000000000000002 0.10000000000000001 0 -1000 0 I I #
straight-curve $-1 -1 -1 $-1 -0.5 -0.40000000000000002 0.10000000000000001 -1000 0 0 I I #
straight-curve $-1 -1 -1 $-1 -0.5 0.40000000000000002 0.10000000000000001 -1000 0 0 I I #
point $-1 -1 -1 $-1 -0.69999999999999996 0.40000000000000002 0.10000000000000001 #
point $-1 -1 -1 $-1 -0.69999999999999996 -0.40000000000000002 0.10000000000000001 #
vertex $-1 -1 -1 $-1 $642 $736 #
ellipse-curve $-1 -1 -1 $-1 -0.75 -0.40000000000000002 0.050000000000000003 0 -1 0 0.050000000000000003 0 0 1 I I #
straight-curve $-1 -1 -1 $-1 -0.75 0.40000000000000002 0 0 1000 0 I I #
point $-1 -1 -1 $-1 -0.5 0.40000000000000002 0.10000000000000001 #
vertex $-1 -1 -1 $-1 $701 $737 #
straight-curve $-1 -1 -1 $-1 -0.5 0.40000000000000002 0 0 -1000 0 I I #
coedge $-1 -1 -1 $-1 $716 $670 $656 $715 forward $408 $-1 #
edge $-1 -1 -1 $-1 $731 5.0000000000000043e-005 $729 0.00030000000000000003 $656 $738 forward @7 unknown F #
coedge $-1 -1 -1 $-1 $660 $714 $657 $717 forward $408 $-1 #
edge $-1 -1 -1 $-1 $729 0 $718 0.0001 $657 $739 forward @7 unknown F #
vertex $-1 -1 -1 $-1 $661 $740 #
straight-curve $-1 -1 -1 $-1 0.5 0.40000000000000002 0.10000000000000001 0 -1000 0 I I #
straight-curve $-1 -1 -1 $-1 0.5 0.40000000000000002 0.10000000000000001 1000 0 0 I I #
straight-curve $-1 -1 -1 $-1 0.5 -0.40000000000000002 0.10000000000000001 1000 0 0 I I #
point $-1 -1 -1 $-1 0.69999999999999996 0.40000000000000002 0.10000000000000001 #
point $-1 -1 -1 $-1 0.69999999999999996 -0.40000000000000002 0.10000000000000001 #
edge $-1 -1 -1 $-1 $725 0 $731 1.5707963267948966 $670 $741 forward @7 unknown F #
vertex $-1 -1 -1 $-1 $680 $742 #
straight-curve $-1 -1 -1 $-1 0.80000000000000004 0.40000000000000002 0.75 0 0 -1000 I I #
straight-curve $-1 -1 -1 $-1 0.80000000000000004 0.40000000000000002 0.050000000000000003 0 1000 0 I I #
point $-1 -1 -1 $-1 0.5 -0.40000000000000002 0.10000000000000001 #
vertex $-1 -1 -1 $-1 $717 $743 #
straight-curve $-1 -1 -1 $-1 0.5 0.40000000000000002 0 0 -1000 0 I I #
vertex $-1 -1 -1 $-1 $686 $744 #
straight-curve $-1 -1 -1 $-1 0.75 0.40000000000000002 0 0 -1000 0 I I #
straight-curve $-1 -1 -1 $-1 -0.80000000000000004 -0.40000000000000002 0 1000 0 0 I I #
straight-curve $-1 -1 -1 $-1 -0.5 -0.40000000000000002 0 0 0 1000 I I #
point $-1 -1 -1 $-1 -0.5 -0.40000000000000002 0.10000000000000001 #
point $-1 -1 -1 $-1 -0.75 -0.40000000000000002 0 #
point $-1 -1 -1 $-1 -0.5 -0.40000000000000002 0 #
straight-curve $-1 -1 -1 $-1 0.80000000000000004 0.40000000000000002 0 -1000 0 0 I I #
straight-curve $-1 -1 -1 $-1 0.5 0.40000000000000002 0 0 0 1000 I I #
point $-1 -1 -1 $-1 0.5 0.40000000000000002 0.10000000000000001 #
ellipse-curve $-1 -1 -1 $-1 0.75 0.40000000000000002 0.050000000000000003 0 1 0 0.050000000000000003 -0 0 1 I I #
point $-1 -1 -1 $-1 0.80000000000000004 0.40000000000000002 0.050000000000000003 #
point $-1 -1 -1 $-1 0.5 0.40000000000000002 0 #
point $-1 -1 -1 $-1 0.75 0.40000000000000002 0 #
End-of-ACIS-data 