2400 0 3 0           
12 BoardModeler 14 ACIS 24.0.2 NT 24 Fri Oct 23 12:40:52 2015 
1 9.9999999999999995e-007 1e-010 
body $3 -1 -1 $-1 $4 $-1 $-1 F #
body $5 -1 -1 $-1 $6 $-1 $-1 F #
body $7 -1 -1 $-1 $8 $-1 $-1 F #
rgb_color-st-attrib $-1 -1 $-1 $-1 $0 2 1 2 1 1 1 1 1 1 1 1 1 1 1 0 1 1 1 0.75294117647059 0.75294117647059 0.75294117647059 #
lump $-1 -1 -1 $-1 $-1 $9 $0 F #
rgb_color-st-attrib $-1 -1 $-1 $-1 $1 2 1 2 1 1 1 1 1 1 1 1 1 1 1 0 1 1 1 0.75294117647059 0.75294117647059 0.75294117647059 #
lump $-1 -1 -1 $-1 $-1 $10 $1 F #
rgb_color-st-attrib $-1 -1 $-1 $-1 $2 2 1 2 1 1 1 1 1 1 1 1 1 1 1 0 1 1 1 0.90980392156862999 0.44313725490195999 0.031372549019610001 #
lump $-1 -1 -1 $-1 $-1 $11 $2 F #
shell $-1 -1 -1 $-1 $-1 $-1 $12 $-1 $4 F #
shell $-1 -1 -1 $-1 $-1 $-1 $13 $-1 $6 F #
shell $-1 -1 -1 $-1 $-1 $-1 $14 $-1 $8 F #
face $15 -1 -1 $-1 $16 $17 $9 $-1 $18 forward single F F #
face $19 -1 -1 $-1 $20 $21 $10 $-1 $22 forward single F F #
face $23 -1 -1 $-1 $24 $25 $11 $-1 $26 forward single F F #
rgb_color-st-attrib $-1 -1 $-1 $-1 $12 2 1 2 1 1 1 1 1 1 1 1 1 1 1 0 1 1 1 0.75294117647059 0.75294117647059 0.75294117647059 #
face $27 -1 -1 $-1 $28 $29 $9 $-1 $30 forward single F F #
loop $-1 -1 -1 $-1 $-1 $31 $12 F unknown #
cone-surface $-1 -1 -1 $-1 -0.25 -0.10000000000000001 0 0 0 -1 0 0.050000000000000003 0 1 I I 0 1 0.050000000000000003 forward I I I I #
rgb_color-st-attrib $-1 -1 $-1 $-1 $13 2 1 2 1 1 1 1 1 1 1 1 1 1 1 0 1 1 1 0.75294117647059 0.75294117647059 0.75294117647059 #
face $32 -1 -1 $-1 $33 $34 $10 $-1 $35 reversed single F F #
loop $-1 -1 -1 $-1 $-1 $36 $13 F unknown #
cone-surface $-1 -1 -1 $-1 0.29999999999999999 0.10000000000000001 0.050000000000000003 -1 0 0 0 0.050000000000000003 0 1 I I 0 1 0.050000000000000003 forward I I I I #
rgb_color-st-attrib $-1 -1 $-1 $-1 $14 2 1 2 1 1 1 1 1 1 1 1 1 1 1 0 1 1 1 0.90980392156862999 0.44313725490195999 0.031372549019610001 #
face $37 -1 -1 $-1 $38 $39 $11 $-1 $40 reversed single F F #
loop $-1 -1 -1 $-1 $-1 $41 $14 F unknown #
plane-surface $-1 -1 -1 $-1 0 0 0 0 0 -1 -1 0 0 forward_v I I I I #
rgb_color-st-attrib $-1 -1 $-1 $-1 $16 2 1 2 1 1 1 1 1 1 1 1 1 1 1 0 1 1 1 0.75294117647059 0.75294117647059 0.75294117647059 #
face $42 -1 -1 $-1 $43 $44 $9 $-1 $45 reversed single F F #
loop $-1 -1 -1 $-1 $-1 $46 $16 F unknown #
cone-surface $-1 -1 -1 $-1 -0.25 0.10000000000000001 0 0 0 1 0 -0.050000000000000003 0 1 I I 0 1 0.050000000000000003 forward I I I I #
coedge $-1 -1 -1 $-1 $47 $48 $49 $50 forward $17 $-1 #
rgb_color-st-attrib $-1 -1 $-1 $-1 $20 2 1 2 1 1 1 1 1 1 1 1 1 1 1 0 1 1 1 0.75294117647059 0.75294117647059 0.75294117647059 #
face $51 -1 -1 $-1 $52 $53 $10 $-1 $54 reversed single F F #
loop $-1 -1 -1 $-1 $-1 $55 $20 F unknown #
plane-surface $-1 -1 -1 $-1 0.29999999999999999 -0.14999999999999999 0.29999999999999999 0 0 -1 -1 0 0 forward_v I I I I #
coedge $-1 -1 -1 $-1 $56 $57 $58 $59 reversed $21 $-1 #
rgb_color-st-attrib $-1 -1 $-1 $-1 $24 2 1 2 1 1 1 1 1 1 1 1 1 1 1 0 1 1 1 0.90980392156862999 0.44313725490195999 0.031372549019610001 #
face $60 -1 -1 $-1 $61 $62 $11 $-1 $63 reversed single F F #
loop $-1 -1 -1 $-1 $-1 $64 $24 F unknown #
plane-surface $-1 -1 -1 $-1 0.20000000000000001 -0.14999999999999999 0.29999999999999999 -1 0 0 0 -0 1 forward_v I I I I #
coedge $-1 -1 -1 $-1 $65 $66 $67 $68 reversed $25 $-1 #
rgb_color-st-attrib $-1 -1 $-1 $-1 $28 2 1 2 1 1 1 1 1 1 1 1 1 1 1 0 1 1 1 0.75294117647059 0.75294117647059 0.75294117647059 #
face $69 -1 -1 $-1 $70 $71 $9 $-1 $72 forward single F F #
loop $-1 -1 -1 $-1 $-1 $73 $28 F unknown #
plane-surface $-1 -1 -1 $-1 -0.29999999999999999 -0.14999999999999999 0.29999999999999999 0 0 -1 -1 0 0 forward_v I I I I #
coedge $-1 -1 -1 $-1 $74 $75 $76 $77 forward $29 $-1 #
coedge $-1 -1 -1 $-1 $78 $31 $79 $80 reversed $17 $-1 #
coedge $-1 -1 -1 $-1 $31 $78 $81 $82 reversed $17 $-1 #
coedge $-1 -1 -1 $-1 $83 $84 $31 $50 reversed $85 $-1 #
edge $-1 -1 -1 $-1 $86 0 $87 1.5707963267948966 $31 $88 forward @7 unknown F #
rgb_color-st-attrib $-1 -1 $-1 $-1 $33 2 1 2 1 1 1 1 1 1 1 1 1 1 1 0 1 1 1 0.75294117647059 0.75294117647059 0.75294117647059 #
face $89 -1 -1 $-1 $90 $91 $10 $-1 $92 forward single F F #
loop $-1 -1 -1 $-1 $-1 $93 $33 F unknown #
plane-surface $-1 -1 -1 $-1 0.29999999999999999 -0.14999999999999999 0 0 0 1 1 0 0 forward_v I I I I #
coedge $-1 -1 -1 $-1 $94 $95 $96 $97 reversed $34 $-1 #
coedge $-1 -1 -1 $-1 $98 $36 $99 $100 forward $21 $-1 #
coedge $-1 -1 -1 $-1 $36 $98 $101 $102 forward $21 $-1 #
coedge $-1 -1 -1 $-1 $103 $104 $36 $59 forward $105 $-1 #
edge $-1 -1 -1 $-1 $106 1.5707963267948966 $107 3.1415926535897931 $36 $108 forward @7 unknown F #
rgb_color-st-attrib $-1 -1 $-1 $-1 $38 2 1 2 1 1 1 1 1 1 1 1 1 1 1 0 1 1 1 0.90980392156862999 0.44313725490195999 0.031372549019610001 #
face $109 -1 -1 $-1 $110 $111 $11 $-1 $112 reversed single F F #
loop $-1 -1 -1 $-1 $-1 $113 $38 F unknown #
plane-surface $-1 -1 -1 $-1 0 0 0.29999999999999999 0 0 -1 -1 0 0 forward_v I I I I #
coedge $-1 -1 -1 $-1 $114 $115 $116 $117 forward $39 $-1 #
coedge $-1 -1 -1 $-1 $116 $41 $118 $119 forward $25 $-1 #
coedge $-1 -1 -1 $-1 $41 $116 $120 $121 forward $25 $-1 #
coedge $-1 -1 -1 $-1 $122 $123 $41 $68 forward $124 $-1 #
edge $-1 -1 -1 $-1 $125 -0.00025000000000000001 $126 -4.9999999999999989e-005 $41 $127 forward @7 unknown F #
rgb_color-st-attrib $-1 -1 $-1 $-1 $43 2 1 2 1 1 1 1 1 1 1 1 1 1 1 0 1 1 1 0.75294117647059 0.75294117647059 0.75294117647059 #
face $128 -1 -1 $-1 $129 $130 $9 $-1 $131 forward single F F #
loop $-1 -1 -1 $-1 $-1 $132 $43 F unknown #
sphere-surface $-1 -1 -1 $-1 -0.25 0.10000000000000001 0.050000000000000003 0.050000000000000003 1 0 0 0 0 1 forward_v I I I I #
coedge $-1 -1 -1 $-1 $133 $134 $135 $136 forward $44 $-1 #
coedge $-1 -1 -1 $-1 $137 $46 $138 $139 reversed $29 $-1 #
coedge $-1 -1 -1 $-1 $46 $137 $140 $141 reversed $29 $-1 #
coedge $-1 -1 -1 $-1 $142 $143 $46 $77 reversed $144 $-1 #
edge $-1 -1 -1 $-1 $145 1.5707963267948966 $146 3.1415926535897931 $46 $147 forward @7 unknown F #
coedge $-1 -1 -1 $-1 $48 $47 $148 $149 reversed $17 $-1 #
coedge $-1 -1 -1 $-1 $150 $151 $47 $80 forward $152 $-1 #
edge $-1 -1 -1 $-1 $153 -0.00025000000000000001 $87 -4.9999999999999989e-005 $47 $154 forward @7 unknown F #
coedge $-1 -1 -1 $-1 $155 $156 $48 $82 forward $157 $-1 #
edge $-1 -1 -1 $-1 $86 -0.00025000000000000001 $158 -5.0000000000000002e-005 $48 $159 forward @7 unknown F #
coedge $-1 -1 -1 $-1 $84 $49 $160 $161 forward $85 $-1 #
coedge $-1 -1 -1 $-1 $49 $83 $162 $163 reversed $85 $-1 #
loop $-1 -1 -1 $-1 $-1 $49 $164 F unknown #
vertex $-1 -1 -1 $-1 $165 $166 #
vertex $-1 -1 -1 $-1 $163 $167 #
ellipse-curve $-1 -1 -1 $-1 -0.25 -0.10000000000000001 0.25 0 0 -1 0 -0.050000000000000003 0 1 I I #
rgb_color-st-attrib $-1 -1 $-1 $-1 $52 2 1 2 1 1 1 1 1 1 1 1 1 1 1 0 1 1 1 0.75294117647059 0.75294117647059 0.75294117647059 #
face $168 -1 -1 $-1 $169 $170 $10 $-1 $171 forward single F F #
loop $-1 -1 -1 $-1 $-1 $172 $52 F unknown #
cone-surface $-1 -1 -1 $-1 0.25 0 0.050000000000000003 0 1 0 0.050000000000000003 0 0 1 I I 0 1 0.050000000000000003 forward I I I I #
coedge $-1 -1 -1 $-1 $173 $99 $174 $175 reversed $53 $-1 #
coedge $-1 -1 -1 $-1 $176 $55 $177 $178 reversed $34 $-1 #
coedge $-1 -1 -1 $-1 $55 $176 $179 $180 reversed $34 $-1 #
coedge $-1 -1 -1 $-1 $181 $182 $55 $97 forward $183 $-1 #
edge $-1 -1 -1 $-1 $184 4.9999999999999989e-005 $185 0.00025000000000000001 $55 $186 forward @7 unknown F #
coedge $-1 -1 -1 $-1 $57 $56 $187 $188 forward $21 $-1 #
coedge $-1 -1 -1 $-1 $93 $189 $56 $100 reversed $53 $-1 #
edge $-1 -1 -1 $-1 $106 4.9999999999999989e-005 $190 9.9999999999999978e-005 $56 $191 forward @7 unknown F #
coedge $-1 -1 -1 $-1 $192 $193 $57 $102 reversed $194 $-1 #
edge $-1 -1 -1 $-1 $195 -9.9999999999999978e-005 $107 -4.9999999999999989e-005 $57 $196 forward @7 unknown F #
coedge $-1 -1 -1 $-1 $104 $58 $197 $198 reversed $105 $-1 #
coedge $-1 -1 -1 $-1 $58 $103 $199 $200 reversed $105 $-1 #
loop $-1 -1 -1 $-1 $-1 $104 $201 F unknown #
vertex $-1 -1 -1 $-1 $59 $202 #
vertex $-1 -1 -1 $-1 $198 $203 #
ellipse-curve $-1 -1 -1 $-1 0.25 0.10000000000000001 0.050000000000000003 1 0 0 0 -0.050000000000000003 0 1 I I #
rgb_color-st-attrib $-1 -1 $-1 $-1 $61 2 1 2 1 1 1 1 1 1 1 1 1 1 1 0 1 1 1 0.90980392156862999 0.44313725490195999 0.031372549019610001 #
face $204 -1 -1 $-1 $205 $124 $11 $-1 $206 reversed single F F #
loop $-1 -1 -1 $-1 $-1 $207 $61 F unknown #
plane-surface $-1 -1 -1 $-1 -0.20000000000000001 0.14999999999999999 0.29999999999999999 0 -1 0 0 0 -1 forward_v I I I I #
coedge $-1 -1 -1 $-1 $208 $209 $210 $211 forward $62 $-1 #
coedge $-1 -1 -1 $-1 $212 $64 $213 $214 forward $39 $-1 #
coedge $-1 -1 -1 $-1 $64 $215 $216 $217 forward $39 $-1 #
coedge $-1 -1 -1 $-1 $66 $65 $64 $117 reversed $25 $-1 #
edge $-1 -1 -1 $-1 $218 4.9999999999999989e-005 $219 0.00025000000000000001 $116 $220 forward @7 unknown F #
coedge $-1 -1 -1 $-1 $221 $213 $65 $119 reversed $222 $-1 #
edge $-1 -1 -1 $-1 $125 -0.00040000000000000002 $219 0 $65 $223 forward @7 unknown F #
coedge $-1 -1 -1 $-1 $216 $224 $66 $121 reversed $225 $-1 #
edge $-1 -1 -1 $-1 $218 -0.00040000000000000002 $126 0 $66 $226 forward @7 unknown F #
coedge $-1 -1 -1 $-1 $227 $67 $224 $228 forward $124 $-1 #
coedge $-1 -1 -1 $-1 $67 $229 $221 $230 forward $124 $-1 #
loop $-1 -1 -1 $-1 $-1 $229 $110 F unknown #
vertex $-1 -1 -1 $-1 $230 $231 #
vertex $-1 -1 -1 $-1 $121 $232 #
straight-curve $-1 -1 -1 $-1 -0.20000000000000001 -0.14999999999999999 0 0 -1000 0 I I #
rgb_color-st-attrib $-1 -1 $-1 $-1 $70 2 1 2 1 1 1 1 1 1 1 1 1 1 1 0 1 1 1 0.75294117647059 0.75294117647059 0.75294117647059 #
face $233 -1 -1 $-1 $234 $235 $9 $-1 $236 reversed single F F #
loop $-1 -1 -1 $-1 $-1 $162 $70 F unknown #
cone-surface $-1 -1 -1 $-1 -0.25 0 0.25 0 -1 0 0.050000000000000003 0 0 1 I I 0 1 0.050000000000000003 forward I I I I #
coedge $-1 -1 -1 $-1 $237 $238 $239 $240 forward $71 $-1 #
coedge $-1 -1 -1 $-1 $241 $73 $242 $243 forward $44 $-1 #
coedge $-1 -1 -1 $-1 $73 $241 $244 $245 forward $44 $-1 #
coedge $-1 -1 -1 $-1 $246 $247 $73 $136 reversed $248 $-1 #
edge $-1 -1 -1 $-1 $249 4.9999999999999989e-005 $250 0.00025000000000000001 $73 $251 forward @7 unknown F #
coedge $-1 -1 -1 $-1 $75 $74 $237 $252 reversed $29 $-1 #
coedge $-1 -1 -1 $-1 $253 $254 $74 $139 forward $235 $-1 #
edge $-1 -1 -1 $-1 $255 -0.00025000000000000001 $146 -4.9999999999999989e-005 $74 $256 forward @7 unknown F #
coedge $-1 -1 -1 $-1 $151 $150 $75 $141 forward $152 $-1 #
edge $-1 -1 -1 $-1 $145 -0.00025000000000000001 $257 -5.0000000000000002e-005 $75 $258 forward @7 unknown F #
coedge $-1 -1 -1 $-1 $143 $76 $259 $260 forward $144 $-1 #
coedge $-1 -1 -1 $-1 $76 $142 $261 $262 forward $144 $-1 #
loop $-1 -1 -1 $-1 $-1 $142 $234 F unknown #
vertex $-1 -1 -1 $-1 $141 $263 #
vertex $-1 -1 -1 $-1 $262 $264 #
ellipse-curve $-1 -1 -1 $-1 -0.25 0.10000000000000001 0.25 0 0 -1 0 -0.050000000000000003 0 1 I I #
coedge $-1 -1 -1 $-1 $265 $266 $78 $149 forward $267 $-1 #
edge $-1 -1 -1 $-1 $158 -3.1415926535897931 $153 -1.5707963267948966 $78 $268 forward @7 unknown F #
coedge $-1 -1 -1 $-1 $140 $79 $269 $270 forward $152 $-1 #
coedge $-1 -1 -1 $-1 $79 $140 $271 $272 forward $152 $-1 #
loop $-1 -1 -1 $-1 $-1 $150 $273 F unknown #
vertex $-1 -1 -1 $-1 $272 $274 #
straight-curve $-1 -1 -1 $-1 -0.29999999999999999 -0.10000000000000001 0.29999999999999999 0 0 1000 I I #
coedge $-1 -1 -1 $-1 $275 $81 $276 $277 forward $157 $-1 #
coedge $-1 -1 -1 $-1 $81 $275 $278 $165 forward $157 $-1 #
loop $-1 -1 -1 $-1 $-1 $81 $279 F unknown #
vertex $-1 -1 -1 $-1 $280 $281 #
straight-curve $-1 -1 -1 $-1 -0.25 -0.14999999999999999 0 0 0 -1000 I I #
coedge $-1 -1 -1 $-1 $278 $244 $83 $161 reversed $282 $-1 #
edge $-1 -1 -1 $-1 $86 0 $283 1.5707963267948966 $160 $284 forward @7 unknown F #
coedge $-1 -1 -1 $-1 $285 $269 $84 $163 forward $130 $-1 #
edge $-1 -1 -1 $-1 $87 -3.1415926535897931 $283 -1.5707963267948966 $162 $286 forward @7 unknown F #
face $287 -1 -1 $-1 $288 $85 $9 $-1 $289 forward single F F #
edge $-1 -1 -1 $-1 $290 -9.9999999999999978e-005 $86 -4.9999999999999989e-005 $278 $291 forward @7 unknown F #
point $-1 -1 -1 $-1 -0.25 -0.14999999999999999 0.25 #
point $-1 -1 -1 $-1 -0.29999999999999999 -0.10000000000000001 0.25 #
rgb_color-st-attrib $-1 -1 $-1 $-1 $90 2 1 2 1 1 1 1 1 1 1 1 1 1 1 0 1 1 1 0.75294117647059 0.75294117647059 0.75294117647059 #
face $292 -1 -1 $-1 $293 $294 $10 $-1 $295 forward single F F #
loop $-1 -1 -1 $-1 $-1 $296 $90 F unknown #
plane-surface $-1 -1 -1 $-1 0.29999999999999999 0 0 1 0 0 0 0 -1 forward_v I I I I #
coedge $-1 -1 -1 $-1 $174 $297 $298 $299 reversed $91 $-1 #
coedge $-1 -1 -1 $-1 $189 $93 $300 $301 reversed $53 $-1 #
coedge $-1 -1 -1 $-1 $199 $172 $93 $175 forward $91 $-1 #
edge $-1 -1 -1 $-1 $302 -0.00025000000000000001 $106 -4.9999999999999989e-005 $93 $303 forward @7 unknown F #
coedge $-1 -1 -1 $-1 $95 $94 $304 $305 reversed $34 $-1 #
coedge $-1 -1 -1 $-1 $306 $307 $94 $178 forward $308 $-1 #
edge $-1 -1 -1 $-1 $309 4.9999999999999989e-005 $184 9.9999999999999978e-005 $94 $310 forward @7 unknown F #
coedge $-1 -1 -1 $-1 $311 $312 $95 $180 forward $313 $-1 #
edge $-1 -1 -1 $-1 $185 -9.9999999999999978e-005 $314 -4.9999999999999989e-005 $95 $315 forward @7 unknown F #
coedge $-1 -1 -1 $-1 $316 $96 $312 $317 reversed $183 $-1 #
coedge $-1 -1 -1 $-1 $96 $318 $306 $319 reversed $183 $-1 #
loop $-1 -1 -1 $-1 $-1 $320 $321 F unknown #
vertex $-1 -1 -1 $-1 $319 $322 #
vertex $-1 -1 -1 $-1 $180 $323 #
straight-curve $-1 -1 -1 $-1 0.20000000000000001 -0.14999999999999999 0.29999999999999999 0 1000 0 I I #
coedge $-1 -1 -1 $-1 $320 $316 $98 $188 reversed $183 $-1 #
edge $-1 -1 -1 $-1 $190 1.5707963267948966 $195 3.1415926535897931 $98 $324 forward @7 unknown F #
coedge $-1 -1 -1 $-1 $99 $173 $320 $325 reversed $53 $-1 #
vertex $-1 -1 -1 $-1 $188 $326 #
straight-curve $-1 -1 -1 $-1 0.29999999999999999 0.10000000000000001 0 -1000 0 0 I I #
coedge $-1 -1 -1 $-1 $327 $101 $316 $328 reversed $194 $-1 #
coedge $-1 -1 -1 $-1 $101 $327 $329 $330 reversed $194 $-1 #
loop $-1 -1 -1 $-1 $-1 $192 $331 F unknown #
vertex $-1 -1 -1 $-1 $188 $332 #
straight-curve $-1 -1 -1 $-1 0.29999999999999999 0.14999999999999999 0.050000000000000003 1000 0 0 I I #
coedge $-1 -1 -1 $-1 $329 $333 $103 $198 forward $294 $-1 #
edge $-1 -1 -1 $-1 $334 -1.5707963267948966 $107 0 $197 $335 forward @7 unknown F #
coedge $-1 -1 -1 $-1 $297 $174 $104 $200 forward $91 $-1 #
edge $-1 -1 -1 $-1 $106 -1.5707963267948966 $334 0 $199 $336 forward @7 unknown F #
face $337 -1 -1 $-1 $-1 $105 $10 $-1 $338 forward single F F #
point $-1 -1 -1 $-1 0.25 0.10000000000000001 0 #
point $-1 -1 -1 $-1 0.25 0.14999999999999999 0.050000000000000003 #
rgb_color-st-attrib $-1 -1 $-1 $-1 $110 2 1 2 1 1 1 1 1 1 1 1 1 1 1 0 1 1 1 0.90980392156862999 0.44313725490195999 0.031372549019610001 #
face $339 -1 -1 $-1 $340 $341 $11 $-1 $342 reversed single F F #
plane-surface $-1 -1 -1 $-1 -0.20000000000000001 -0.14999999999999999 0.29999999999999999 1 0 0 0 0 -1 forward_v I I I I #
coedge $-1 -1 -1 $-1 $343 $344 $212 $345 forward $111 $-1 #
coedge $-1 -1 -1 $-1 $346 $113 $347 $348 forward $62 $-1 #
coedge $-1 -1 -1 $-1 $113 $346 $349 $350 forward $62 $-1 #
coedge $-1 -1 -1 $-1 $351 $352 $113 $211 reversed $39 $-1 #
edge $-1 -1 -1 $-1 $353 4.9999999999999989e-005 $354 0.00025000000000000001 $210 $355 forward @7 unknown F #
coedge $-1 -1 -1 $-1 $352 $114 $207 $345 reversed $39 $-1 #
coedge $-1 -1 -1 $-1 $118 $356 $114 $214 reversed $222 $-1 #
edge $-1 -1 -1 $-1 $219 1.5707963267948966 $357 3.1415926535897931 $114 $358 forward @7 unknown F #
coedge $-1 -1 -1 $-1 $115 $351 $359 $360 forward $39 $-1 #
coedge $-1 -1 -1 $-1 $361 $120 $115 $217 reversed $225 $-1 #
edge $-1 -1 -1 $-1 $362 0 $218 1.5707963267948966 $115 $363 forward @7 unknown F #
vertex $-1 -1 -1 $-1 $217 $364 #
vertex $-1 -1 -1 $-1 $119 $365 #
straight-curve $-1 -1 -1 $-1 0.20000000000000001 -0.14999999999999999 0 0 1000 0 I I #
coedge $-1 -1 -1 $-1 $356 $118 $123 $230 reversed $222 $-1 #
loop $-1 -1 -1 $-1 $-1 $213 $340 F unknown #
straight-curve $-1 -1 -1 $-1 0.20000000000000001 0.10000000000000001 0 1000 0 0 I I #
coedge $-1 -1 -1 $-1 $120 $361 $122 $228 reversed $225 $-1 #
loop $-1 -1 -1 $-1 $-1 $224 $366 F unknown #
straight-curve $-1 -1 -1 $-1 -0.20000000000000001 -0.10000000000000001 0 -1000 0 0 I I #
coedge $-1 -1 -1 $-1 $367 $122 $368 $369 reversed $124 $-1 #
edge $-1 -1 -1 $-1 $126 1.5707963267948966 $370 3.1415926535897931 $122 $371 forward @7 unknown F #
coedge $-1 -1 -1 $-1 $123 $372 $373 $374 forward $124 $-1 #
edge $-1 -1 -1 $-1 $375 0 $125 1.5707963267948966 $123 $376 forward @7 unknown F #
point $-1 -1 -1 $-1 -0.20000000000000001 0.10000000000000001 0 #
point $-1 -1 -1 $-1 -0.20000000000000001 -0.10000000000000001 0 #
rgb_color-st-attrib $-1 -1 $-1 $-1 $129 2 1 2 1 1 1 1 1 1 1 1 1 1 1 0 1 1 1 0.75294117647059 0.75294117647059 0.75294117647059 #
face $377 -1 -1 $-1 $273 $144 $9 $-1 $378 forward single F F #
loop $-1 -1 -1 $-1 $-1 $379 $129 F unknown #
plane-surface $-1 -1 -1 $-1 -0.29999999999999999 0.14999999999999999 0 0 -1 0 0 0 -1 forward_v I I I I #
coedge $-1 -1 -1 $-1 $238 $132 $137 $252 forward $71 $-1 #
coedge $-1 -1 -1 $-1 $132 $237 $380 $381 reversed $71 $-1 #
coedge $-1 -1 -1 $-1 $382 $271 $132 $240 reversed $383 $-1 #
edge $-1 -1 -1 $-1 $384 -1.5707963267948966 $257 0 $132 $385 forward @7 unknown F #
coedge $-1 -1 -1 $-1 $134 $133 $285 $386 forward $44 $-1 #
coedge $-1 -1 -1 $-1 $387 $261 $133 $243 reversed $388 $-1 #
edge $-1 -1 -1 $-1 $250 -9.9999999999999978e-005 $389 -4.9999999999999989e-005 $133 $390 forward @7 unknown F #
coedge $-1 -1 -1 $-1 $160 $391 $134 $245 reversed $282 $-1 #
edge $-1 -1 -1 $-1 $283 4.9999999999999989e-005 $249 9.9999999999999978e-005 $134 $392 forward @7 unknown F #
coedge $-1 -1 -1 $-1 $393 $135 $391 $394 forward $248 $-1 #
coedge $-1 -1 -1 $-1 $135 $395 $387 $396 forward $248 $-1 #
loop $-1 -1 -1 $-1 $-1 $397 $398 F unknown #
vertex $-1 -1 -1 $-1 $394 $399 #
vertex $-1 -1 -1 $-1 $136 $400 #
straight-curve $-1 -1 -1 $-1 -0.20000000000000001 -0.14999999999999999 0.29999999999999999 0 1000 0 I I #
edge $-1 -1 -1 $-1 $257 -1.5707963267948966 $255 0 $137 $401 forward @7 unknown F #
coedge $-1 -1 -1 $-1 $379 $138 $402 $403 forward $235 $-1 #
coedge $-1 -1 -1 $-1 $138 $379 $404 $405 forward $235 $-1 #
vertex $-1 -1 -1 $-1 $405 $406 #
straight-curve $-1 -1 -1 $-1 -0.25 0.14999999999999999 0.29999999999999999 0 0 1000 I I #
vertex $-1 -1 -1 $-1 $240 $407 #
straight-curve $-1 -1 -1 $-1 -0.29999999999999999 0.10000000000000001 0 0 0 -1000 I I #
coedge $-1 -1 -1 $-1 $269 $285 $142 $260 reversed $130 $-1 #
edge $-1 -1 -1 $-1 $145 0 $389 1.5707963267948966 $259 $408 forward @7 unknown F #
coedge $-1 -1 -1 $-1 $242 $402 $143 $262 reversed $388 $-1 #
edge $-1 -1 -1 $-1 $389 1.5707963267948966 $146 3.1415926535897931 $143 $409 forward @7 unknown F #
point $-1 -1 -1 $-1 -0.29999999999999999 0.10000000000000001 0.25 #
point $-1 -1 -1 $-1 -0.25 0.14999999999999999 0.25 #
coedge $-1 -1 -1 $-1 $266 $148 $410 $411 reversed $267 $-1 #
coedge $-1 -1 -1 $-1 $148 $265 $412 $280 forward $267 $-1 #
loop $-1 -1 -1 $-1 $-1 $266 $413 F unknown #
ellipse-curve $-1 -1 -1 $-1 -0.25 -0.10000000000000001 0.050000000000000003 0 0 -1 0 0.050000000000000003 0 1 I I #
coedge $-1 -1 -1 $-1 $162 $259 $150 $270 reversed $130 $-1 #
edge $-1 -1 -1 $-1 $87 -0.00025000000000000001 $145 -4.9999999999999989e-005 $269 $414 forward @7 unknown F #
coedge $-1 -1 -1 $-1 $239 $410 $151 $272 reversed $383 $-1 #
edge $-1 -1 -1 $-1 $257 -0.00025000000000000001 $153 -4.9999999999999989e-005 $151 $415 forward @7 unknown F #
face $416 -1 -1 $-1 $413 $152 $9 $-1 $417 forward single F F #
point $-1 -1 -1 $-1 -0.29999999999999999 -0.10000000000000001 0.050000000000000003 #
coedge $-1 -1 -1 $-1 $156 $155 $393 $418 forward $157 $-1 #
coedge $-1 -1 -1 $-1 $412 $419 $155 $277 reversed $420 $-1 #
edge $-1 -1 -1 $-1 $158 4.9999999999999989e-005 $421 9.9999999999999978e-005 $155 $422 forward @7 unknown F #
coedge $-1 -1 -1 $-1 $391 $160 $156 $165 reversed $282 $-1 #
face $423 -1 -1 $-1 $398 $157 $9 $-1 $424 reversed single F F #
edge $-1 -1 -1 $-1 $425 -1.5707963267948966 $158 0 $266 $426 forward @7 unknown F #
point $-1 -1 -1 $-1 -0.25 -0.14999999999999999 0.050000000000000003 #
loop $-1 -1 -1 $-1 $-1 $160 $427 F unknown #
vertex $-1 -1 -1 $-1 $163 $428 #
ellipse-curve $-1 -1 -1 $-1 -0.25 -0.10000000000000001 0.25 -1 0 0 0 -0.050000000000000003 0 1 I I #
coedge $-1 -1 -1 $-1 $259 $162 $241 $386 reversed $130 $-1 #
ellipse-curve $-1 -1 -1 $-1 -0.25 -0.10000000000000001 0.25 0 1 0 0.050000000000000003 -0 0 1 I I #
rgb_color-st-attrib $-1 -1 $-1 $-1 $164 2 1 2 1 1 1 1 1 1 1 1 1 1 1 0 1 1 1 0.75294117647059 0.75294117647059 0.75294117647059 #
face $429 -1 -1 $-1 $430 $383 $9 $-1 $431 forward single F F #
sphere-surface $-1 -1 -1 $-1 -0.25 -0.10000000000000001 0.25 0.050000000000000003 1 0 0 0 0 1 forward_v I I I I #
vertex $-1 -1 -1 $-1 $418 $432 #
straight-curve $-1 -1 -1 $-1 -0.29999999999999999 -0.14999999999999999 0.25 -1000 0 0 I I #
rgb_color-st-attrib $-1 -1 $-1 $-1 $169 2 1 2 1 1 1 1 1 1 1 1 1 1 1 0 1 1 1 0.75294117647059 0.75294117647059 0.75294117647059 #
face $433 -1 -1 $-1 $434 $435 $10 $-1 $436 forward single F F #
loop $-1 -1 -1 $-1 $-1 $437 $169 F unknown #
cone-surface $-1 -1 -1 $-1 0.25 0.10000000000000001 0 0 0 1 0 -0.050000000000000003 0 1 I I 0 1 0.050000000000000003 forward I I I I #
coedge $-1 -1 -1 $-1 $438 $439 $440 $441 reversed $170 $-1 #
coedge $-1 -1 -1 $-1 $172 $199 $442 $443 forward $91 $-1 #
coedge $-1 -1 -1 $-1 $444 $445 $172 $299 forward $446 $-1 #
edge $-1 -1 -1 $-1 $302 1.5707963267948966 $447 3.1415926535897931 $172 $448 forward @7 unknown F #
coedge $-1 -1 -1 $-1 $449 $450 $173 $301 forward $435 $-1 #
edge $-1 -1 -1 $-1 $451 -9.9999999999999978e-005 $302 -4.9999999999999989e-005 $173 $452 forward @7 unknown F #
vertex $-1 -1 -1 $-1 $299 $453 #
straight-curve $-1 -1 -1 $-1 0.25 0.14999999999999999 0 0 1000 0 I I #
coedge $-1 -1 -1 $-1 $454 $455 $176 $305 forward $456 $-1 #
edge $-1 -1 -1 $-1 $314 -0.00025000000000000001 $309 -4.9999999999999989e-005 $176 $457 forward @7 unknown F #
coedge $-1 -1 -1 $-1 $458 $177 $182 $319 forward $308 $-1 #
coedge $-1 -1 -1 $-1 $177 $458 $459 $460 forward $308 $-1 #
loop $-1 -1 -1 $-1 $-1 $307 $461 F unknown #
vertex $-1 -1 -1 $-1 $460 $462 #
straight-curve $-1 -1 -1 $-1 0.29999999999999999 -0.10000000000000001 0.29999999999999999 -1000 0 0 I I #
coedge $-1 -1 -1 $-1 $463 $179 $464 $465 forward $313 $-1 #
coedge $-1 -1 -1 $-1 $179 $463 $181 $317 forward $313 $-1 #
loop $-1 -1 -1 $-1 $-1 $312 $466 F unknown #
vertex $-1 -1 -1 $-1 $465 $467 #
straight-curve $-1 -1 -1 $-1 0.29999999999999999 0.10000000000000001 0.29999999999999999 1000 0 0 I I #
coedge $-1 -1 -1 $-1 $187 $181 $192 $328 forward $183 $-1 #
edge $-1 -1 -1 $-1 $468 -3.1415926535897931 $185 -1.5707963267948966 $181 $469 forward @7 unknown F #
coedge $-1 -1 -1 $-1 $182 $470 $471 $472 forward $183 $-1 #
edge $-1 -1 -1 $-1 $184 -1.5707963267948966 $473 0 $182 $474 forward @7 unknown F #
coedge $-1 -1 -1 $-1 $470 $187 $189 $325 forward $183 $-1 #
face $475 -1 -1 $-1 $461 $183 $10 $-1 $476 reversed single F F #
point $-1 -1 -1 $-1 0.20000000000000001 -0.10000000000000001 0.29999999999999999 #
point $-1 -1 -1 $-1 0.20000000000000001 0.10000000000000001 0.29999999999999999 #
ellipse-curve $-1 -1 -1 $-1 0.20000000000000001 0.10000000000000001 0.050000000000000003 1 0 0 0 -0.050000000000000003 0 1 I I #
edge $-1 -1 -1 $-1 $190 -0.00025000000000000001 $451 -4.9999999999999989e-005 $189 $477 forward @7 unknown F #
point $-1 -1 -1 $-1 0.20000000000000001 0.10000000000000001 0 #
coedge $-1 -1 -1 $-1 $193 $192 $463 $478 reversed $194 $-1 #
edge $-1 -1 -1 $-1 $468 -0.00025000000000000001 $195 -5.0000000000000002e-005 $192 $479 forward @7 unknown F #
coedge $-1 -1 -1 $-1 $437 $197 $193 $330 forward $294 $-1 #
edge $-1 -1 -1 $-1 $107 -0.00025000000000000001 $480 -4.9999999999999989e-005 $329 $481 forward @7 unknown F #
face $482 -1 -1 $-1 $483 $194 $10 $-1 $484 reversed single F F #
point $-1 -1 -1 $-1 0.20000000000000001 0.14999999999999999 0.050000000000000003 #
coedge $-1 -1 -1 $-1 $197 $437 $439 $485 forward $294 $-1 #
vertex $-1 -1 -1 $-1 $198 $486 #
ellipse-curve $-1 -1 -1 $-1 0.25 0.10000000000000001 0.050000000000000003 0 0 1 0 0.050000000000000003 -0 1 I I #
ellipse-curve $-1 -1 -1 $-1 0.25 0.10000000000000001 0.050000000000000003 0 -1 0 0.050000000000000003 0 0 1 I I #
rgb_color-st-attrib $-1 -1 $-1 $-1 $201 2 1 2 1 1 1 1 1 1 1 1 1 1 1 0 1 1 1 0.75294117647059 0.75294117647059 0.75294117647059 #
sphere-surface $-1 -1 -1 $-1 0.25 0.10000000000000001 0.050000000000000003 0.050000000000000003 1 0 0 0 0 1 forward_v I I I I #
rgb_color-st-attrib $-1 -1 $-1 $-1 $205 2 1 2 1 1 1 1 1 1 1 1 1 1 1 0 1 1 1 0.90980392156862999 0.44313725490195999 0.031372549019610001 #
face $487 -1 -1 $-1 $488 $222 $11 $-1 $489 forward single F F #
loop $-1 -1 -1 $-1 $-1 $368 $205 F unknown #
plane-surface $-1 -1 -1 $-1 -0.20000000000000001 -0.14999999999999999 0.29999999999999999 0 1 0 0 0 1 forward_v I I I I #
coedge $-1 -1 -1 $-1 $373 $207 $356 $490 forward $111 $-1 #
coedge $-1 -1 -1 $-1 $207 $373 $491 $492 forward $111 $-1 #
edge $-1 -1 -1 $-1 $493 4.9999999999999989e-005 $357 0.00025000000000000001 $212 $494 forward @7 unknown F #
coedge $-1 -1 -1 $-1 $209 $208 $495 $496 forward $62 $-1 #
coedge $-1 -1 -1 $-1 $497 $498 $208 $348 reversed $499 $-1 #
edge $-1 -1 -1 $-1 $354 -0.00020000000000000001 $500 0.00020000000000000001 $208 $501 forward @7 unknown F #
coedge $-1 -1 -1 $-1 $502 $503 $209 $350 reversed $504 $-1 #
edge $-1 -1 -1 $-1 $505 -0.00020000000000000001 $353 0.00020000000000000001 $209 $506 forward @7 unknown F #
coedge $-1 -1 -1 $-1 $215 $210 $503 $507 forward $39 $-1 #
coedge $-1 -1 -1 $-1 $210 $212 $497 $508 forward $39 $-1 #
vertex $-1 -1 -1 $-1 $350 $509 #
vertex $-1 -1 -1 $-1 $348 $510 #
straight-curve $-1 -1 -1 $-1 0.20000000000000001 -0.14999999999999999 0.29999999999999999 0 1000 0 I I #
coedge $-1 -1 -1 $-1 $213 $221 $343 $490 reversed $222 $-1 #
vertex $-1 -1 -1 $-1 $490 $511 #
ellipse-curve $-1 -1 -1 $-1 0.20000000000000001 0.10000000000000001 0.050000000000000003 1 0 0 0 -0.050000000000000003 0 1 I I #
coedge $-1 -1 -1 $-1 $512 $513 $215 $360 reversed $341 $-1 #
edge $-1 -1 -1 $-1 $514 4.9999999999999989e-005 $362 0.00025000000000000001 $215 $515 forward @7 unknown F #
coedge $-1 -1 -1 $-1 $224 $216 $513 $516 reversed $225 $-1 #
vertex $-1 -1 -1 $-1 $516 $517 #
ellipse-curve $-1 -1 -1 $-1 0.20000000000000001 -0.10000000000000001 0.050000000000000003 1 0 0 0 -0.050000000000000003 0 1 I I #
point $-1 -1 -1 $-1 0.20000000000000001 -0.10000000000000001 0 #
point $-1 -1 -1 $-1 0.20000000000000001 0.10000000000000001 0 #
face $518 -1 -1 $-1 $519 $225 $11 $-1 $520 forward single F F #
coedge $-1 -1 -1 $-1 $495 $227 $502 $521 forward $124 $-1 #
coedge $-1 -1 -1 $-1 $513 $512 $227 $369 forward $341 $-1 #
edge $-1 -1 -1 $-1 $522 4.9999999999999989e-005 $370 0.00025000000000000001 $227 $523 forward @7 unknown F #
vertex $-1 -1 -1 $-1 $516 $524 #
ellipse-curve $-1 -1 -1 $-1 -0.20000000000000001 -0.10000000000000001 0.050000000000000003 -1 0 0 0 0.050000000000000003 0 1 I I #
coedge $-1 -1 -1 $-1 $229 $495 $498 $525 forward $124 $-1 #
coedge $-1 -1 -1 $-1 $344 $343 $229 $374 reversed $111 $-1 #
edge $-1 -1 -1 $-1 $526 4.9999999999999989e-005 $375 0.00025000000000000001 $373 $527 forward @7 unknown F #
vertex $-1 -1 -1 $-1 $490 $528 #
ellipse-curve $-1 -1 -1 $-1 -0.20000000000000001 0.10000000000000001 0.050000000000000003 -1 0 0 0 0.050000000000000003 0 1 I I #
rgb_color-st-attrib $-1 -1 $-1 $-1 $234 2 1 2 1 1 1 1 1 1 1 1 1 1 1 0 1 1 1 0.75294117647059 0.75294117647059 0.75294117647059 #
sphere-surface $-1 -1 -1 $-1 -0.25 0.10000000000000001 0.25 0.050000000000000003 1 0 0 0 0 1 forward_v I I I I #
coedge $-1 -1 -1 $-1 $254 $253 $395 $529 forward $235 $-1 #
coedge $-1 -1 -1 $-1 $404 $530 $238 $381 forward $531 $-1 #
edge $-1 -1 -1 $-1 $384 1.5707963267948966 $255 3.1415926535897931 $238 $532 forward @7 unknown F #
coedge $-1 -1 -1 $-1 $410 $239 $533 $534 reversed $383 $-1 #
loop $-1 -1 -1 $-1 $-1 $410 $288 F unknown #
vertex $-1 -1 -1 $-1 $535 $536 #
ellipse-curve $-1 -1 -1 $-1 -0.25 0.10000000000000001 0.050000000000000003 0 1 0 -0.050000000000000003 0 0 1 I I #
edge $-1 -1 -1 $-1 $389 -0.00025000000000000001 $283 -4.9999999999999989e-005 $241 $537 forward @7 unknown F #
coedge $-1 -1 -1 $-1 $402 $242 $247 $396 reversed $388 $-1 #
loop $-1 -1 -1 $-1 $-1 $387 $430 F unknown #
vertex $-1 -1 -1 $-1 $243 $538 #
straight-curve $-1 -1 -1 $-1 -0.29999999999999999 0.10000000000000001 0.29999999999999999 -1000 0 0 I I #
coedge $-1 -1 -1 $-1 $244 $278 $246 $394 reversed $282 $-1 #
straight-curve $-1 -1 -1 $-1 -0.29999999999999999 -0.10000000000000001 0.29999999999999999 1000 0 0 I I #
coedge $-1 -1 -1 $-1 $539 $246 $275 $418 reversed $248 $-1 #
edge $-1 -1 -1 $-1 $249 -1.5707963267948966 $290 0 $391 $540 forward @7 unknown F #
coedge $-1 -1 -1 $-1 $247 $541 $379 $529 reversed $248 $-1 #
edge $-1 -1 -1 $-1 $542 -3.1415926535897931 $250 -1.5707963267948966 $387 $543 forward @7 unknown F #
coedge $-1 -1 -1 $-1 $541 $539 $544 $545 reversed $248 $-1 #
face $546 -1 -1 $-1 $547 $248 $9 $-1 $548 reversed single F F #
point $-1 -1 -1 $-1 -0.20000000000000001 -0.10000000000000001 0.29999999999999999 #
point $-1 -1 -1 $-1 -0.20000000000000001 0.10000000000000001 0.29999999999999999 #
ellipse-curve $-1 -1 -1 $-1 -0.25 0.10000000000000001 0.050000000000000003 0 0 -1 0 0.050000000000000003 0 1 I I #
coedge $-1 -1 -1 $-1 $261 $387 $253 $403 reversed $388 $-1 #
edge $-1 -1 -1 $-1 $146 4.9999999999999989e-005 $542 9.9999999999999978e-005 $253 $549 forward @7 unknown F #
coedge $-1 -1 -1 $-1 $550 $380 $254 $405 reversed $531 $-1 #
edge $-1 -1 -1 $-1 $551 -9.9999999999999978e-005 $255 -4.9999999999999989e-005 $254 $552 forward @7 unknown F #
point $-1 -1 -1 $-1 -0.25 0.14999999999999999 0.050000000000000003 #
point $-1 -1 -1 $-1 -0.29999999999999999 0.10000000000000001 0.050000000000000003 #
ellipse-curve $-1 -1 -1 $-1 -0.25 0.10000000000000001 0.25 0 1 0 -0.050000000000000003 0 0 1 I I #
ellipse-curve $-1 -1 -1 $-1 -0.25 0.10000000000000001 0.25 -1 0 0 0 -0.050000000000000003 0 1 I I #
coedge $-1 -1 -1 $-1 $271 $382 $265 $411 forward $383 $-1 #
edge $-1 -1 -1 $-1 $425 1.5707963267948966 $153 3.1415926535897931 $265 $553 forward @7 unknown F #
coedge $-1 -1 -1 $-1 $554 $276 $266 $280 reversed $420 $-1 #
face $555 -1 -1 $-1 $427 $267 $9 $-1 $556 forward single F F #
straight-curve $-1 -1 -1 $-1 -0.29999999999999999 0.14999999999999999 0.25 0 1000 0 I I #
straight-curve $-1 -1 -1 $-1 -0.29999999999999999 -0.14999999999999999 0.050000000000000003 0 -1000 0 I I #
rgb_color-st-attrib $-1 -1 $-1 $-1 $273 2 1 2 1 1 1 1 1 1 1 1 1 1 1 0 1 1 1 0.75294117647059 0.75294117647059 0.75294117647059 #
plane-surface $-1 -1 -1 $-1 -0.29999999999999999 0 0 -1 0 0 0 -0 1 forward_v I I I I #
edge $-1 -1 -1 $-1 $421 5.0000000000000002e-005 $290 0.00025000000000000001 $275 $557 forward @7 unknown F #
coedge $-1 -1 -1 $-1 $276 $554 $539 $558 reversed $420 $-1 #
loop $-1 -1 -1 $-1 $-1 $419 $547 F unknown #
vertex $-1 -1 -1 $-1 $277 $559 #
straight-curve $-1 -1 -1 $-1 -0.29999999999999999 -0.14999999999999999 0.050000000000000003 1000 0 0 I I #
rgb_color-st-attrib $-1 -1 $-1 $-1 $279 2 1 2 1 1 1 1 1 1 1 1 1 1 1 0 1 1 1 0.75294117647059 0.75294117647059 0.75294117647059 #
plane-surface $-1 -1 -1 $-1 -0.29999999999999999 -0.14999999999999999 0 0 1 0 0 0 1 forward_v I I I I #
vertex $-1 -1 -1 $-1 $560 $561 #
ellipse-curve $-1 -1 -1 $-1 -0.25 -0.10000000000000001 0.050000000000000003 -1 0 0 0 -0.050000000000000003 0 1 I I #
face $562 -1 -1 $-1 $164 $282 $9 $-1 $563 forward single F F #
point $-1 -1 -1 $-1 -0.25 -0.10000000000000001 0.29999999999999999 #
rgb_color-st-attrib $-1 -1 $-1 $-1 $288 2 1 2 1 1 1 1 1 1 1 1 1 1 1 0 1 1 1 0.75294117647059 0.75294117647059 0.75294117647059 #
face $564 -1 -1 $-1 $565 $388 $9 $-1 $566 forward single F F #
cone-surface $-1 -1 -1 $-1 -0.25 0 0.050000000000000003 0 1 0 -0.050000000000000003 0 0 1 I I 0 1 0.050000000000000003 forward I I I I #
point $-1 -1 -1 $-1 -0.20000000000000001 -0.14999999999999999 0.25 #
rgb_color-st-attrib $-1 -1 $-1 $-1 $293 2 1 2 1 1 1 1 1 1 1 1 1 1 1 0 1 1 1 0.75294117647059 0.75294117647059 0.75294117647059 #
face $567 -1 -1 $-1 $568 $456 $10 $-1 $569 forward single F F #
loop $-1 -1 -1 $-1 $-1 $450 $293 F unknown #
cone-surface $-1 -1 -1 $-1 0.29999999999999999 -0.10000000000000001 0.050000000000000003 -1 0 0 0 0.050000000000000003 0 1 I I 0 1 0.050000000000000003 forward I I I I #
coedge $-1 -1 -1 $-1 $333 $329 $570 $571 reversed $294 $-1 #
coedge $-1 -1 -1 $-1 $442 $296 $572 $573 reversed $170 $-1 #
coedge $-1 -1 -1 $-1 $296 $442 $333 $485 reversed $170 $-1 #
coedge $-1 -1 -1 $-1 $455 $454 $296 $441 forward $456 $-1 #
edge $-1 -1 -1 $-1 $574 -0.00025000000000000001 $575 -4.9999999999999989e-005 $296 $576 forward @7 unknown F #
coedge $-1 -1 -1 $-1 $439 $438 $297 $443 reversed $170 $-1 #
edge $-1 -1 -1 $-1 $334 -0.00025000000000000001 $447 -4.9999999999999989e-005 $297 $577 forward @7 unknown F #
coedge $-1 -1 -1 $-1 $445 $298 $578 $579 reversed $446 $-1 #
coedge $-1 -1 -1 $-1 $298 $444 $449 $580 reversed $446 $-1 #
loop $-1 -1 -1 $-1 $-1 $445 $581 F unknown #
vertex $-1 -1 -1 $-1 $579 $582 #
ellipse-curve $-1 -1 -1 $-1 0.25 -0.10000000000000001 0.050000000000000003 0 -1 0 -0.050000000000000003 0 0 1 I I #
coedge $-1 -1 -1 $-1 $583 $300 $445 $580 forward $435 $-1 #
coedge $-1 -1 -1 $-1 $300 $583 $470 $584 forward $435 $-1 #
vertex $-1 -1 -1 $-1 $584 $585 #
straight-curve $-1 -1 -1 $-1 0.29999999999999999 -0.10000000000000001 0 1000 0 0 I I #
point $-1 -1 -1 $-1 0.25 -0.10000000000000001 0 #
coedge $-1 -1 -1 $-1 $440 $304 $586 $587 reversed $456 $-1 #
coedge $-1 -1 -1 $-1 $304 $440 $588 $589 forward $456 $-1 #
loop $-1 -1 -1 $-1 $-1 $454 $434 F unknown #
straight-curve $-1 -1 -1 $-1 0.25 -0.14999999999999999 0.29999999999999999 0 -1000 0 I I #
coedge $-1 -1 -1 $-1 $307 $306 $590 $591 forward $308 $-1 #
coedge $-1 -1 -1 $-1 $592 $586 $307 $460 reversed $593 $-1 #
edge $-1 -1 -1 $-1 $594 0 $309 1.5707963267948966 $307 $595 forward @7 unknown F #
face $596 -1 -1 $-1 $597 $308 $10 $-1 $598 forward single F F #
point $-1 -1 -1 $-1 0.25 -0.10000000000000001 0.29999999999999999 #
coedge $-1 -1 -1 $-1 $312 $311 $327 $478 forward $313 $-1 #
coedge $-1 -1 -1 $-1 $588 $570 $311 $465 reversed $599 $-1 #
edge $-1 -1 -1 $-1 $314 1.5707963267948966 $480 3.1415926535897931 $464 $600 forward @7 unknown F #
face $601 -1 -1 $-1 $602 $313 $10 $-1 $603 forward single F F #
point $-1 -1 -1 $-1 0.25 0.10000000000000001 0.29999999999999999 #
vertex $-1 -1 -1 $-1 $478 $604 #
ellipse-curve $-1 -1 -1 $-1 0.20000000000000001 0.10000000000000001 0.25 1 0 0 0 -0.050000000000000003 0 1 I I #
coedge $-1 -1 -1 $-1 $318 $320 $450 $584 reversed $183 $-1 #
coedge $-1 -1 -1 $-1 $605 $590 $318 $472 reversed $606 $-1 #
edge $-1 -1 -1 $-1 $607 5.0000000000000002e-005 $473 0.00025000000000000001 $471 $608 forward @7 unknown F #
vertex $-1 -1 -1 $-1 $591 $609 #
ellipse-curve $-1 -1 -1 $-1 0.20000000000000001 -0.10000000000000001 0.25 1 0 0 0 -0.050000000000000003 0 1 I I #
rgb_color-st-attrib $-1 -1 $-1 $-1 $321 2 1 2 1 1 1 1 1 1 1 1 1 1 1 0 1 1 1 0.75294117647059 0.75294117647059 0.75294117647059 #
plane-surface $-1 -1 -1 $-1 0.20000000000000001 0 0 1 0 0 0 0 -1 forward_v I I I I #
straight-curve $-1 -1 -1 $-1 0.20000000000000001 -0.14999999999999999 0 0 -1000 0 I I #
edge $-1 -1 -1 $-1 $480 4.9999999999999989e-005 $468 9.9999999999999978e-005 $327 $610 forward @7 unknown F #
straight-curve $-1 -1 -1 $-1 0.20000000000000001 0.14999999999999999 0 0 0 -1000 I I #
vertex $-1 -1 -1 $-1 $478 $611 #
straight-curve $-1 -1 -1 $-1 0.25 0.14999999999999999 0.29999999999999999 0 0 1000 I I #
rgb_color-st-attrib $-1 -1 $-1 $-1 $331 2 1 2 1 1 1 1 1 1 1 1 1 1 1 0 1 1 1 0.75294117647059 0.75294117647059 0.75294117647059 #
face $612 -1 -1 $-1 $321 $606 $10 $-1 $613 reversed single F F #
plane-surface $-1 -1 -1 $-1 0.29999999999999999 0.14999999999999999 0 0 -1 0 0 0 -1 forward_v I I I I #
edge $-1 -1 -1 $-1 $575 -0.00025000000000000001 $334 -5.0000000000000002e-005 $439 $614 forward @7 unknown F #
point $-1 -1 -1 $-1 0.29999999999999999 0.10000000000000001 0.050000000000000003 #
rgb_color-st-attrib $-1 -1 $-1 $-1 $340 2 1 2 1 1 1 1 1 1 1 1 1 1 1 0 1 1 1 0.90980392156862999 0.44313725490195999 0.031372549019610001 #
face $615 -1 -1 $-1 $366 $499 $11 $-1 $616 forward single F F #
cone-surface $-1 -1 -1 $-1 -0.20000000000000001 0.10000000000000001 0.050000000000000003 1 0 0 -0 0.050000000000000003 0 1 I I 0 1 0.050000000000000003 forward I I I I #
edge $-1 -1 -1 $-1 $357 -0.00040000000000000002 $375 0 $343 $617 forward @7 unknown F #
coedge $-1 -1 -1 $-1 $498 $497 $344 $492 reversed $499 $-1 #
edge $-1 -1 -1 $-1 $526 0 $493 0.00040000000000000002 $344 $618 forward @7 unknown F #
vertex $-1 -1 -1 $-1 $492 $619 #
straight-curve $-1 -1 -1 $-1 0.20000000000000001 0.14999999999999999 0.29999999999999999 0 0 -1000 I I #
coedge $-1 -1 -1 $-1 $372 $367 $346 $496 reversed $124 $-1 #
edge $-1 -1 -1 $-1 $500 -0.00025000000000000001 $505 -4.9999999999999989e-005 $346 $620 forward @7 unknown F #
coedge $-1 -1 -1 $-1 $491 $347 $352 $508 reversed $499 $-1 #
coedge $-1 -1 -1 $-1 $347 $491 $372 $525 reversed $499 $-1 #
loop $-1 -1 -1 $-1 $-1 $497 $488 F unknown #
vertex $-1 -1 -1 $-1 $348 $621 #
straight-curve $-1 -1 -1 $-1 0 0.10000000000000001 0.29999999999999999 -1000 0 0 I I #
coedge $-1 -1 -1 $-1 $622 $349 $367 $521 reversed $504 $-1 #
coedge $-1 -1 -1 $-1 $349 $622 $351 $507 reversed $504 $-1 #
loop $-1 -1 -1 $-1 $-1 $502 $519 F unknown #
vertex $-1 -1 -1 $-1 $350 $623 #
straight-curve $-1 -1 -1 $-1 0 -0.10000000000000001 0.29999999999999999 1000 0 0 I I #
edge $-1 -1 -1 $-1 $353 -1.5707963267948966 $514 0 $351 $624 forward @7 unknown F #
edge $-1 -1 -1 $-1 $493 -3.1415926535897931 $354 -1.5707963267948966 $352 $625 forward @7 unknown F #
point $-1 -1 -1 $-1 0.20000000000000001 -0.10000000000000001 0.29999999999999999 #
point $-1 -1 -1 $-1 0.20000000000000001 0.10000000000000001 0.29999999999999999 #
point $-1 -1 -1 $-1 0.20000000000000001 0.14999999999999999 0.050000000000000003 #
coedge $-1 -1 -1 $-1 $368 $359 $622 $626 forward $341 $-1 #
coedge $-1 -1 -1 $-1 $359 $368 $361 $516 forward $341 $-1 #
vertex $-1 -1 -1 $-1 $507 $627 #
straight-curve $-1 -1 -1 $-1 0.20000000000000001 -0.14999999999999999 0.29999999999999999 0 0 -1000 I I #
edge $-1 -1 -1 $-1 $370 -0.00040000000000000002 $362 0 $513 $628 forward @7 unknown F #
point $-1 -1 -1 $-1 0.20000000000000001 -0.14999999999999999 0.050000000000000003 #
rgb_color-st-attrib $-1 -1 $-1 $-1 $366 2 1 2 1 1 1 1 1 1 1 1 1 1 1 0 1 1 1 0.90980392156862999 0.44313725490195999 0.031372549019610001 #
face $629 -1 -1 $-1 $-1 $504 $11 $-1 $630 forward single F F #
cone-surface $-1 -1 -1 $-1 -0.20000000000000001 -0.10000000000000001 0.050000000000000003 -1 0 0 0 -0.050000000000000003 0 1 I I 0 1 0.050000000000000003 forward I I I I #
edge $-1 -1 -1 $-1 $522 -3.1415926535897931 $505 -1.5707963267948966 $367 $631 forward @7 unknown F #
vertex $-1 -1 -1 $-1 $626 $632 #
straight-curve $-1 -1 -1 $-1 -0.20000000000000001 -0.14999999999999999 0.29999999999999999 0 0 -1000 I I #
point $-1 -1 -1 $-1 -0.20000000000000001 -0.14999999999999999 0.050000000000000003 #
edge $-1 -1 -1 $-1 $500 -1.5707963267948966 $526 0 $372 $633 forward @7 unknown F #
vertex $-1 -1 -1 $-1 $525 $634 #
straight-curve $-1 -1 -1 $-1 -0.20000000000000001 0.14999999999999999 0.29999999999999999 0 0 -1000 I I #
point $-1 -1 -1 $-1 -0.20000000000000001 0.14999999999999999 0.050000000000000003 #
edge $-1 -1 -1 $-1 $542 -0.00025000000000000001 $551 -5.0000000000000002e-005 $379 $635 forward @7 unknown F #
coedge $-1 -1 -1 $-1 $380 $550 $636 $535 reversed $531 $-1 #
loop $-1 -1 -1 $-1 $-1 $380 $637 F unknown #
ellipse-curve $-1 -1 -1 $-1 -0.25 0.10000000000000001 0.050000000000000003 1 0 0 0 -0.050000000000000003 0 1 I I #
coedge $-1 -1 -1 $-1 $636 $638 $382 $534 forward $639 $-1 #
edge $-1 -1 -1 $-1 $425 -0.00025000000000000001 $384 -4.9999999999999989e-005 $382 $640 forward @7 unknown F #
edge $-1 -1 -1 $-1 $384 4.9999999999999989e-005 $641 9.9999999999999978e-005 $636 $642 forward @7 unknown F #
point $-1 -1 -1 $-1 -0.25 0.10000000000000001 0 #
straight-curve $-1 -1 -1 $-1 -0.25 -0.14999999999999999 0.29999999999999999 0 -1000 0 I I #
point $-1 -1 -1 $-1 -0.25 0.10000000000000001 0.29999999999999999 #
coedge $-1 -1 -1 $-1 $397 $393 $419 $558 forward $248 $-1 #
ellipse-curve $-1 -1 -1 $-1 -0.20000000000000001 -0.10000000000000001 0.25 1 0 0 0 -0.050000000000000003 0 1 I I #
coedge $-1 -1 -1 $-1 $395 $397 $550 $643 forward $248 $-1 #
vertex $-1 -1 -1 $-1 $396 $644 #
ellipse-curve $-1 -1 -1 $-1 -0.20000000000000001 0.10000000000000001 0.25 1 0 0 0 -0.050000000000000003 0 1 I I #
coedge $-1 -1 -1 $-1 $638 $636 $397 $545 forward $639 $-1 #
edge $-1 -1 -1 $-1 $641 -0.00025000000000000001 $645 -4.9999999999999989e-005 $544 $646 forward @7 unknown F #
rgb_color-st-attrib $-1 -1 $-1 $-1 $398 2 1 2 1 1 1 1 1 1 1 1 1 1 1 0 1 1 1 0.75294117647059 0.75294117647059 0.75294117647059 #
face $647 -1 -1 $-1 $637 $420 $9 $-1 $648 forward single F F #
plane-surface $-1 -1 -1 $-1 -0.20000000000000001 0 0 -1 0 0 0 -0 1 forward_v I I I I #
straight-curve $-1 -1 -1 $-1 -0.29999999999999999 0.14999999999999999 0.25 1000 0 0 I I #
coedge $-1 -1 -1 $-1 $530 $404 $541 $643 reversed $531 $-1 #
vertex $-1 -1 -1 $-1 $643 $649 #
straight-curve $-1 -1 -1 $-1 -0.29999999999999999 0.14999999999999999 0.050000000000000003 -1000 0 0 I I #
ellipse-curve $-1 -1 -1 $-1 -0.25 -0.10000000000000001 0.050000000000000003 0 1 0 0.050000000000000003 -0 0 1 I I #
coedge $-1 -1 -1 $-1 $419 $412 $638 $560 reversed $420 $-1 #
rgb_color-st-attrib $-1 -1 $-1 $-1 $413 2 1 2 1 1 1 1 1 1 1 1 1 1 1 0 1 1 1 0.75294117647059 0.75294117647059 0.75294117647059 #
sphere-surface $-1 -1 -1 $-1 -0.25 -0.10000000000000001 0.050000000000000003 0.050000000000000003 1 0 0 0 0 1 forward_v I I I I #
straight-curve $-1 -1 -1 $-1 -0.20000000000000001 -0.14999999999999999 0 0 0 1000 I I #
edge $-1 -1 -1 $-1 $421 0 $645 1.5707963267948966 $539 $650 forward @7 unknown F #
point $-1 -1 -1 $-1 -0.20000000000000001 -0.14999999999999999 0.050000000000000003 #
edge $-1 -1 -1 $-1 $645 -9.9999999999999978e-005 $425 -4.9999999999999989e-005 $638 $651 forward @7 unknown F #
point $-1 -1 -1 $-1 -0.25 -0.10000000000000001 0 #
rgb_color-st-attrib $-1 -1 $-1 $-1 $427 2 1 2 1 1 1 1 1 1 1 1 1 1 1 0 1 1 1 0.75294117647059 0.75294117647059 0.75294117647059 #
cone-surface $-1 -1 -1 $-1 -0.29999999999999999 -0.10000000000000001 0.25 1 0 0 -0 0.050000000000000003 0 1 I I 0 1 0.050000000000000003 forward I I I I #
rgb_color-st-attrib $-1 -1 $-1 $-1 $430 2 1 2 1 1 1 1 1 1 1 1 1 1 1 0 1 1 1 0.75294117647059 0.75294117647059 0.75294117647059 #
face $652 -1 -1 $-1 $279 $639 $9 $-1 $653 reversed single F F #
cone-surface $-1 -1 -1 $-1 -0.29999999999999999 0.10000000000000001 0.25 1 0 0 -0 0.050000000000000003 0 1 I I 0 1 0.050000000000000003 forward I I I I #
rgb_color-st-attrib $-1 -1 $-1 $-1 $434 2 1 2 1 1 1 1 1 1 1 1 1 1 1 0 1 1 1 0.75294117647059 0.75294117647059 0.75294117647059 #
face $654 -1 -1 $-1 $331 $599 $10 $-1 $655 forward single F F #
cone-surface $-1 -1 -1 $-1 0.25 0 0.25 0 -1 0 -0.050000000000000003 0 0 1 I I 0 1 0.050000000000000003 forward I I I I #
coedge $-1 -1 -1 $-1 $464 $588 $437 $571 forward $599 $-1 #
edge $-1 -1 -1 $-1 $575 1.5707963267948966 $480 3.1415926535897931 $437 $656 forward @7 unknown F #
coedge $-1 -1 -1 $-1 $657 $578 $438 $573 forward $658 $-1 #
edge $-1 -1 -1 $-1 $447 -0.00025000000000000001 $574 -4.9999999999999989e-005 $438 $659 forward @7 unknown F #
vertex $-1 -1 -1 $-1 $573 $660 #
vertex $-1 -1 -1 $-1 $571 $661 #
straight-curve $-1 -1 -1 $-1 0.29999999999999999 0.14999999999999999 0.25 0 1000 0 I I #
straight-curve $-1 -1 -1 $-1 0.29999999999999999 -0.14999999999999999 0.050000000000000003 0 -1000 0 I I #
coedge $-1 -1 -1 $-1 $572 $662 $444 $579 forward $658 $-1 #
edge $-1 -1 -1 $-1 $663 -3.1415926535897931 $447 -1.5707963267948966 $578 $664 forward @7 unknown F #
edge $-1 -1 -1 $-1 $302 -1.5707963267948966 $663 0 $449 $665 forward @7 unknown F #
face $666 -1 -1 $-1 $201 $446 $10 $-1 $667 forward single F F #
point $-1 -1 -1 $-1 0.29999999999999999 -0.10000000000000001 0.050000000000000003 #
coedge $-1 -1 -1 $-1 $450 $449 $605 $668 forward $435 $-1 #
edge $-1 -1 -1 $-1 $607 0 $451 1.5707963267948966 $450 $669 forward @7 unknown F #
point $-1 -1 -1 $-1 0.20000000000000001 -0.10000000000000001 0 #
coedge $-1 -1 -1 $-1 $459 $592 $454 $587 forward $593 $-1 #
edge $-1 -1 -1 $-1 $574 -3.1415926535897931 $309 -1.5707963267948966 $454 $670 forward @7 unknown F #
coedge $-1 -1 -1 $-1 $570 $464 $455 $589 reversed $599 $-1 #
edge $-1 -1 -1 $-1 $575 0 $314 1.5707963267948966 $455 $671 forward @7 unknown F #
coedge $-1 -1 -1 $-1 $471 $672 $458 $591 reversed $606 $-1 #
edge $-1 -1 -1 $-1 $473 -9.9999999999999978e-005 $594 -4.9999999999999989e-005 $590 $673 forward @7 unknown F #
coedge $-1 -1 -1 $-1 $586 $459 $657 $674 forward $593 $-1 #
loop $-1 -1 -1 $-1 $-1 $592 $597 F unknown #
vertex $-1 -1 -1 $-1 $675 $676 #
ellipse-curve $-1 -1 -1 $-1 0.25 -0.10000000000000001 0.25 -1 0 0 0 -0.050000000000000003 0 1 I I #
rgb_color-st-attrib $-1 -1 $-1 $-1 $461 2 1 2 1 1 1 1 1 1 1 1 1 1 1 0 1 1 1 0.75294117647059 0.75294117647059 0.75294117647059 #
face $677 -1 -1 $-1 $466 $593 $10 $-1 $678 forward single F F #
cone-surface $-1 -1 -1 $-1 0.29999999999999999 -0.10000000000000001 0.25 -1 0 0 0 0.050000000000000003 0 1 I I 0 1 0.050000000000000003 forward I I I I #
loop $-1 -1 -1 $-1 $-1 $588 $568 F unknown #
ellipse-curve $-1 -1 -1 $-1 0.25 0.10000000000000001 0.25 -1 0 0 0 -0.050000000000000003 0 1 I I #
rgb_color-st-attrib $-1 -1 $-1 $-1 $466 2 1 2 1 1 1 1 1 1 1 1 1 1 1 0 1 1 1 0.75294117647059 0.75294117647059 0.75294117647059 #
face $679 -1 -1 $-1 $581 $658 $10 $-1 $680 forward single F F #
cone-surface $-1 -1 -1 $-1 0.29999999999999999 0.10000000000000001 0.25 -1 0 0 0 0.050000000000000003 0 1 I I 0 1 0.050000000000000003 forward I I I I #
point $-1 -1 -1 $-1 0.20000000000000001 0.14999999999999999 0.25 #
coedge $-1 -1 -1 $-1 $672 $471 $583 $668 reversed $606 $-1 #
loop $-1 -1 -1 $-1 $-1 $672 $483 F unknown #
vertex $-1 -1 -1 $-1 $472 $681 #
straight-curve $-1 -1 -1 $-1 0.20000000000000001 -0.14999999999999999 0 0 0 1000 I I #
point $-1 -1 -1 $-1 0.20000000000000001 -0.14999999999999999 0.25 #
straight-curve $-1 -1 -1 $-1 0.29999999999999999 0.14999999999999999 0.25 -1000 0 0 I I #
point $-1 -1 -1 $-1 0.25 0.14999999999999999 0.25 #
rgb_color-st-attrib $-1 -1 $-1 $-1 $483 2 1 2 1 1 1 1 1 1 1 1 1 1 1 0 1 1 1 0.75294117647059 0.75294117647059 0.75294117647059 #
plane-surface $-1 -1 -1 $-1 0.29999999999999999 -0.14999999999999999 0 0 1 0 0 0 1 forward_v I I I I #
straight-curve $-1 -1 -1 $-1 0.29999999999999999 0.10000000000000001 0 0 0 -1000 I I #
rgb_color-st-attrib $-1 -1 $-1 $-1 $488 2 1 2 1 1 1 1 1 1 1 1 1 1 1 0 1 1 1 0.90980392156862999 0.44313725490195999 0.031372549019610001 #
cone-surface $-1 -1 -1 $-1 0 0.10000000000000001 0.25 -1 0 0 0 -0.050000000000000003 0 1 I I 0 1 0.050000000000000003 forward I I I I #
straight-curve $-1 -1 -1 $-1 -0.20000000000000001 0.14999999999999999 0.050000000000000003 -1000 0 0 I I #
straight-curve $-1 -1 -1 $-1 -0.20000000000000001 0.14999999999999999 0.25 1000 0 0 I I #
point $-1 -1 -1 $-1 0.20000000000000001 0.14999999999999999 0.25 #
straight-curve $-1 -1 -1 $-1 -0.20000000000000001 -0.14999999999999999 0.29999999999999999 0 -1000 0 I I #
point $-1 -1 -1 $-1 -0.20000000000000001 0.10000000000000001 0.29999999999999999 #
coedge $-1 -1 -1 $-1 $503 $502 $512 $626 reversed $504 $-1 #
point $-1 -1 -1 $-1 -0.20000000000000001 -0.10000000000000001 0.29999999999999999 #
ellipse-curve $-1 -1 -1 $-1 0.20000000000000001 -0.10000000000000001 0.25 1 0 0 0 -0.050000000000000003 0 1 I I #
ellipse-curve $-1 -1 -1 $-1 0.20000000000000001 0.10000000000000001 0.25 1 0 0 0 -0.050000000000000003 0 1 I I #
edge $-1 -1 -1 $-1 $514 -0.00040000000000000002 $522 0 $512 $682 forward @7 unknown F #
point $-1 -1 -1 $-1 0.20000000000000001 -0.14999999999999999 0.25 #
straight-curve $-1 -1 -1 $-1 0.20000000000000001 -0.14999999999999999 0.050000000000000003 1000 0 0 I I #
rgb_color-st-attrib $-1 -1 $-1 $-1 $519 2 1 2 1 1 1 1 1 1 1 1 1 1 1 0 1 1 1 0.90980392156862999 0.44313725490195999 0.031372549019610001 #
cone-surface $-1 -1 -1 $-1 0 -0.10000000000000001 0.25 1 0 0 -0 0.050000000000000003 0 1 I I 0 1 0.050000000000000003 forward I I I I #
ellipse-curve $-1 -1 -1 $-1 -0.20000000000000001 -0.10000000000000001 0.25 -1 0 0 0 0.050000000000000003 0 1 I I #
point $-1 -1 -1 $-1 -0.20000000000000001 -0.14999999999999999 0.25 #
ellipse-curve $-1 -1 -1 $-1 -0.20000000000000001 0.10000000000000001 0.25 -1 0 0 0 0.050000000000000003 0 1 I I #
point $-1 -1 -1 $-1 -0.20000000000000001 0.14999999999999999 0.25 #
straight-curve $-1 -1 -1 $-1 -0.20000000000000001 0.14999999999999999 0 0 0 -1000 I I #
coedge $-1 -1 -1 $-1 $544 $533 $530 $535 forward $639 $-1 #
face $683 -1 -1 $-1 $-1 $531 $9 $-1 $684 forward single F F #
coedge $-1 -1 -1 $-1 $533 $544 $554 $560 forward $639 $-1 #
loop $-1 -1 -1 $-1 $-1 $533 $565 F unknown #
straight-curve $-1 -1 -1 $-1 -0.25 0.14999999999999999 0 0 1000 0 I I #
vertex $-1 -1 -1 $-1 $535 $685 #
straight-curve $-1 -1 -1 $-1 -0.29999999999999999 0.10000000000000001 0 1000 0 0 I I #
edge $-1 -1 -1 $-1 $641 1.5707963267948966 $551 3.1415926535897931 $541 $686 forward @7 unknown F #
point $-1 -1 -1 $-1 -0.20000000000000001 0.14999999999999999 0.25 #
vertex $-1 -1 -1 $-1 $560 $687 #
straight-curve $-1 -1 -1 $-1 -0.20000000000000001 -0.14999999999999999 0 0 -1000 0 I I #
rgb_color-st-attrib $-1 -1 $-1 $-1 $547 2 1 2 1 1 1 1 1 1 1 1 1 1 1 0 1 1 1 0.75294117647059 0.75294117647059 0.75294117647059 #
cone-surface $-1 -1 -1 $-1 -0.29999999999999999 -0.10000000000000001 0.050000000000000003 1 0 0 -0 0.050000000000000003 0 1 I I 0 1 0.050000000000000003 forward I I I I #
point $-1 -1 -1 $-1 -0.20000000000000001 0.14999999999999999 0.050000000000000003 #
ellipse-curve $-1 -1 -1 $-1 -0.20000000000000001 -0.10000000000000001 0.050000000000000003 1 0 0 0 -0.050000000000000003 0 1 I I #
straight-curve $-1 -1 -1 $-1 -0.29999999999999999 -0.10000000000000001 0 -1000 0 0 I I #
rgb_color-st-attrib $-1 -1 $-1 $-1 $565 2 1 2 1 1 1 1 1 1 1 1 1 1 1 0 1 1 1 0.75294117647059 0.75294117647059 0.75294117647059 #
plane-surface $-1 -1 -1 $-1 -0.29999999999999999 -0.14999999999999999 0 0 0 1 1 0 0 forward_v I I I I #
rgb_color-st-attrib $-1 -1 $-1 $-1 $568 2 1 2 1 1 1 1 1 1 1 1 1 1 1 0 1 1 1 0.75294117647059 0.75294117647059 0.75294117647059 #
sphere-surface $-1 -1 -1 $-1 0.25 0.10000000000000001 0.25 0.050000000000000003 1 0 0 0 0 1 forward_v I I I I #
ellipse-curve $-1 -1 -1 $-1 0.25 0.10000000000000001 0.25 0 0 1 0 -0.050000000000000003 0 1 I I #
coedge $-1 -1 -1 $-1 $662 $572 $592 $674 reversed $658 $-1 #
loop $-1 -1 -1 $-1 $-1 $657 $602 F unknown #
straight-curve $-1 -1 -1 $-1 0.29999999999999999 -0.10000000000000001 0.29999999999999999 0 0 1000 I I #
point $-1 -1 -1 $-1 0.29999999999999999 -0.10000000000000001 0.25 #
point $-1 -1 -1 $-1 0.29999999999999999 0.10000000000000001 0.25 #
coedge $-1 -1 -1 $-1 $578 $657 $672 $675 forward $658 $-1 #
vertex $-1 -1 -1 $-1 $579 $688 #
ellipse-curve $-1 -1 -1 $-1 0.25 -0.10000000000000001 0.050000000000000003 0 0 1 0 0.050000000000000003 -0 1 I I #
ellipse-curve $-1 -1 -1 $-1 0.25 -0.10000000000000001 0.050000000000000003 -1 0 0 0 -0.050000000000000003 0 1 I I #
rgb_color-st-attrib $-1 -1 $-1 $-1 $581 2 1 2 1 1 1 1 1 1 1 1 1 1 1 0 1 1 1 0.75294117647059 0.75294117647059 0.75294117647059 #
sphere-surface $-1 -1 -1 $-1 0.25 -0.10000000000000001 0.050000000000000003 0.050000000000000003 1 0 0 0 0 1 forward_v I I I I #
edge $-1 -1 -1 $-1 $663 4.9999999999999989e-005 $607 9.9999999999999978e-005 $583 $689 forward @7 unknown F #
ellipse-curve $-1 -1 -1 $-1 0.20000000000000001 -0.10000000000000001 0.050000000000000003 1 0 0 0 -0.050000000000000003 0 1 I I #
ellipse-curve $-1 -1 -1 $-1 0.25 -0.10000000000000001 0.25 0 -1 0 -0.050000000000000003 0 0 1 I I #
ellipse-curve $-1 -1 -1 $-1 0.25 0.10000000000000001 0.25 0 -1 0 0.050000000000000003 0 0 1 I I #
coedge $-1 -1 -1 $-1 $590 $605 $662 $675 reversed $606 $-1 #
straight-curve $-1 -1 -1 $-1 0.29999999999999999 -0.14999999999999999 0.25 1000 0 0 I I #
edge $-1 -1 -1 $-1 $594 0 $574 1.5707963267948966 $592 $690 forward @7 unknown F #
edge $-1 -1 -1 $-1 $594 -0.00025000000000000001 $663 -5.0000000000000002e-005 $672 $691 forward @7 unknown F #
point $-1 -1 -1 $-1 0.25 -0.14999999999999999 0.25 #
rgb_color-st-attrib $-1 -1 $-1 $-1 $597 2 1 2 1 1 1 1 1 1 1 1 1 1 1 0 1 1 1 0.75294117647059 0.75294117647059 0.75294117647059 #
sphere-surface $-1 -1 -1 $-1 0.25 -0.10000000000000001 0.25 0.050000000000000003 1 0 0 0 0 1 forward_v I I I I #
rgb_color-st-attrib $-1 -1 $-1 $-1 $602 2 1 2 1 1 1 1 1 1 1 1 1 1 1 0 1 1 1 0.75294117647059 0.75294117647059 0.75294117647059 #
cone-surface $-1 -1 -1 $-1 0.25 -0.10000000000000001 0 0 0 -1 0 0.050000000000000003 0 1 I I 0 1 0.050000000000000003 forward I I I I #
point $-1 -1 -1 $-1 0.20000000000000001 -0.14999999999999999 0.050000000000000003 #
straight-curve $-1 -1 -1 $-1 -0.20000000000000001 -0.14999999999999999 0.25 -1000 0 0 I I #
rgb_color-st-attrib $-1 -1 $-1 $-1 $637 2 1 2 1 1 1 1 1 1 1 1 1 1 1 0 1 1 1 0.75294117647059 0.75294117647059 0.75294117647059 #
cone-surface $-1 -1 -1 $-1 -0.29999999999999999 0.10000000000000001 0.050000000000000003 1 0 0 -0 0.050000000000000003 0 1 I I 0 1 0.050000000000000003 forward I I I I #
point $-1 -1 -1 $-1 -0.20000000000000001 0.10000000000000001 0 #
ellipse-curve $-1 -1 -1 $-1 -0.20000000000000001 0.10000000000000001 0.050000000000000003 1 0 0 0 -0.050000000000000003 0 1 I I #
point $-1 -1 -1 $-1 -0.20000000000000001 -0.10000000000000001 0 #
point $-1 -1 -1 $-1 0.25 -0.14999999999999999 0.050000000000000003 #
straight-curve $-1 -1 -1 $-1 0.29999999999999999 -0.14999999999999999 0.050000000000000003 -1000 0 0 I I #
ellipse-curve $-1 -1 -1 $-1 0.25 -0.10000000000000001 0.25 0 0 1 0 -0.050000000000000003 0 1 I I #
straight-curve $-1 -1 -1 $-1 0.25 -0.14999999999999999 0 0 0 -1000 I I #
End-of-ACIS-data 