2400 0 5 0           
12 BoardModeler 14 ACIS 24.0.2 NT 24 Tue Mar 29 22:22:54 2016 
1 9.9999999999999995e-007 1e-010 
body $5 -1 -1 $-1 $6 $-1 $-1 F #
body $7 -1 -1 $-1 $8 $-1 $-1 F #
body $9 -1 -1 $-1 $10 $-1 $-1 F #
body $11 -1 -1 $-1 $12 $-1 $-1 F #
body $13 -1 -1 $-1 $14 $-1 $-1 F #
rgb_color-st-attrib $-1 -1 $-1 $-1 $0 2 1 2 1 1 1 1 1 1 1 1 1 1 1 0 1 1 1 0.75294117647059 0.75294117647059 0.75294117647059 #
lump $-1 -1 -1 $-1 $-1 $15 $0 F #
rgb_color-st-attrib $-1 -1 $-1 $-1 $1 2 1 2 1 1 1 1 1 1 1 1 1 1 1 0 1 1 1 0.75294117647059 0.75294117647059 0.75294117647059 #
lump $-1 -1 -1 $-1 $-1 $16 $1 F #
rgb_color-st-attrib $-1 -1 $-1 $-1 $2 2 1 2 1 1 1 1 1 1 1 1 1 1 1 0 1 1 1 0.75294117647059 0.75294117647059 0.75294117647059 #
lump $-1 -1 -1 $-1 $-1 $17 $2 F #
rgb_color-st-attrib $-1 -1 $-1 $-1 $3 2 1 2 1 1 1 1 1 1 1 1 1 1 1 0 1 1 1 0.75294117647059 0.75294117647059 0.75294117647059 #
lump $-1 -1 -1 $-1 $-1 $18 $3 F #
rgb_color-st-attrib $-1 -1 $-1 $-1 $4 2 1 2 1 1 1 1 1 1 1 1 1 1 1 0 1 1 1 0 0 0 #
lump $-1 -1 -1 $-1 $-1 $19 $4 F #
shell $-1 -1 -1 $-1 $-1 $-1 $20 $-1 $6 F #
shell $-1 -1 -1 $-1 $-1 $-1 $21 $-1 $8 F #
shell $-1 -1 -1 $-1 $-1 $-1 $22 $-1 $10 F #
shell $-1 -1 -1 $-1 $-1 $-1 $23 $-1 $12 F #
shell $-1 -1 -1 $-1 $-1 $-1 $24 $-1 $14 F #
face $25 -1 -1 $-1 $26 $27 $15 $-1 $28 reversed single F F #
face $29 -1 -1 $-1 $30 $31 $16 $-1 $32 reversed single F F #
face $33 -1 -1 $-1 $34 $35 $17 $-1 $36 reversed single F F #
face $37 -1 -1 $-1 $38 $39 $18 $-1 $40 reversed single F F #
face $41 -1 -1 $-1 $42 $43 $19 $-1 $44 forward single F F #
rgb_color-st-attrib $-1 -1 $-1 $-1 $20 2 1 2 1 1 1 1 1 1 1 1 1 1 1 0 1 1 1 0.75294117647059 0.75294117647059 0.75294117647059 #
face $45 -1 -1 $-1 $46 $47 $15 $-1 $48 reversed single F F #
loop $-1 -1 -1 $-1 $-1 $49 $20 F unknown #
plane-surface $-1 -1 -1 $-1 -0.59999999999999998 0.45000000000000001 0.050000000000000003 -1 0 0 0 -0 1 forward_v I I I I #
rgb_color-st-attrib $-1 -1 $-1 $-1 $21 2 1 2 1 1 1 1 1 1 1 1 1 1 1 0 1 1 1 0.75294117647059 0.75294117647059 0.75294117647059 #
face $50 -1 -1 $-1 $51 $52 $16 $-1 $53 reversed single F F #
loop $-1 -1 -1 $-1 $-1 $54 $21 F unknown #
plane-surface $-1 -1 -1 $-1 -0.59999999999999998 -1.25 0.050000000000000003 -1 0 0 0 -0 1 forward_v I I I I #
rgb_color-st-attrib $-1 -1 $-1 $-1 $22 2 1 2 1 1 1 1 1 1 1 1 1 1 1 0 1 1 1 0.75294117647059 0.75294117647059 0.75294117647059 #
face $55 -1 -1 $-1 $56 $57 $17 $-1 $58 reversed single F F #
loop $-1 -1 -1 $-1 $-1 $59 $22 F unknown #
plane-surface $-1 -1 -1 $-1 1.5 -1.25 0.050000000000000003 -1 0 0 0 -0 1 forward_v I I I I #
rgb_color-st-attrib $-1 -1 $-1 $-1 $23 2 1 2 1 1 1 1 1 1 1 1 1 1 1 0 1 1 1 0.75294117647059 0.75294117647059 0.75294117647059 #
face $60 -1 -1 $-1 $61 $62 $18 $-1 $63 reversed single F F #
loop $-1 -1 -1 $-1 $-1 $64 $23 F unknown #
plane-surface $-1 -1 -1 $-1 1.5 0.45000000000000001 0.050000000000000003 -1 0 0 0 -0 1 forward_v I I I I #
rgb_color-st-attrib $-1 -1 $-1 $-1 $24 2 1 2 1 1 1 1 1 1 1 1 1 1 1 0 1 1 1 0.75294117647059 0.75294117647059 0.75294117647059 #
face $65 -1 -1 $-1 $66 $67 $19 $-1 $68 reversed single F F #
loop $-1 -1 -1 $-1 $-1 $69 $24 F unknown #
cone-surface $-1 -1 -1 $-1 0 1.0860000000000001 0.80000000000000004 -1 0 0 0 -0.10000000000000001 0 1 I I 0 1 0.10000000000000001 forward I I I I #
rgb_color-st-attrib $-1 -1 $-1 $-1 $26 2 1 2 1 1 1 1 1 1 1 1 1 1 1 0 1 1 1 0.75294117647059 0.75294117647059 0.75294117647059 #
face $70 -1 -1 $-1 $71 $72 $15 $-1 $73 reversed single F F #
loop $-1 -1 -1 $-1 $-1 $74 $26 F unknown #
plane-surface $-1 -1 -1 $-1 -1.5 1.25 0.050000000000000003 0 -1 0 0 0 -1 forward_v I I I I #
coedge $-1 -1 -1 $-1 $75 $76 $77 $78 forward $27 $-1 #
rgb_color-st-attrib $-1 -1 $-1 $-1 $30 2 1 2 1 1 1 1 1 1 1 1 1 1 1 0 1 1 1 0.75294117647059 0.75294117647059 0.75294117647059 #
face $79 -1 -1 $-1 $80 $81 $16 $-1 $82 reversed single F F #
loop $-1 -1 -1 $-1 $-1 $83 $30 F unknown #
plane-surface $-1 -1 -1 $-1 -1.5 -0.45000000000000001 0.050000000000000003 0 -1 0 0 0 -1 forward_v I I I I #
coedge $-1 -1 -1 $-1 $84 $85 $86 $87 forward $31 $-1 #
rgb_color-st-attrib $-1 -1 $-1 $-1 $34 2 1 2 1 1 1 1 1 1 1 1 1 1 1 0 1 1 1 0.75294117647059 0.75294117647059 0.75294117647059 #
face $88 -1 -1 $-1 $89 $90 $17 $-1 $91 reversed single F F #
loop $-1 -1 -1 $-1 $-1 $92 $34 F unknown #
plane-surface $-1 -1 -1 $-1 0.59999999999999998 -0.45000000000000001 0.050000000000000003 0 -1 0 0 0 -1 forward_v I I I I #
coedge $-1 -1 -1 $-1 $93 $94 $95 $96 forward $35 $-1 #
rgb_color-st-attrib $-1 -1 $-1 $-1 $38 2 1 2 1 1 1 1 1 1 1 1 1 1 1 0 1 1 1 0.75294117647059 0.75294117647059 0.75294117647059 #
face $97 -1 -1 $-1 $98 $99 $18 $-1 $100 reversed single F F #
loop $-1 -1 -1 $-1 $-1 $101 $38 F unknown #
plane-surface $-1 -1 -1 $-1 0.59999999999999998 1.25 0.050000000000000003 0 -1 0 0 0 -1 forward_v I I I I #
coedge $-1 -1 -1 $-1 $102 $103 $104 $105 forward $39 $-1 #
rgb_color-st-attrib $-1 -1 $-1 $-1 $42 2 1 2 1 1 1 1 1 1 1 1 1 1 1 0 1 1 1 0.75294117647059 0.75294117647059 0.75294117647059 #
face $106 -1 -1 $-1 $107 $108 $19 $-1 $109 reversed single F F #
loop $-1 -1 -1 $-1 $-1 $110 $42 F unknown #
plane-surface $-1 -1 -1 $-1 -1.536 -1.1859999999999999 0.90000000000000002 0 1 0 0 0 1 forward_v I I I I #
coedge $-1 -1 -1 $-1 $111 $112 $113 $114 forward $43 $-1 #
rgb_color-st-attrib $-1 -1 $-1 $-1 $46 2 1 2 1 1 1 1 1 1 1 1 1 1 1 0 1 1 1 0.75294117647059 0.75294117647059 0.75294117647059 #
face $115 -1 -1 $-1 $116 $117 $15 $-1 $118 reversed single F F #
loop $-1 -1 -1 $-1 $-1 $119 $46 F unknown #
plane-surface $-1 -1 -1 $-1 -1.5 0.45000000000000001 0.050000000000000003 1 0 0 0 0 -1 forward_v I I I I #
coedge $-1 -1 -1 $-1 $120 $121 $122 $123 forward $47 $-1 #
coedge $-1 -1 -1 $-1 $124 $49 $121 $125 reversed $27 $-1 #
coedge $-1 -1 -1 $-1 $49 $124 $126 $127 forward $27 $-1 #
coedge $-1 -1 -1 $-1 $128 $122 $49 $78 reversed $129 $-1 #
edge $-1 -1 -1 $-1 $130 0 $131 0.00080000000000000004 $49 $132 forward @7 unknown F #
rgb_color-st-attrib $-1 -1 $-1 $-1 $51 2 1 2 1 1 1 1 1 1 1 1 1 1 1 0 1 1 1 0.75294117647059 0.75294117647059 0.75294117647059 #
face $133 -1 -1 $-1 $134 $135 $16 $-1 $136 reversed single F F #
loop $-1 -1 -1 $-1 $-1 $137 $51 F unknown #
plane-surface $-1 -1 -1 $-1 -1.5 -1.25 0.050000000000000003 1 0 0 0 0 -1 forward_v I I I I #
coedge $-1 -1 -1 $-1 $138 $139 $140 $141 forward $52 $-1 #
coedge $-1 -1 -1 $-1 $142 $54 $139 $143 reversed $31 $-1 #
coedge $-1 -1 -1 $-1 $54 $142 $144 $145 forward $31 $-1 #
coedge $-1 -1 -1 $-1 $146 $140 $54 $87 reversed $147 $-1 #
edge $-1 -1 -1 $-1 $148 0 $149 0.00080000000000000004 $54 $150 forward @7 unknown F #
rgb_color-st-attrib $-1 -1 $-1 $-1 $56 2 1 2 1 1 1 1 1 1 1 1 1 1 1 0 1 1 1 0.75294117647059 0.75294117647059 0.75294117647059 #
face $151 -1 -1 $-1 $152 $153 $17 $-1 $154 reversed single F F #
loop $-1 -1 -1 $-1 $-1 $155 $56 F unknown #
plane-surface $-1 -1 -1 $-1 0.59999999999999998 -1.25 0.050000000000000003 1 0 0 0 0 -1 forward_v I I I I #
coedge $-1 -1 -1 $-1 $156 $157 $158 $159 forward $57 $-1 #
coedge $-1 -1 -1 $-1 $160 $59 $157 $161 reversed $35 $-1 #
coedge $-1 -1 -1 $-1 $59 $160 $162 $163 forward $35 $-1 #
coedge $-1 -1 -1 $-1 $164 $158 $59 $96 reversed $165 $-1 #
edge $-1 -1 -1 $-1 $166 0 $167 0.00080000000000000004 $59 $168 forward @7 unknown F #
rgb_color-st-attrib $-1 -1 $-1 $-1 $61 2 1 2 1 1 1 1 1 1 1 1 1 1 1 0 1 1 1 0.75294117647059 0.75294117647059 0.75294117647059 #
face $169 -1 -1 $-1 $170 $171 $18 $-1 $172 reversed single F F #
loop $-1 -1 -1 $-1 $-1 $173 $61 F unknown #
plane-surface $-1 -1 -1 $-1 0.59999999999999998 0.45000000000000001 0.050000000000000003 1 0 0 0 0 -1 forward_v I I I I #
coedge $-1 -1 -1 $-1 $174 $175 $176 $177 forward $62 $-1 #
coedge $-1 -1 -1 $-1 $178 $64 $175 $179 reversed $39 $-1 #
coedge $-1 -1 -1 $-1 $64 $178 $180 $181 forward $39 $-1 #
coedge $-1 -1 -1 $-1 $182 $176 $64 $105 reversed $183 $-1 #
edge $-1 -1 -1 $-1 $184 0 $185 0.00080000000000000004 $64 $186 forward @7 unknown F #
rgb_color-st-attrib $-1 -1 $-1 $-1 $66 2 1 2 1 1 1 1 1 1 1 1 1 1 1 0 1 1 1 0.75294117647059 0.75294117647059 0.75294117647059 #
face $187 -1 -1 $-1 $188 $189 $19 $-1 $190 forward single F F #
loop $-1 -1 -1 $-1 $-1 $191 $66 F unknown #
plane-surface $-1 -1 -1 $-1 -1.536 -1.1859999999999999 0.90000000000000002 1 0 0 0 0 -1 forward_v I I I I #
coedge $-1 -1 -1 $-1 $192 $193 $194 $195 forward $67 $-1 #
coedge $-1 -1 -1 $-1 $196 $69 $197 $198 reversed $43 $-1 #
coedge $-1 -1 -1 $-1 $69 $196 $199 $200 reversed $43 $-1 #
coedge $-1 -1 -1 $-1 $201 $202 $69 $114 reversed $203 $-1 #
edge $-1 -1 -1 $-1 $204 0 $205 1.5707963267948966 $69 $206 forward @7 unknown F #
rgb_color-st-attrib $-1 -1 $-1 $-1 $71 2 1 2 1 1 1 1 1 1 1 1 1 1 1 0 1 1 1 0.75294117647059 0.75294117647059 0.75294117647059 #
face $207 -1 -1 $-1 $208 $209 $15 $-1 $210 reversed single F F #
loop $-1 -1 -1 $-1 $-1 $211 $71 F unknown #
plane-surface $-1 -1 -1 $-1 -1.5 0.45000000000000001 0.050000000000000003 0 1 0 0 0 1 forward_v I I I I #
coedge $-1 -1 -1 $-1 $212 $213 $214 $215 forward $72 $-1 #
coedge $-1 -1 -1 $-1 $216 $74 $213 $217 reversed $47 $-1 #
coedge $-1 -1 -1 $-1 $74 $216 $75 $125 forward $47 $-1 #
coedge $-1 -1 -1 $-1 $77 $214 $74 $123 reversed $129 $-1 #
edge $-1 -1 -1 $-1 $131 -0.00089999999999999998 $218 0 $74 $219 forward @7 unknown F #
coedge $-1 -1 -1 $-1 $76 $75 $220 $221 reversed $27 $-1 #
edge $-1 -1 -1 $-1 $222 0 $131 5.0000000000000002e-005 $75 $223 forward @7 unknown F #
coedge $-1 -1 -1 $-1 $224 $211 $76 $127 reversed $117 $-1 #
edge $-1 -1 -1 $-1 $225 0 $130 5.0000000000000002e-005 $76 $226 forward @7 unknown F #
coedge $-1 -1 -1 $-1 $214 $77 $211 $227 reversed $129 $-1 #
loop $-1 -1 -1 $-1 $-1 $77 $208 F unknown #
vertex $-1 -1 -1 $-1 $227 $228 #
vertex $-1 -1 -1 $-1 $123 $229 #
straight-curve $-1 -1 -1 $-1 -0.59999999999999998 0.45000000000000001 0 0 1000 0 I I #
rgb_color-st-attrib $-1 -1 $-1 $-1 $80 2 1 2 1 1 1 1 1 1 1 1 1 1 1 0 1 1 1 0.75294117647059 0.75294117647059 0.75294117647059 #
face $230 -1 -1 $-1 $231 $232 $16 $-1 $233 reversed single F F #
loop $-1 -1 -1 $-1 $-1 $234 $80 F unknown #
plane-surface $-1 -1 -1 $-1 -1.5 -1.25 0.050000000000000003 0 1 0 0 0 1 forward_v I I I I #
coedge $-1 -1 -1 $-1 $235 $236 $237 $238 forward $81 $-1 #
coedge $-1 -1 -1 $-1 $239 $83 $236 $240 reversed $52 $-1 #
coedge $-1 -1 -1 $-1 $83 $239 $84 $143 forward $52 $-1 #
coedge $-1 -1 -1 $-1 $86 $237 $83 $141 reversed $147 $-1 #
edge $-1 -1 -1 $-1 $149 -0.00089999999999999998 $241 0 $83 $242 forward @7 unknown F #
coedge $-1 -1 -1 $-1 $85 $84 $243 $244 reversed $31 $-1 #
edge $-1 -1 -1 $-1 $245 0 $149 5.0000000000000002e-005 $84 $246 forward @7 unknown F #
coedge $-1 -1 -1 $-1 $247 $234 $85 $145 reversed $135 $-1 #
edge $-1 -1 -1 $-1 $248 0 $148 5.0000000000000002e-005 $85 $249 forward @7 unknown F #
coedge $-1 -1 -1 $-1 $237 $86 $234 $250 reversed $147 $-1 #
loop $-1 -1 -1 $-1 $-1 $86 $231 F unknown #
vertex $-1 -1 -1 $-1 $250 $251 #
vertex $-1 -1 -1 $-1 $141 $252 #
straight-curve $-1 -1 -1 $-1 -0.59999999999999998 -1.25 0 0 1000 0 I I #
rgb_color-st-attrib $-1 -1 $-1 $-1 $89 2 1 2 1 1 1 1 1 1 1 1 1 1 1 0 1 1 1 0.75294117647059 0.75294117647059 0.75294117647059 #
face $253 -1 -1 $-1 $254 $255 $17 $-1 $256 reversed single F F #
loop $-1 -1 -1 $-1 $-1 $257 $89 F unknown #
plane-surface $-1 -1 -1 $-1 0.59999999999999998 -1.25 0.050000000000000003 0 1 0 0 0 1 forward_v I I I I #
coedge $-1 -1 -1 $-1 $258 $259 $260 $261 forward $90 $-1 #
coedge $-1 -1 -1 $-1 $262 $92 $259 $263 reversed $57 $-1 #
coedge $-1 -1 -1 $-1 $92 $262 $93 $161 forward $57 $-1 #
coedge $-1 -1 -1 $-1 $95 $260 $92 $159 reversed $165 $-1 #
edge $-1 -1 -1 $-1 $167 -0.00089999999999999998 $264 0 $92 $265 forward @7 unknown F #
coedge $-1 -1 -1 $-1 $94 $93 $266 $267 reversed $35 $-1 #
edge $-1 -1 -1 $-1 $268 0 $167 5.0000000000000002e-005 $93 $269 forward @7 unknown F #
coedge $-1 -1 -1 $-1 $270 $257 $94 $163 reversed $153 $-1 #
edge $-1 -1 -1 $-1 $271 0 $166 5.0000000000000002e-005 $94 $272 forward @7 unknown F #
coedge $-1 -1 -1 $-1 $260 $95 $257 $273 reversed $165 $-1 #
loop $-1 -1 -1 $-1 $-1 $95 $254 F unknown #
vertex $-1 -1 -1 $-1 $273 $274 #
vertex $-1 -1 -1 $-1 $159 $275 #
straight-curve $-1 -1 -1 $-1 1.5 -1.25 0 0 1000 0 I I #
rgb_color-st-attrib $-1 -1 $-1 $-1 $98 2 1 2 1 1 1 1 1 1 1 1 1 1 1 0 1 1 1 0.75294117647059 0.75294117647059 0.75294117647059 #
face $276 -1 -1 $-1 $277 $278 $18 $-1 $279 reversed single F F #
loop $-1 -1 -1 $-1 $-1 $280 $98 F unknown #
plane-surface $-1 -1 -1 $-1 0.59999999999999998 0.45000000000000001 0.050000000000000003 0 1 0 0 0 1 forward_v I I I I #
coedge $-1 -1 -1 $-1 $281 $282 $283 $284 forward $99 $-1 #
coedge $-1 -1 -1 $-1 $285 $101 $282 $286 reversed $62 $-1 #
coedge $-1 -1 -1 $-1 $101 $285 $102 $179 forward $62 $-1 #
coedge $-1 -1 -1 $-1 $104 $283 $101 $177 reversed $183 $-1 #
edge $-1 -1 -1 $-1 $185 -0.00089999999999999998 $287 0 $101 $288 forward @7 unknown F #
coedge $-1 -1 -1 $-1 $103 $102 $289 $290 reversed $39 $-1 #
edge $-1 -1 -1 $-1 $291 0 $185 5.0000000000000002e-005 $102 $292 forward @7 unknown F #
coedge $-1 -1 -1 $-1 $293 $280 $103 $181 reversed $171 $-1 #
edge $-1 -1 -1 $-1 $294 0 $184 5.0000000000000002e-005 $103 $295 forward @7 unknown F #
coedge $-1 -1 -1 $-1 $283 $104 $280 $296 reversed $183 $-1 #
loop $-1 -1 -1 $-1 $-1 $104 $277 F unknown #
vertex $-1 -1 -1 $-1 $296 $297 #
vertex $-1 -1 -1 $-1 $177 $298 #
straight-curve $-1 -1 -1 $-1 1.5 0.45000000000000001 0 0 1000 0 I I #
rgb_color-st-attrib $-1 -1 $-1 $-1 $107 2 1 2 1 1 1 1 1 1 1 1 1 1 1 0 1 1 1 0.75294117647059 0.75294117647059 0.75294117647059 #
face $299 -1 -1 $-1 $300 $301 $19 $-1 $302 reversed single F F #
loop $-1 -1 -1 $-1 $-1 $303 $107 F unknown #
torus-surface $-1 -1 -1 $-1 -1.1234999999999999 0.77349999999999997 0.8609 0 0 -1 0.2344 0.039100000000000003 -1 0 0 forward_v I I I I #
coedge $-1 -1 -1 $-1 $304 $305 $306 $307 forward $108 $-1 #
coedge $-1 -1 -1 $-1 $308 $110 $309 $310 forward $67 $-1 #
coedge $-1 -1 -1 $-1 $110 $308 $311 $312 forward $67 $-1 #
coedge $-1 -1 -1 $-1 $313 $314 $110 $195 reversed $315 $-1 #
edge $-1 -1 -1 $-1 $316 -0.00042500000000000003 $317 -9.9999999999999978e-005 $110 $318 forward @7 unknown F #
coedge $-1 -1 -1 $-1 $112 $111 $319 $320 reversed $43 $-1 #
coedge $-1 -1 -1 $-1 $321 $322 $111 $198 forward $323 $-1 #
edge $-1 -1 -1 $-1 $324 -0.0013360000000000002 $205 0.0013360000000000002 $111 $325 forward @7 unknown F #
coedge $-1 -1 -1 $-1 $326 $327 $112 $200 forward $328 $-1 #
edge $-1 -1 -1 $-1 $204 0.00019999999999999996 $329 0.002872 $112 $330 forward @7 unknown F #
coedge $-1 -1 -1 $-1 $331 $113 $332 $333 reversed $203 $-1 #
coedge $-1 -1 -1 $-1 $113 $331 $321 $334 reversed $203 $-1 #
loop $-1 -1 -1 $-1 $-1 $113 $335 F unknown #
vertex $-1 -1 -1 $-1 $333 $336 #
vertex $-1 -1 -1 $-1 $334 $337 #
ellipse-curve $-1 -1 -1 $-1 -1.3360000000000001 1.0860000000000001 0.80000000000000004 1 0 0 0 0.10000000000000001 0 1 I I #
rgb_color-st-attrib $-1 -1 $-1 $-1 $116 2 1 2 1 1 1 1 1 1 1 1 1 1 1 0 1 1 1 0.75294117647059 0.75294117647059 0.75294117647059 #
face $338 -1 -1 $-1 $-1 $129 $15 $-1 $339 forward single F F #
loop $-1 -1 -1 $-1 $-1 $220 $116 F unknown #
plane-surface $-1 -1 -1 $-1 -1.05 0.84999999999999998 0.050000000000000003 0 0 -1 -1 0 0 forward_v I I I I #
coedge $-1 -1 -1 $-1 $126 $340 $128 $227 forward $117 $-1 #
coedge $-1 -1 -1 $-1 $341 $119 $340 $342 reversed $72 $-1 #
coedge $-1 -1 -1 $-1 $119 $341 $120 $217 forward $72 $-1 #
coedge $-1 -1 -1 $-1 $122 $128 $119 $215 reversed $129 $-1 #
edge $-1 -1 -1 $-1 $218 -0.00080000000000000004 $343 0 $119 $344 forward @7 unknown F #
coedge $-1 -1 -1 $-1 $121 $120 $345 $346 reversed $47 $-1 #
edge $-1 -1 -1 $-1 $347 0 $218 5.0000000000000002e-005 $120 $348 forward @7 unknown F #
vertex $-1 -1 -1 $-1 $123 $349 #
straight-curve $-1 -1 -1 $-1 -1.5 1.25 0 -1000 0 0 I I #
coedge $-1 -1 -1 $-1 $345 $350 $124 $221 forward $209 $-1 #
edge $-1 -1 -1 $-1 $225 0 $222 0.00080000000000000004 $124 $351 forward @7 unknown F #
vertex $-1 -1 -1 $-1 $346 $352 #
straight-curve $-1 -1 -1 $-1 -0.59999999999999998 1.25 0.050000000000000003 0 0 -1000 I I #
coedge $-1 -1 -1 $-1 $340 $126 $350 $353 reversed $117 $-1 #
vertex $-1 -1 -1 $-1 $353 $354 #
straight-curve $-1 -1 -1 $-1 -0.59999999999999998 0.45000000000000001 0.050000000000000003 0 0 -1000 I I #
edge $-1 -1 -1 $-1 $343 0 $130 0.00089999999999999998 $211 $355 forward @7 unknown F #
point $-1 -1 -1 $-1 -0.59999999999999998 0.45000000000000001 0 #
point $-1 -1 -1 $-1 -0.59999999999999998 1.25 0 #
rgb_color-st-attrib $-1 -1 $-1 $-1 $134 2 1 2 1 1 1 1 1 1 1 1 1 1 1 0 1 1 1 0.75294117647059 0.75294117647059 0.75294117647059 #
face $356 -1 -1 $-1 $-1 $147 $16 $-1 $357 forward single F F #
loop $-1 -1 -1 $-1 $-1 $243 $134 F unknown #
plane-surface $-1 -1 -1 $-1 -1.05 -0.84999999999999998 0.050000000000000003 0 0 -1 -1 0 0 forward_v I I I I #
coedge $-1 -1 -1 $-1 $144 $358 $146 $250 forward $135 $-1 #
coedge $-1 -1 -1 $-1 $359 $137 $358 $360 reversed $81 $-1 #
coedge $-1 -1 -1 $-1 $137 $359 $138 $240 forward $81 $-1 #
coedge $-1 -1 -1 $-1 $140 $146 $137 $238 reversed $147 $-1 #
edge $-1 -1 -1 $-1 $241 -0.00080000000000000004 $361 0 $137 $362 forward @7 unknown F #
coedge $-1 -1 -1 $-1 $139 $138 $363 $364 reversed $52 $-1 #
edge $-1 -1 -1 $-1 $365 0 $241 5.0000000000000002e-005 $138 $366 forward @7 unknown F #
vertex $-1 -1 -1 $-1 $141 $367 #
straight-curve $-1 -1 -1 $-1 -1.5 -0.45000000000000001 0 -1000 0 0 I I #
coedge $-1 -1 -1 $-1 $363 $368 $142 $244 forward $232 $-1 #
edge $-1 -1 -1 $-1 $248 0 $245 0.00080000000000000004 $142 $369 forward @7 unknown F #
vertex $-1 -1 -1 $-1 $364 $370 #
straight-curve $-1 -1 -1 $-1 -0.59999999999999998 -0.45000000000000001 0.050000000000000003 0 0 -1000 I I #
coedge $-1 -1 -1 $-1 $358 $144 $368 $371 reversed $135 $-1 #
vertex $-1 -1 -1 $-1 $371 $372 #
straight-curve $-1 -1 -1 $-1 -0.59999999999999998 -1.25 0.050000000000000003 0 0 -1000 I I #
edge $-1 -1 -1 $-1 $361 0 $148 0.00089999999999999998 $234 $373 forward @7 unknown F #
point $-1 -1 -1 $-1 -0.59999999999999998 -1.25 0 #
point $-1 -1 -1 $-1 -0.59999999999999998 -0.45000000000000001 0 #
rgb_color-st-attrib $-1 -1 $-1 $-1 $152 2 1 2 1 1 1 1 1 1 1 1 1 1 1 0 1 1 1 0.75294117647059 0.75294117647059 0.75294117647059 #
face $374 -1 -1 $-1 $-1 $165 $17 $-1 $375 forward single F F #
loop $-1 -1 -1 $-1 $-1 $266 $152 F unknown #
plane-surface $-1 -1 -1 $-1 1.05 -0.84999999999999998 0.050000000000000003 0 0 -1 -1 0 0 forward_v I I I I #
coedge $-1 -1 -1 $-1 $162 $376 $164 $273 forward $153 $-1 #
coedge $-1 -1 -1 $-1 $377 $155 $376 $378 reversed $90 $-1 #
coedge $-1 -1 -1 $-1 $155 $377 $156 $263 forward $90 $-1 #
coedge $-1 -1 -1 $-1 $158 $164 $155 $261 reversed $165 $-1 #
edge $-1 -1 -1 $-1 $264 -0.00080000000000000004 $379 0 $155 $380 forward @7 unknown F #
coedge $-1 -1 -1 $-1 $157 $156 $381 $382 reversed $57 $-1 #
edge $-1 -1 -1 $-1 $383 0 $264 5.0000000000000002e-005 $156 $384 forward @7 unknown F #
vertex $-1 -1 -1 $-1 $159 $385 #
straight-curve $-1 -1 -1 $-1 0.59999999999999998 -0.45000000000000001 0 -1000 0 0 I I #
coedge $-1 -1 -1 $-1 $381 $386 $160 $267 forward $255 $-1 #
edge $-1 -1 -1 $-1 $271 0 $268 0.00080000000000000004 $160 $387 forward @7 unknown F #
vertex $-1 -1 -1 $-1 $382 $388 #
straight-curve $-1 -1 -1 $-1 1.5 -0.45000000000000001 0.050000000000000003 0 0 -1000 I I #
coedge $-1 -1 -1 $-1 $376 $162 $386 $389 reversed $153 $-1 #
vertex $-1 -1 -1 $-1 $389 $390 #
straight-curve $-1 -1 -1 $-1 1.5 -1.25 0.050000000000000003 0 0 -1000 I I #
edge $-1 -1 -1 $-1 $379 0 $166 0.00089999999999999998 $257 $391 forward @7 unknown F #
point $-1 -1 -1 $-1 1.5 -1.25 0 #
point $-1 -1 -1 $-1 1.5 -0.45000000000000001 0 #
rgb_color-st-attrib $-1 -1 $-1 $-1 $170 2 1 2 1 1 1 1 1 1 1 1 1 1 1 0 1 1 1 0.75294117647059 0.75294117647059 0.75294117647059 #
face $392 -1 -1 $-1 $-1 $183 $18 $-1 $393 forward single F F #
loop $-1 -1 -1 $-1 $-1 $289 $170 F unknown #
plane-surface $-1 -1 -1 $-1 1.05 0.84999999999999998 0.050000000000000003 0 0 -1 -1 0 0 forward_v I I I I #
coedge $-1 -1 -1 $-1 $180 $394 $182 $296 forward $171 $-1 #
coedge $-1 -1 -1 $-1 $395 $173 $394 $396 reversed $99 $-1 #
coedge $-1 -1 -1 $-1 $173 $395 $174 $286 forward $99 $-1 #
coedge $-1 -1 -1 $-1 $176 $182 $173 $284 reversed $183 $-1 #
edge $-1 -1 -1 $-1 $287 -0.00080000000000000004 $397 0 $173 $398 forward @7 unknown F #
coedge $-1 -1 -1 $-1 $175 $174 $399 $400 reversed $62 $-1 #
edge $-1 -1 -1 $-1 $401 0 $287 5.0000000000000002e-005 $174 $402 forward @7 unknown F #
vertex $-1 -1 -1 $-1 $177 $403 #
straight-curve $-1 -1 -1 $-1 0.59999999999999998 1.25 0 -1000 0 0 I I #
coedge $-1 -1 -1 $-1 $399 $404 $178 $290 forward $278 $-1 #
edge $-1 -1 -1 $-1 $294 0 $291 0.00080000000000000004 $178 $405 forward @7 unknown F #
vertex $-1 -1 -1 $-1 $400 $406 #
straight-curve $-1 -1 -1 $-1 1.5 1.25 0.050000000000000003 0 0 -1000 I I #
coedge $-1 -1 -1 $-1 $394 $180 $404 $407 reversed $171 $-1 #
vertex $-1 -1 -1 $-1 $407 $408 #
straight-curve $-1 -1 -1 $-1 1.5 0.45000000000000001 0.050000000000000003 0 0 -1000 I I #
edge $-1 -1 -1 $-1 $397 0 $184 0.00089999999999999998 $280 $409 forward @7 unknown F #
point $-1 -1 -1 $-1 1.5 0.45000000000000001 0 #
point $-1 -1 -1 $-1 1.5 1.25 0 #
rgb_color-st-attrib $-1 -1 $-1 $-1 $188 2 1 2 1 1 1 1 1 1 1 1 1 1 1 0 1 1 1 0 0 0 #
face $410 -1 -1 $-1 $411 $412 $19 $-1 $413 reversed single F F #
loop $-1 -1 -1 $-1 $414 $415 $188 F unknown #
plane-surface $-1 -1 -1 $-1 0 0 0.47499999999999998 0 0 -1 -1 0 0 forward_v I I I I #
coedge $-1 -1 -1 $-1 $416 $417 $418 $419 reversed $189 $-1 #
coedge $-1 -1 -1 $-1 $420 $191 $421 $422 forward $108 $-1 #
coedge $-1 -1 -1 $-1 $191 $420 $423 $424 forward $108 $-1 #
coedge $-1 -1 -1 $-1 $425 $426 $191 $307 reversed $427 $-1 #
edge $-1 -1 -1 $-1 $428 -0.00042500000000000003 $429 -9.9999999999999978e-005 $191 $430 forward @7 unknown F #
coedge $-1 -1 -1 $-1 $193 $192 $431 $432 forward $67 $-1 #
coedge $-1 -1 -1 $-1 $433 $434 $192 $310 reversed $435 $-1 #
edge $-1 -1 -1 $-1 $317 -0.002872 $436 -0.00019999999999999996 $192 $437 forward @7 unknown F #
coedge $-1 -1 -1 $-1 $438 $439 $193 $312 reversed $414 $-1 #
edge $-1 -1 -1 $-1 $440 0.00019999999999999996 $316 0.002872 $193 $441 forward @7 unknown F #
coedge $-1 -1 -1 $-1 $442 $194 $439 $443 reversed $315 $-1 #
coedge $-1 -1 -1 $-1 $194 $442 $444 $445 forward $315 $-1 #
loop $-1 -1 -1 $-1 $-1 $442 $446 F unknown #
vertex $-1 -1 -1 $-1 $443 $447 #
vertex $-1 -1 -1 $-1 $445 $448 #
straight-curve $-1 -1 -1 $-1 1.3360000000000001 -1.1859999999999999 0.90000000000000002 0 0 1000 I I #
coedge $-1 -1 -1 $-1 $449 $450 $196 $320 forward $451 $-1 #
edge $-1 -1 -1 $-1 $329 0 $324 1.5707963267948966 $196 $452 forward @7 unknown F #
coedge $-1 -1 -1 $-1 $453 $197 $202 $334 forward $323 $-1 #
coedge $-1 -1 -1 $-1 $197 $454 $449 $455 forward $323 $-1 #
loop $-1 -1 -1 $-1 $-1 $456 $457 F unknown #
vertex $-1 -1 -1 $-1 $455 $458 #
straight-curve $-1 -1 -1 $-1 0 1.0860000000000001 0.90000000000000002 -1000 0 0 I I #
coedge $-1 -1 -1 $-1 $459 $199 $460 $461 forward $328 $-1 #
coedge $-1 -1 -1 $-1 $199 $459 $462 $463 forward $328 $-1 #
loop $-1 -1 -1 $-1 $-1 $327 $464 F unknown #
vertex $-1 -1 -1 $-1 $465 $466 #
straight-curve $-1 -1 -1 $-1 -1.536 1.1859999999999999 0.80000000000000004 1000 0 0 I I #
coedge $-1 -1 -1 $-1 $202 $201 $467 $468 reversed $203 $-1 #
coedge $-1 -1 -1 $-1 $462 $469 $201 $333 forward $470 $-1 #
edge $-1 -1 -1 $-1 $471 -1.5707963267948966 $204 0 $332 $472 forward @7 unknown F #
edge $-1 -1 -1 $-1 $205 0 $473 1.5707963267948966 $321 $474 forward @7 unknown F #
face $475 -1 -1 $-1 $476 $203 $19 $-1 $477 forward single F F #
point $-1 -1 -1 $-1 -1.3360000000000001 1.1859999999999999 0.80000000000000004 #
point $-1 -1 -1 $-1 -1.3360000000000001 1.0860000000000001 0.90000000000000002 #
rgb_color-st-attrib $-1 -1 $-1 $-1 $208 2 1 2 1 1 1 1 1 1 1 1 1 1 1 0 1 1 1 0.75294117647059 0.75294117647059 0.75294117647059 #
plane-surface $-1 -1 -1 $-1 -1.05 0.84999999999999998 0 0 0 -1 -1 0 0 forward_v I I I I #
coedge $-1 -1 -1 $-1 $211 $224 $212 $342 forward $117 $-1 #
coedge $-1 -1 -1 $-1 $213 $212 $478 $479 reversed $72 $-1 #
edge $-1 -1 -1 $-1 $480 0 $343 5.0000000000000002e-005 $212 $481 forward @7 unknown F #
vertex $-1 -1 -1 $-1 $215 $482 #
straight-curve $-1 -1 -1 $-1 -1.5 0.45000000000000001 0 0 -1000 0 I I #
coedge $-1 -1 -1 $-1 $478 $220 $216 $346 forward $209 $-1 #
edge $-1 -1 -1 $-1 $222 -0.00089999999999999998 $347 0 $216 $483 forward @7 unknown F #
vertex $-1 -1 -1 $-1 $479 $484 #
straight-curve $-1 -1 -1 $-1 -1.5 1.25 0.050000000000000003 0 0 -1000 I I #
point $-1 -1 -1 $-1 -1.5 1.25 0 #
coedge $-1 -1 -1 $-1 $220 $478 $224 $353 forward $209 $-1 #
straight-curve $-1 -1 -1 $-1 -0.59999999999999998 0.45000000000000001 0.050000000000000003 0 1000 0 I I #
point $-1 -1 -1 $-1 -0.59999999999999998 1.25 0.050000000000000003 #
edge $-1 -1 -1 $-1 $480 0 $225 0.00089999999999999998 $224 $485 forward @7 unknown F #
point $-1 -1 -1 $-1 -0.59999999999999998 0.45000000000000001 0.050000000000000003 #
straight-curve $-1 -1 -1 $-1 -1.5 0.45000000000000001 0 1000 0 0 I I #
rgb_color-st-attrib $-1 -1 $-1 $-1 $231 2 1 2 1 1 1 1 1 1 1 1 1 1 1 0 1 1 1 0.75294117647059 0.75294117647059 0.75294117647059 #
plane-surface $-1 -1 -1 $-1 -1.05 -0.84999999999999998 0 0 0 -1 -1 0 0 forward_v I I I I #
coedge $-1 -1 -1 $-1 $234 $247 $235 $360 forward $135 $-1 #
coedge $-1 -1 -1 $-1 $236 $235 $486 $487 reversed $81 $-1 #
edge $-1 -1 -1 $-1 $488 0 $361 5.0000000000000002e-005 $235 $489 forward @7 unknown F #
vertex $-1 -1 -1 $-1 $238 $490 #
straight-curve $-1 -1 -1 $-1 -1.5 -1.25 0 0 -1000 0 I I #
coedge $-1 -1 -1 $-1 $486 $243 $239 $364 forward $232 $-1 #
edge $-1 -1 -1 $-1 $245 -0.00089999999999999998 $365 0 $239 $491 forward @7 unknown F #
vertex $-1 -1 -1 $-1 $487 $492 #
straight-curve $-1 -1 -1 $-1 -1.5 -0.45000000000000001 0.050000000000000003 0 0 -1000 I I #
point $-1 -1 -1 $-1 -1.5 -0.45000000000000001 0 #
coedge $-1 -1 -1 $-1 $243 $486 $247 $371 forward $232 $-1 #
straight-curve $-1 -1 -1 $-1 -0.59999999999999998 -1.25 0.050000000000000003 0 1000 0 I I #
point $-1 -1 -1 $-1 -0.59999999999999998 -0.45000000000000001 0.050000000000000003 #
edge $-1 -1 -1 $-1 $488 0 $248 0.00089999999999999998 $247 $493 forward @7 unknown F #
point $-1 -1 -1 $-1 -0.59999999999999998 -1.25 0.050000000000000003 #
straight-curve $-1 -1 -1 $-1 -1.5 -1.25 0 1000 0 0 I I #
rgb_color-st-attrib $-1 -1 $-1 $-1 $254 2 1 2 1 1 1 1 1 1 1 1 1 1 1 0 1 1 1 0.75294117647059 0.75294117647059 0.75294117647059 #
plane-surface $-1 -1 -1 $-1 1.05 -0.84999999999999998 0 0 0 -1 -1 0 0 forward_v I I I I #
coedge $-1 -1 -1 $-1 $257 $270 $258 $378 forward $153 $-1 #
coedge $-1 -1 -1 $-1 $259 $258 $494 $495 reversed $90 $-1 #
edge $-1 -1 -1 $-1 $496 0 $379 5.0000000000000002e-005 $258 $497 forward @7 unknown F #
vertex $-1 -1 -1 $-1 $261 $498 #
straight-curve $-1 -1 -1 $-1 0.59999999999999998 -1.25 0 0 -1000 0 I I #
coedge $-1 -1 -1 $-1 $494 $266 $262 $382 forward $255 $-1 #
edge $-1 -1 -1 $-1 $268 -0.00089999999999999998 $383 0 $262 $499 forward @7 unknown F #
vertex $-1 -1 -1 $-1 $495 $500 #
straight-curve $-1 -1 -1 $-1 0.59999999999999998 -0.45000000000000001 0.050000000000000003 0 0 -1000 I I #
point $-1 -1 -1 $-1 0.59999999999999998 -0.45000000000000001 0 #
coedge $-1 -1 -1 $-1 $266 $494 $270 $389 forward $255 $-1 #
straight-curve $-1 -1 -1 $-1 1.5 -1.25 0.050000000000000003 0 1000 0 I I #
point $-1 -1 -1 $-1 1.5 -0.45000000000000001 0.050000000000000003 #
edge $-1 -1 -1 $-1 $496 0 $271 0.00089999999999999998 $270 $501 forward @7 unknown F #
point $-1 -1 -1 $-1 1.5 -1.25 0.050000000000000003 #
straight-curve $-1 -1 -1 $-1 0.59999999999999998 -1.25 0 1000 0 0 I I #
rgb_color-st-attrib $-1 -1 $-1 $-1 $277 2 1 2 1 1 1 1 1 1 1 1 1 1 1 0 1 1 1 0.75294117647059 0.75294117647059 0.75294117647059 #
plane-surface $-1 -1 -1 $-1 1.05 0.84999999999999998 0 0 0 -1 -1 0 0 forward_v I I I I #
coedge $-1 -1 -1 $-1 $280 $293 $281 $396 forward $171 $-1 #
coedge $-1 -1 -1 $-1 $282 $281 $502 $503 reversed $99 $-1 #
edge $-1 -1 -1 $-1 $504 0 $397 5.0000000000000002e-005 $281 $505 forward @7 unknown F #
vertex $-1 -1 -1 $-1 $284 $506 #
straight-curve $-1 -1 -1 $-1 0.59999999999999998 0.45000000000000001 0 0 -1000 0 I I #
coedge $-1 -1 -1 $-1 $502 $289 $285 $400 forward $278 $-1 #
edge $-1 -1 -1 $-1 $291 -0.00089999999999999998 $401 0 $285 $507 forward @7 unknown F #
vertex $-1 -1 -1 $-1 $503 $508 #
straight-curve $-1 -1 -1 $-1 0.59999999999999998 1.25 0.050000000000000003 0 0 -1000 I I #
point $-1 -1 -1 $-1 0.59999999999999998 1.25 0 #
coedge $-1 -1 -1 $-1 $289 $502 $293 $407 forward $278 $-1 #
straight-curve $-1 -1 -1 $-1 1.5 0.45000000000000001 0.050000000000000003 0 1000 0 I I #
point $-1 -1 -1 $-1 1.5 1.25 0.050000000000000003 #
edge $-1 -1 -1 $-1 $504 0 $294 0.00089999999999999998 $293 $509 forward @7 unknown F #
point $-1 -1 -1 $-1 1.5 0.45000000000000001 0.050000000000000003 #
straight-curve $-1 -1 -1 $-1 0.59999999999999998 0.45000000000000001 0 1000 0 0 I I #
rgb_color-st-attrib $-1 -1 $-1 $-1 $300 2 1 2 1 1 1 1 1 1 1 1 1 1 1 0 1 1 1 0 0 0 #
face $510 -1 -1 $-1 $511 $512 $19 $-1 $513 reversed single F F #
loop $-1 -1 -1 $-1 $-1 $514 $300 F unknown #
plane-surface $-1 -1 -1 $-1 1.6000000000000001 -1.25 0.47499999999999998 -1 0 0 0 -0 1 forward_v I I I I #
loop $-1 -1 -1 $-1 $-1 $515 $188 F unknown #
coedge $-1 -1 -1 $-1 $516 $517 $518 $519 forward $301 $-1 #
coedge $-1 -1 -1 $-1 $520 $303 $521 $522 forward $189 $-1 #
coedge $-1 -1 -1 $-1 $303 $520 $523 $524 reversed $189 $-1 #
coedge $-1 -1 -1 $-1 $525 $525 $303 $419 forward $526 $-1 #
edge $-1 -1 -1 $-1 $527 0 $528 3.1415926535897931 $303 $529 forward @7 unknown F #
coedge $-1 -1 -1 $-1 $305 $304 $469 $530 forward $108 $-1 #
coedge $-1 -1 -1 $-1 $531 $467 $304 $422 reversed $532 $-1 #
edge $-1 -1 -1 $-1 $429 0.00019999999999999996 $471 0.0021719999999999999 $304 $533 forward @7 unknown F #
coedge $-1 -1 -1 $-1 $534 $438 $305 $424 reversed $414 $-1 #
edge $-1 -1 -1 $-1 $535 -0.0021719999999999999 $428 -0.00019999999999999996 $305 $536 forward @7 unknown F #
coedge $-1 -1 -1 $-1 $431 $306 $438 $537 reversed $427 $-1 #
coedge $-1 -1 -1 $-1 $306 $431 $538 $539 forward $427 $-1 #
loop $-1 -1 -1 $-1 $-1 $431 $540 F unknown #
vertex $-1 -1 -1 $-1 $537 $541 #
vertex $-1 -1 -1 $-1 $539 $542 #
straight-curve $-1 -1 -1 $-1 -1.536 -0.98599999999999999 0.90000000000000002 0 0 1000 I I #
coedge $-1 -1 -1 $-1 $426 $425 $308 $432 reversed $427 $-1 #
edge $-1 -1 -1 $-1 $436 9.9999999999999978e-005 $440 0.00042500000000000003 $308 $543 forward @7 unknown F #
coedge $-1 -1 -1 $-1 $544 $309 $545 $546 reversed $435 $-1 #
coedge $-1 -1 -1 $-1 $309 $544 $547 $548 forward $435 $-1 #
loop $-1 -1 -1 $-1 $-1 $434 $549 F unknown #
vertex $-1 -1 -1 $-1 $310 $550 #
straight-curve $-1 -1 -1 $-1 -1.536 -1.1859999999999999 0.80000000000000004 -1000 0 0 I I #
coedge $-1 -1 -1 $-1 $423 $311 $425 $537 forward $414 $-1 #
coedge $-1 -1 -1 $-1 $311 $515 $313 $443 forward $414 $-1 #
vertex $-1 -1 -1 $-1 $537 $551 #
straight-curve $-1 -1 -1 $-1 -1.536 -1.1859999999999999 0.47499999999999998 1000 0 0 I I #
coedge $-1 -1 -1 $-1 $314 $313 $552 $553 reversed $315 $-1 #
edge $-1 -1 -1 $-1 $554 1.5707963267948966 $316 3.1415926535897931 $439 $555 forward @7 unknown F #
coedge $-1 -1 -1 $-1 $556 $545 $314 $445 reversed $557 $-1 #
edge $-1 -1 -1 $-1 $558 1.5707963267948966 $317 3.1415926535897931 $314 $559 forward @7 unknown F #
face $560 -1 -1 $-1 $561 $315 $19 $-1 $562 forward single F F #
point $-1 -1 -1 $-1 1.3360000000000001 -1.1859999999999999 0.47499999999999998 #
point $-1 -1 -1 $-1 1.3360000000000001 -1.1859999999999999 0.80000000000000004 #
coedge $-1 -1 -1 $-1 $563 $319 $322 $455 reversed $451 $-1 #
coedge $-1 -1 -1 $-1 $319 $563 $564 $465 reversed $451 $-1 #
loop $-1 -1 -1 $-1 $-1 $319 $565 F unknown #
ellipse-curve $-1 -1 -1 $-1 1.3360000000000001 1.0860000000000001 0.80000000000000004 1 0 0 0 0.10000000000000001 0 1 I I #
coedge $-1 -1 -1 $-1 $566 $321 $567 $568 forward $323 $-1 #
coedge $-1 -1 -1 $-1 $322 $569 $570 $571 forward $323 $-1 #
edge $-1 -1 -1 $-1 $572 -1.5707963267948966 $324 0 $322 $573 forward @7 unknown F #
coedge $-1 -1 -1 $-1 $569 $566 $544 $574 forward $323 $-1 #
face $575 -1 -1 $-1 $576 $577 $19 $-1 $578 reversed single F F #
point $-1 -1 -1 $-1 1.3360000000000001 1.0860000000000001 0.90000000000000002 #
coedge $-1 -1 -1 $-1 $327 $326 $579 $580 forward $328 $-1 #
coedge $-1 -1 -1 $-1 $564 $581 $326 $461 reversed $582 $-1 #
edge $-1 -1 -1 $-1 $329 9.9999999999999978e-005 $583 0.00042500000000000003 $326 $584 forward @7 unknown F #
coedge $-1 -1 -1 $-1 $585 $332 $327 $463 reversed $470 $-1 #
edge $-1 -1 -1 $-1 $586 -0.00042500000000000003 $204 -9.9999999999999978e-005 $327 $587 forward @7 unknown F #
face $588 -1 -1 $-1 $457 $328 $19 $-1 $589 reversed single F F #
edge $-1 -1 -1 $-1 $329 0 $590 1.5707963267948966 $564 $591 forward @7 unknown F #
point $-1 -1 -1 $-1 1.3360000000000001 1.1859999999999999 0.80000000000000004 #
coedge $-1 -1 -1 $-1 $421 $567 $331 $468 forward $532 $-1 #
edge $-1 -1 -1 $-1 $473 1.5707963267948966 $471 3.1415926535897931 $331 $592 forward @7 unknown F #
coedge $-1 -1 -1 $-1 $332 $585 $420 $530 reversed $470 $-1 #
loop $-1 -1 -1 $-1 $-1 $469 $561 F unknown #
vertex $-1 -1 -1 $-1 $422 $593 #
ellipse-curve $-1 -1 -1 $-1 -1.3360000000000001 0.98599999999999999 0.80000000000000004 0 0 -1 0 0.20000000000000001 0 1 I I #
vertex $-1 -1 -1 $-1 $568 $594 #
ellipse-curve $-1 -1 -1 $-1 -1.3360000000000001 0.98599999999999999 0.90000000000000002 0 0 1 0 0.10000000000000001 -0 1 I I #
rgb_color-st-attrib $-1 -1 $-1 $-1 $335 2 1 2 1 1 1 1 1 1 1 1 1 1 1 0 1 1 1 0.75294117647059 0.75294117647059 0.75294117647059 #
face $595 -1 -1 $-1 $596 $532 $19 $-1 $597 forward single F F #
torus-surface $-1 -1 -1 $-1 -1.3360000000000001 0.98599999999999999 0.80000000000000004 0 0 -1 0.10000000000000001 0.10000000000000001 -1 0 0 forward_v I I I I #
coedge $-1 -1 -1 $-1 $350 $345 $341 $479 forward $209 $-1 #
edge $-1 -1 -1 $-1 $347 -0.00080000000000000004 $480 0 $341 $598 forward @7 unknown F #
vertex $-1 -1 -1 $-1 $353 $599 #
straight-curve $-1 -1 -1 $-1 -1.5 0.45000000000000001 0.050000000000000003 0 0 -1000 I I #
point $-1 -1 -1 $-1 -1.5 0.45000000000000001 0 #
straight-curve $-1 -1 -1 $-1 -1.5 1.25 0.050000000000000003 -1000 0 0 I I #
point $-1 -1 -1 $-1 -1.5 1.25 0.050000000000000003 #
straight-curve $-1 -1 -1 $-1 -1.5 0.45000000000000001 0.050000000000000003 1000 0 0 I I #
coedge $-1 -1 -1 $-1 $368 $363 $359 $487 forward $232 $-1 #
edge $-1 -1 -1 $-1 $365 -0.00080000000000000004 $488 0 $359 $600 forward @7 unknown F #
vertex $-1 -1 -1 $-1 $371 $601 #
straight-curve $-1 -1 -1 $-1 -1.5 -1.25 0.050000000000000003 0 0 -1000 I I #
point $-1 -1 -1 $-1 -1.5 -1.25 0 #
straight-curve $-1 -1 -1 $-1 -1.5 -0.45000000000000001 0.050000000000000003 -1000 0 0 I I #
point $-1 -1 -1 $-1 -1.5 -0.45000000000000001 0.050000000000000003 #
straight-curve $-1 -1 -1 $-1 -1.5 -1.25 0.050000000000000003 1000 0 0 I I #
coedge $-1 -1 -1 $-1 $386 $381 $377 $495 forward $255 $-1 #
edge $-1 -1 -1 $-1 $383 -0.00080000000000000004 $496 0 $377 $602 forward @7 unknown F #
vertex $-1 -1 -1 $-1 $389 $603 #
straight-curve $-1 -1 -1 $-1 0.59999999999999998 -1.25 0.050000000000000003 0 0 -1000 I I #
point $-1 -1 -1 $-1 0.59999999999999998 -1.25 0 #
straight-curve $-1 -1 -1 $-1 0.59999999999999998 -0.45000000000000001 0.050000000000000003 -1000 0 0 I I #
point $-1 -1 -1 $-1 0.59999999999999998 -0.45000000000000001 0.050000000000000003 #
straight-curve $-1 -1 -1 $-1 0.59999999999999998 -1.25 0.050000000000000003 1000 0 0 I I #
coedge $-1 -1 -1 $-1 $404 $399 $395 $503 forward $278 $-1 #
edge $-1 -1 -1 $-1 $401 -0.00080000000000000004 $504 0 $395 $604 forward @7 unknown F #
vertex $-1 -1 -1 $-1 $407 $605 #
straight-curve $-1 -1 -1 $-1 0.59999999999999998 0.45000000000000001 0.050000000000000003 0 0 -1000 I I #
point $-1 -1 -1 $-1 0.59999999999999998 0.45000000000000001 0 #
straight-curve $-1 -1 -1 $-1 0.59999999999999998 1.25 0.050000000000000003 -1000 0 0 I I #
point $-1 -1 -1 $-1 0.59999999999999998 1.25 0.050000000000000003 #
straight-curve $-1 -1 -1 $-1 0.59999999999999998 0.45000000000000001 0.050000000000000003 1000 0 0 I I #
rgb_color-st-attrib $-1 -1 $-1 $-1 $411 2 1 2 1 1 1 1 1 1 1 1 1 1 1 0 1 1 1 0 0 0 #
face $606 -1 -1 $-1 $607 $608 $19 $-1 $609 reversed single F F #
loop $-1 -1 -1 $-1 $-1 $610 $411 F unknown #
plane-surface $-1 -1 -1 $-1 -1.6000000000000001 1.25 0.47499999999999998 0 -1 0 0 0 -1 forward_v I I I I #
coedge $-1 -1 -1 $-1 $611 $612 $613 $614 forward $412 $-1 #
coedge $-1 -1 -1 $-1 $439 $615 $616 $617 reversed $414 $-1 #
coedge $-1 -1 -1 $-1 $618 $415 $619 $620 forward $301 $-1 #
coedge $-1 -1 -1 $-1 $415 $618 $621 $622 forward $301 $-1 #
coedge $-1 -1 -1 $-1 $612 $611 $415 $519 reversed $412 $-1 #
edge $-1 -1 -1 $-1 $623 0 $624 0.0025000000000000001 $415 $625 forward @7 unknown F #
coedge $-1 -1 -1 $-1 $417 $416 $626 $627 reversed $189 $-1 #
coedge $-1 -1 -1 $-1 $628 $629 $416 $522 reversed $630 $-1 #
edge $-1 -1 -1 $-1 $527 0 $631 1.5707963267948966 $416 $632 forward @7 unknown F #
coedge $-1 -1 -1 $-1 $629 $628 $417 $524 forward $630 $-1 #
edge $-1 -1 -1 $-1 $528 0 $633 1.5707963267948966 $417 $634 forward @7 unknown F #
coedge $-1 -1 -1 $-1 $418 $418 $628 $635 forward $526 $-1 #
loop $-1 -1 -1 $-1 $-1 $525 $636 F unknown #
vertex $-1 -1 -1 $-1 $635 $637 #
vertex $-1 -1 -1 $-1 $524 $638 #
ellipse-curve $-1 -1 -1 $-1 -1.1234999999999999 0.77349999999999997 0.8609 0 0 1 0 -0.1953 0 1 I I #
edge $-1 -1 -1 $-1 $471 9.9999999999999978e-005 $535 0.00042500000000000003 $420 $639 forward @7 unknown F #
coedge $-1 -1 -1 $-1 $567 $421 $640 $641 reversed $532 $-1 #
loop $-1 -1 -1 $-1 $-1 $467 $476 F unknown #
straight-curve $-1 -1 -1 $-1 -1.536 -1.1859999999999999 0.80000000000000004 0 1000 0 I I #
coedge $-1 -1 -1 $-1 $579 $423 $585 $642 forward $414 $-1 #
vertex $-1 -1 -1 $-1 $642 $643 #
straight-curve $-1 -1 -1 $-1 -1.536 -1.1859999999999999 0.47499999999999998 0 -1000 0 I I #
edge $-1 -1 -1 $-1 $440 -3.1415926535897931 $428 -1.5707963267948966 $438 $644 forward @7 unknown F #
coedge $-1 -1 -1 $-1 $547 $640 $426 $539 reversed $645 $-1 #
edge $-1 -1 -1 $-1 $436 -3.1415926535897931 $429 -1.5707963267948966 $426 $646 forward @7 unknown F #
face $647 -1 -1 $-1 $636 $427 $19 $-1 $648 forward single F F #
point $-1 -1 -1 $-1 -1.536 -0.98599999999999999 0.47499999999999998 #
point $-1 -1 -1 $-1 -1.536 -0.98599999999999999 0.80000000000000004 #
straight-curve $-1 -1 -1 $-1 -1.3360000000000001 -1.1859999999999999 0.90000000000000002 0 0 -1000 I I #
coedge $-1 -1 -1 $-1 $434 $433 $456 $574 reversed $435 $-1 #
coedge $-1 -1 -1 $-1 $444 $649 $433 $546 forward $557 $-1 #
edge $-1 -1 -1 $-1 $650 1.5707963267948966 $317 3.1415926535897931 $433 $651 forward @7 unknown F #
coedge $-1 -1 -1 $-1 $652 $538 $434 $548 reversed $645 $-1 #
edge $-1 -1 -1 $-1 $653 1.5707963267948966 $436 3.1415926535897931 $547 $654 forward @7 unknown F #
face $655 -1 -1 $-1 $656 $435 $19 $-1 $657 forward single F F #
point $-1 -1 -1 $-1 -1.3360000000000001 -1.1859999999999999 0.80000000000000004 #
point $-1 -1 -1 $-1 -1.3360000000000001 -1.1859999999999999 0.47499999999999998 #
coedge $-1 -1 -1 $-1 $616 $658 $442 $553 forward $659 $-1 #
edge $-1 -1 -1 $-1 $558 9.9999999999999978e-005 $554 0.00042500000000000003 $552 $660 forward @7 unknown F #
vertex $-1 -1 -1 $-1 $443 $661 #
ellipse-curve $-1 -1 -1 $-1 1.3360000000000001 -0.98599999999999999 0.47499999999999998 0 0 -1 0 0.20000000000000001 0 1 I I #
coedge $-1 -1 -1 $-1 $649 $444 $662 $663 forward $557 $-1 #
loop $-1 -1 -1 $-1 $-1 $545 $664 F unknown #
vertex $-1 -1 -1 $-1 $663 $665 #
ellipse-curve $-1 -1 -1 $-1 1.3360000000000001 -0.98599999999999999 0.80000000000000004 0 0 -1 0 0.20000000000000001 0 1 I I #
rgb_color-st-attrib $-1 -1 $-1 $-1 $446 2 1 2 1 1 1 1 1 1 1 1 1 1 1 0 1 1 1 0.75294117647059 0.75294117647059 0.75294117647059 #
face $666 -1 -1 $-1 $540 $470 $19 $-1 $667 forward single F F #
cone-surface $-1 -1 -1 $-1 1.3360000000000001 -0.98599999999999999 0.90000000000000002 0 0 -1 0 0.20000000000000001 0 1 I I 0 1 0.20000000000000001 forward I I I I #
coedge $-1 -1 -1 $-1 $450 $449 $668 $669 reversed $451 $-1 #
coedge $-1 -1 -1 $-1 $670 $460 $450 $465 forward $582 $-1 #
face $671 -1 -1 $-1 $549 $451 $19 $-1 $672 forward single F F #
coedge $-1 -1 -1 $-1 $456 $453 $652 $673 forward $323 $-1 #
coedge $-1 -1 -1 $-1 $467 $531 $453 $568 reversed $532 $-1 #
edge $-1 -1 -1 $-1 $473 -0.0009859999999999999 $674 0.0009859999999999999 $453 $675 forward @7 unknown F #
coedge $-1 -1 -1 $-1 $454 $456 $649 $676 forward $323 $-1 #
coedge $-1 -1 -1 $-1 $662 $668 $454 $571 reversed $677 $-1 #
edge $-1 -1 -1 $-1 $678 -0.0009859999999999999 $572 0.0009859999999999999 $454 $679 forward @7 unknown F #
vertex $-1 -1 -1 $-1 $571 $680 #
ellipse-curve $-1 -1 -1 $-1 1.3360000000000001 0.98599999999999999 0.90000000000000002 0 0 1 0 0.10000000000000001 -0 1 I I #
edge $-1 -1 -1 $-1 $653 -0.0013360000000000002 $650 0.0013360000000000002 $456 $681 forward @7 unknown F #
rgb_color-st-attrib $-1 -1 $-1 $-1 $457 2 1 2 1 1 1 1 1 1 1 1 1 1 1 0 1 1 1 0.75294117647059 0.75294117647059 0.75294117647059 #
face $682 -1 -1 $-1 $446 $582 $19 $-1 $683 forward single F F #
loop $-1 -1 -1 $-1 $323 $626 $457 F unknown #
plane-surface $-1 -1 -1 $-1 0 0 0.90000000000000002 0 0 -1 -1 0 0 forward_v I I I I #
coedge $-1 -1 -1 $-1 $615 $534 $459 $580 reversed $414 $-1 #
edge $-1 -1 -1 $-1 $583 -0.002872 $586 -0.00019999999999999996 $579 $684 forward @7 unknown F #
coedge $-1 -1 -1 $-1 $460 $670 $615 $685 reversed $582 $-1 #
loop $-1 -1 -1 $-1 $-1 $460 $576 F unknown #
vertex $-1 -1 -1 $-1 $685 $686 #
straight-curve $-1 -1 -1 $-1 1.3360000000000001 1.1859999999999999 0.90000000000000002 0 0 -1000 I I #
coedge $-1 -1 -1 $-1 $469 $462 $534 $642 reversed $470 $-1 #
vertex $-1 -1 -1 $-1 $642 $687 #
straight-curve $-1 -1 -1 $-1 -1.3360000000000001 1.1859999999999999 0.90000000000000002 0 0 1000 I I #
rgb_color-st-attrib $-1 -1 $-1 $-1 $464 2 1 2 1 1 1 1 1 1 1 1 1 1 1 0 1 1 1 0.75294117647059 0.75294117647059 0.75294117647059 #
plane-surface $-1 -1 -1 $-1 -1.536 1.1859999999999999 0.90000000000000002 0 -1 0 0 0 -1 forward_v I I I I #
vertex $-1 -1 -1 $-1 $688 $689 #
ellipse-curve $-1 -1 -1 $-1 1.3360000000000001 0.98599999999999999 0.80000000000000004 0 0 -1 0 0.20000000000000001 0 1 I I #
ellipse-curve $-1 -1 -1 $-1 -1.4359999999999999 0.98599999999999999 0.80000000000000004 0 -1 0 0.10000000000000001 0 0 1 I I #
point $-1 -1 -1 $-1 -1.536 0.98599999999999999 0.80000000000000004 #
point $-1 -1 -1 $-1 -1.4359999999999999 0.98599999999999999 0.90000000000000002 #
rgb_color-st-attrib $-1 -1 $-1 $-1 $476 2 1 2 1 1 1 1 1 1 1 1 1 1 1 0 1 1 1 0.75294117647059 0.75294117647059 0.75294117647059 #
face $690 -1 -1 $-1 $565 $645 $19 $-1 $691 forward single F F #
cone-surface $-1 -1 -1 $-1 -1.4359999999999999 0 0.80000000000000004 0 -1 0 0.10000000000000001 0 0 1 I I 0 1 0.10000000000000001 forward I I I I #
straight-curve $-1 -1 -1 $-1 -1.5 0.45000000000000001 0.050000000000000003 0 -1000 0 I I #
point $-1 -1 -1 $-1 -1.5 0.45000000000000001 0.050000000000000003 #
straight-curve $-1 -1 -1 $-1 -1.5 -1.25 0.050000000000000003 0 -1000 0 I I #
point $-1 -1 -1 $-1 -1.5 -1.25 0.050000000000000003 #
straight-curve $-1 -1 -1 $-1 0.59999999999999998 -1.25 0.050000000000000003 0 -1000 0 I I #
point $-1 -1 -1 $-1 0.59999999999999998 -1.25 0.050000000000000003 #
straight-curve $-1 -1 -1 $-1 0.59999999999999998 0.45000000000000001 0.050000000000000003 0 -1000 0 I I #
point $-1 -1 -1 $-1 0.59999999999999998 0.45000000000000001 0.050000000000000003 #
rgb_color-st-attrib $-1 -1 $-1 $-1 $511 2 1 2 1 1 1 1 1 1 1 1 1 1 1 0 1 1 1 0 0 0 #
face $692 -1 -1 $-1 $693 $694 $19 $-1 $695 reversed single F F #
loop $-1 -1 -1 $-1 $-1 $696 $511 F unknown #
plane-surface $-1 -1 -1 $-1 -1.6000000000000001 -1.25 0.47499999999999998 1 0 0 0 0 -1 forward_v I I I I #
coedge $-1 -1 -1 $-1 $697 $698 $699 $700 forward $512 $-1 #
coedge $-1 -1 -1 $-1 $518 $514 $698 $701 reversed $412 $-1 #
coedge $-1 -1 -1 $-1 $514 $518 $702 $703 forward $412 $-1 #
coedge $-1 -1 -1 $-1 $704 $699 $514 $614 reversed $705 $-1 #
edge $-1 -1 -1 $-1 $706 0 $707 0.0025000000000000001 $514 $708 forward @7 unknown F #
coedge $-1 -1 -1 $-1 $515 $579 $581 $685 forward $414 $-1 #
coedge $-1 -1 -1 $-1 $709 $552 $515 $617 forward $659 $-1 #
edge $-1 -1 -1 $-1 $554 0.00019999999999999996 $710 0.0021719999999999999 $515 $711 forward @7 unknown F #
coedge $-1 -1 -1 $-1 $517 $516 $712 $713 forward $301 $-1 #
coedge $-1 -1 -1 $-1 $698 $697 $516 $620 reversed $512 $-1 #
edge $-1 -1 -1 $-1 $624 -0.0032000000000000002 $714 0 $516 $715 forward @7 unknown F #
coedge $-1 -1 -1 $-1 $716 $702 $517 $622 reversed $694 $-1 #
edge $-1 -1 -1 $-1 $717 0 $623 0.0032000000000000002 $517 $718 forward @7 unknown F #
vertex $-1 -1 -1 $-1 $622 $719 #
vertex $-1 -1 -1 $-1 $701 $720 #
straight-curve $-1 -1 -1 $-1 1.6000000000000001 -1.25 0.47499999999999998 0 1000 0 I I #
coedge $-1 -1 -1 $-1 $721 $721 $520 $627 forward $577 $-1 #
edge $-1 -1 -1 $-1 $633 0 $631 3.1415926535897931 $520 $722 forward @7 unknown F #
coedge $-1 -1 -1 $-1 $523 $521 $525 $635 reversed $630 $-1 #
coedge $-1 -1 -1 $-1 $521 $523 $721 $723 reversed $630 $-1 #
loop $-1 -1 -1 $-1 $-1 $521 $724 F unknown #
vertex $-1 -1 -1 $-1 $723 $725 #
ellipse-curve $-1 -1 -1 $-1 -1.1234999999999999 0.53910000000000002 0.8609 1 0 0 0 0.039100000000000003 0 1 I I #
vertex $-1 -1 -1 $-1 $723 $726 #
ellipse-curve $-1 -1 -1 $-1 -1.1234999999999999 1.0079 0.8609 -1 0 0 0 -0.039100000000000003 0 1 I I #
edge $-1 -1 -1 $-1 $528 -3.1415926535897931 $527 0 $525 $727 forward @7 unknown F #
face $728 -1 -1 $-1 $335 $526 $19 $-1 $729 forward single F F #
point $-1 -1 -1 $-1 -1.1234999999999999 0.57820000000000005 0.8609 #
point $-1 -1 -1 $-1 -1.1234999999999999 0.96879999999999999 0.8609 #
straight-curve $-1 -1 -1 $-1 -1.536 0.98599999999999999 0.90000000000000002 0 0 -1000 I I #
coedge $-1 -1 -1 $-1 $538 $652 $531 $641 forward $645 $-1 #
edge $-1 -1 -1 $-1 $674 1.5707963267948966 $429 3.1415926535897931 $531 $730 forward @7 unknown F #
edge $-1 -1 -1 $-1 $535 -1.5707963267948966 $586 0 $534 $731 forward @7 unknown F #
point $-1 -1 -1 $-1 -1.536 0.98599999999999999 0.47499999999999998 #
ellipse-curve $-1 -1 -1 $-1 -1.3360000000000001 -0.98599999999999999 0.47499999999999998 0 0 -1 0 0.20000000000000001 0 1 I I #
loop $-1 -1 -1 $-1 $-1 $640 $596 F unknown #
ellipse-curve $-1 -1 -1 $-1 -1.3360000000000001 -0.98599999999999999 0.80000000000000004 0 0 -1 0 0.20000000000000001 0 1 I I #
rgb_color-st-attrib $-1 -1 $-1 $-1 $540 2 1 2 1 1 1 1 1 1 1 1 1 1 1 0 1 1 1 0.75294117647059 0.75294117647059 0.75294117647059 #
cone-surface $-1 -1 -1 $-1 -1.3360000000000001 -0.98599999999999999 0.90000000000000002 0 0 -1 0 0.20000000000000001 0 1 I I 0 1 0.20000000000000001 forward I I I I #
coedge $-1 -1 -1 $-1 $545 $556 $569 $676 reversed $557 $-1 #
vertex $-1 -1 -1 $-1 $676 $732 #
ellipse-curve $-1 -1 -1 $-1 1.3360000000000001 -1.0860000000000001 0.80000000000000004 1 0 0 0 0.10000000000000001 0 1 I I #
coedge $-1 -1 -1 $-1 $640 $547 $566 $673 reversed $645 $-1 #
vertex $-1 -1 -1 $-1 $574 $733 #
ellipse-curve $-1 -1 -1 $-1 -1.3360000000000001 -1.0860000000000001 0.80000000000000004 1 0 0 0 0.10000000000000001 0 1 I I #
rgb_color-st-attrib $-1 -1 $-1 $-1 $549 2 1 2 1 1 1 1 1 1 1 1 1 1 1 0 1 1 1 0.75294117647059 0.75294117647059 0.75294117647059 #
face $734 -1 -1 $-1 $664 $677 $19 $-1 $735 forward single F F #
cone-surface $-1 -1 -1 $-1 0 -1.0860000000000001 0.80000000000000004 1 0 0 -0 0.10000000000000001 0 1 I I 0 1 0.10000000000000001 forward I I I I #
coedge $-1 -1 -1 $-1 $552 $709 $736 $688 forward $659 $-1 #
loop $-1 -1 -1 $-1 $-1 $709 $737 F unknown #
straight-curve $-1 -1 -1 $-1 1.536 -0.98599999999999999 0.90000000000000002 0 0 -1000 I I #
point $-1 -1 -1 $-1 1.536 -0.98599999999999999 0.47499999999999998 #
coedge $-1 -1 -1 $-1 $736 $570 $556 $663 reversed $677 $-1 #
edge $-1 -1 -1 $-1 $558 0 $678 1.5707963267948966 $662 $738 forward @7 unknown F #
face $739 -1 -1 $-1 $724 $557 $19 $-1 $740 forward single F F #
point $-1 -1 -1 $-1 1.536 -0.98599999999999999 0.80000000000000004 #
rgb_color-st-attrib $-1 -1 $-1 $-1 $561 2 1 2 1 1 1 1 1 1 1 1 1 1 1 0 1 1 1 0.75294117647059 0.75294117647059 0.75294117647059 #
cone-surface $-1 -1 -1 $-1 -1.3360000000000001 0.98599999999999999 0.90000000000000002 0 0 -1 0 0.20000000000000001 0 1 I I 0 1 0.20000000000000001 forward I I I I #
coedge $-1 -1 -1 $-1 $570 $736 $563 $669 forward $677 $-1 #
edge $-1 -1 -1 $-1 $590 0 $572 1.5707963267948966 $563 $741 forward @7 unknown F #
coedge $-1 -1 -1 $-1 $581 $564 $709 $742 reversed $582 $-1 #
rgb_color-st-attrib $-1 -1 $-1 $-1 $565 2 1 2 1 1 1 1 1 1 1 1 1 1 1 0 1 1 1 0.75294117647059 0.75294117647059 0.75294117647059 #
torus-surface $-1 -1 -1 $-1 1.3360000000000001 0.98599999999999999 0.80000000000000004 0 0 -1 0.10000000000000001 0.10000000000000001 -1 0 0 forward_v I I I I #
edge $-1 -1 -1 $-1 $674 1.5707963267948966 $653 3.1415926535897931 $566 $743 forward @7 unknown F #
vertex $-1 -1 -1 $-1 $673 $744 #
straight-curve $-1 -1 -1 $-1 -1.4359999999999999 0 0.90000000000000002 0 -1000 0 I I #
edge $-1 -1 -1 $-1 $650 -3.1415926535897931 $678 -1.5707963267948966 $569 $745 forward @7 unknown F #
loop $-1 -1 -1 $-1 $-1 $668 $656 F unknown #
vertex $-1 -1 -1 $-1 $676 $746 #
straight-curve $-1 -1 -1 $-1 1.4359999999999999 0 0.90000000000000002 0 1000 0 I I #
point $-1 -1 -1 $-1 1.4359999999999999 0.98599999999999999 0.90000000000000002 #
straight-curve $-1 -1 -1 $-1 0 -1.0860000000000001 0.90000000000000002 1000 0 0 I I #
rgb_color-st-attrib $-1 -1 $-1 $-1 $576 2 1 2 1 1 1 1 1 1 1 1 1 1 1 0 1 1 1 0.75294117647059 0.75294117647059 0.75294117647059 #
cone-surface $-1 -1 -1 $-1 1.3360000000000001 0.98599999999999999 0.90000000000000002 0 0 -1 0 0.20000000000000001 0 1 I I 0 1 0.20000000000000001 forward I I I I #
straight-curve $-1 -1 -1 $-1 -1.536 1.1859999999999999 0.47499999999999998 -1000 0 0 I I #
edge $-1 -1 -1 $-1 $583 0 $710 1.5707963267948966 $615 $747 forward @7 unknown F #
point $-1 -1 -1 $-1 1.3360000000000001 1.1859999999999999 0.47499999999999998 #
point $-1 -1 -1 $-1 -1.3360000000000001 1.1859999999999999 0.47499999999999998 #
edge $-1 -1 -1 $-1 $590 -0.0021719999999999999 $558 -0.00019999999999999996 $658 $748 forward @7 unknown F #
point $-1 -1 -1 $-1 1.536 0.98599999999999999 0.80000000000000004 #
rgb_color-st-attrib $-1 -1 $-1 $-1 $596 2 1 2 1 1 1 1 1 1 1 1 1 1 1 0 1 1 1 0.75294117647059 0.75294117647059 0.75294117647059 #
torus-surface $-1 -1 -1 $-1 -1.3360000000000001 -0.98599999999999999 0.80000000000000004 0 0 -1 0.10000000000000001 0.10000000000000001 -1 0 0 forward_v I I I I #
rgb_color-st-attrib $-1 -1 $-1 $-1 $607 2 1 2 1 1 1 1 1 1 1 1 1 1 1 0 1 1 1 0 0 0 #
face $749 -1 -1 $-1 $737 $705 $19 $-1 $750 forward single F F #
loop $-1 -1 -1 $-1 $-1 $751 $607 F unknown #
plane-surface $-1 -1 -1 $-1 -1.6000000000000001 -1.25 0.47499999999999998 0 1 0 0 0 1 forward_v I I I I #
coedge $-1 -1 -1 $-1 $752 $753 $754 $755 forward $608 $-1 #
coedge $-1 -1 -1 $-1 $619 $610 $753 $756 reversed $512 $-1 #
coedge $-1 -1 -1 $-1 $610 $619 $611 $701 forward $512 $-1 #
coedge $-1 -1 -1 $-1 $613 $754 $610 $700 reversed $705 $-1 #
edge $-1 -1 -1 $-1 $707 -0.0032000000000000002 $757 0 $610 $758 forward @7 unknown F #
edge $-1 -1 -1 $-1 $624 0 $707 0.00042499999999999998 $611 $759 forward @7 unknown F #
coedge $-1 -1 -1 $-1 $621 $751 $612 $703 reversed $694 $-1 #
edge $-1 -1 -1 $-1 $623 0 $706 0.00042499999999999998 $612 $760 forward @7 unknown F #
coedge $-1 -1 -1 $-1 $754 $613 $751 $761 reversed $705 $-1 #
loop $-1 -1 -1 $-1 $-1 $613 $693 F unknown #
vertex $-1 -1 -1 $-1 $761 $762 #
vertex $-1 -1 -1 $-1 $700 $763 #
straight-curve $-1 -1 -1 $-1 1.6000000000000001 -1.25 0.050000000000000003 0 1000 0 I I #
coedge $-1 -1 -1 $-1 $658 $616 $670 $742 forward $659 $-1 #
vertex $-1 -1 -1 $-1 $685 $764 #
straight-curve $-1 -1 -1 $-1 1.536 -1.1859999999999999 0.47499999999999998 0 1000 0 I I #
coedge $-1 -1 -1 $-1 $753 $752 $618 $713 reversed $608 $-1 #
edge $-1 -1 -1 $-1 $714 -0.0025000000000000001 $717 0 $618 $765 forward @7 unknown F #
vertex $-1 -1 -1 $-1 $756 $766 #
straight-curve $-1 -1 -1 $-1 -1.6000000000000001 1.25 0.47499999999999998 -1000 0 0 I I #
coedge $-1 -1 -1 $-1 $751 $621 $752 $767 forward $694 $-1 #
vertex $-1 -1 -1 $-1 $767 $768 #
straight-curve $-1 -1 -1 $-1 -1.6000000000000001 -1.25 0.47499999999999998 1000 0 0 I I #
point $-1 -1 -1 $-1 1.6000000000000001 -1.25 0.47499999999999998 #
point $-1 -1 -1 $-1 1.6000000000000001 1.25 0.47499999999999998 #
coedge $-1 -1 -1 $-1 $626 $626 $629 $723 forward $577 $-1 #
ellipse-curve $-1 -1 -1 $-1 -1.1234999999999999 0.77349999999999997 0.90000000000000002 0 0 -1 0 0.2344 0 1 I I #
edge $-1 -1 -1 $-1 $631 -3.1415926535897931 $633 0 $721 $769 forward @7 unknown F #
face $770 -1 -1 $-1 $-1 $630 $19 $-1 $771 forward single F F #
point $-1 -1 -1 $-1 -1.1234999999999999 0.53910000000000002 0.90000000000000002 #
point $-1 -1 -1 $-1 -1.1234999999999999 1.0079 0.90000000000000002 #
ellipse-curve $-1 -1 -1 $-1 -1.1234999999999999 0.77349999999999997 0.8609 0 0 1 0 -0.1953 0 1 I I #
rgb_color-st-attrib $-1 -1 $-1 $-1 $636 2 1 2 1 1 1 1 1 1 1 1 1 1 1 0 1 1 1 0.75294117647059 0.75294117647059 0.75294117647059 #
plane-surface $-1 -1 -1 $-1 -1.1234999999999999 0.77349999999999997 0.8609 0 0 1 1 0 0 forward_v I I I I #
ellipse-curve $-1 -1 -1 $-1 -1.4359999999999999 -0.98599999999999999 0.80000000000000004 0 -1 0 0.10000000000000001 0 0 1 I I #
ellipse-curve $-1 -1 -1 $-1 -1.3360000000000001 0.98599999999999999 0.47499999999999998 0 0 -1 0 0.20000000000000001 0 1 I I #
point $-1 -1 -1 $-1 1.3360000000000001 -1.0860000000000001 0.90000000000000002 #
point $-1 -1 -1 $-1 -1.3360000000000001 -1.0860000000000001 0.90000000000000002 #
rgb_color-st-attrib $-1 -1 $-1 $-1 $656 2 1 2 1 1 1 1 1 1 1 1 1 1 1 0 1 1 1 0.75294117647059 0.75294117647059 0.75294117647059 #
cone-surface $-1 -1 -1 $-1 1.4359999999999999 0 0.80000000000000004 0 1 0 -0.10000000000000001 0 0 1 I I 0 1 0.10000000000000001 forward I I I I #
coedge $-1 -1 -1 $-1 $668 $662 $658 $688 reversed $677 $-1 #
face $772 -1 -1 $-1 $464 $659 $19 $-1 $773 reversed single F F #
ellipse-curve $-1 -1 -1 $-1 1.4359999999999999 -0.98599999999999999 0.80000000000000004 0 -1 0 0.10000000000000001 0 0 1 I I #
rgb_color-st-attrib $-1 -1 $-1 $-1 $664 2 1 2 1 1 1 1 1 1 1 1 1 1 1 0 1 1 1 0.75294117647059 0.75294117647059 0.75294117647059 #
torus-surface $-1 -1 -1 $-1 1.3360000000000001 -0.98599999999999999 0.80000000000000004 0 0 -1 0.10000000000000001 0.10000000000000001 -1 0 0 forward_v I I I I #
ellipse-curve $-1 -1 -1 $-1 1.4359999999999999 0.98599999999999999 0.80000000000000004 0 -1 0 0.10000000000000001 0 0 1 I I #
edge $-1 -1 -1 $-1 $710 -0.00042500000000000003 $590 -9.9999999999999978e-005 $709 $774 forward @7 unknown F #
ellipse-curve $-1 -1 -1 $-1 -1.3360000000000001 -0.98599999999999999 0.90000000000000002 0 0 1 0 0.10000000000000001 -0 1 I I #
point $-1 -1 -1 $-1 -1.4359999999999999 -0.98599999999999999 0.90000000000000002 #
ellipse-curve $-1 -1 -1 $-1 1.3360000000000001 -0.98599999999999999 0.90000000000000002 0 0 1 0 0.10000000000000001 -0 1 I I #
point $-1 -1 -1 $-1 1.4359999999999999 -0.98599999999999999 0.90000000000000002 #
ellipse-curve $-1 -1 -1 $-1 1.3360000000000001 0.98599999999999999 0.47499999999999998 0 0 -1 0 0.20000000000000001 0 1 I I #
straight-curve $-1 -1 -1 $-1 1.536 -1.1859999999999999 0.80000000000000004 0 -1000 0 I I #
rgb_color-st-attrib $-1 -1 $-1 $-1 $693 2 1 2 1 1 1 1 1 1 1 1 1 1 1 0 1 1 1 0 0 0 #
plane-surface $-1 -1 -1 $-1 0 0 0.050000000000000003 0 0 -1 -1 0 0 forward_v I I I I #
coedge $-1 -1 -1 $-1 $702 $716 $704 $761 forward $694 $-1 #
coedge $-1 -1 -1 $-1 $712 $696 $716 $767 reversed $608 $-1 #
coedge $-1 -1 -1 $-1 $696 $712 $697 $756 forward $608 $-1 #
coedge $-1 -1 -1 $-1 $699 $704 $696 $755 reversed $705 $-1 #
edge $-1 -1 -1 $-1 $757 -0.0025000000000000001 $775 0 $696 $776 forward @7 unknown F #
edge $-1 -1 -1 $-1 $714 0 $757 0.00042499999999999998 $697 $777 forward @7 unknown F #
vertex $-1 -1 -1 $-1 $700 $778 #
straight-curve $-1 -1 -1 $-1 -1.6000000000000001 1.25 0.050000000000000003 -1000 0 0 I I #
straight-curve $-1 -1 -1 $-1 1.6000000000000001 1.25 0.47499999999999998 0 0 -1000 I I #
straight-curve $-1 -1 -1 $-1 1.6000000000000001 -1.25 0.47499999999999998 0 0 -1000 I I #
edge $-1 -1 -1 $-1 $775 0 $706 0.0032000000000000002 $751 $779 forward @7 unknown F #
point $-1 -1 -1 $-1 1.6000000000000001 -1.25 0.050000000000000003 #
point $-1 -1 -1 $-1 1.6000000000000001 1.25 0.050000000000000003 #
point $-1 -1 -1 $-1 1.536 0.98599999999999999 0.47499999999999998 #
straight-curve $-1 -1 -1 $-1 -1.6000000000000001 -1.25 0.47499999999999998 0 -1000 0 I I #
point $-1 -1 -1 $-1 -1.6000000000000001 1.25 0.47499999999999998 #
edge $-1 -1 -1 $-1 $717 0 $775 0.00042499999999999998 $752 $780 forward @7 unknown F #
point $-1 -1 -1 $-1 -1.6000000000000001 -1.25 0.47499999999999998 #
ellipse-curve $-1 -1 -1 $-1 -1.1234999999999999 0.77349999999999997 0.90000000000000002 0 0 -1 0 0.2344 0 1 I I #
rgb_color-st-attrib $-1 -1 $-1 $-1 $724 2 1 2 1 1 1 1 1 1 1 1 1 1 1 0 1 1 1 0.75294117647059 0.75294117647059 0.75294117647059 #
torus-surface $-1 -1 -1 $-1 -1.1234999999999999 0.77349999999999997 0.8609 0 0 -1 0.2344 0.039100000000000003 -1 0 0 forward_v I I I I #
rgb_color-st-attrib $-1 -1 $-1 $-1 $737 2 1 2 1 1 1 1 1 1 1 1 1 1 1 0 1 1 1 0.75294117647059 0.75294117647059 0.75294117647059 #
plane-surface $-1 -1 -1 $-1 1.536 -1.1859999999999999 0.90000000000000002 -1 0 0 0 -0 1 forward_v I I I I #
straight-curve $-1 -1 -1 $-1 1.536 0.98599999999999999 0.90000000000000002 0 0 1000 I I #
vertex $-1 -1 -1 $-1 $755 $781 #
straight-curve $-1 -1 -1 $-1 -1.6000000000000001 -1.25 0.050000000000000003 0 -1000 0 I I #
straight-curve $-1 -1 -1 $-1 -1.6000000000000001 1.25 0.47499999999999998 0 0 -1000 I I #
point $-1 -1 -1 $-1 -1.6000000000000001 1.25 0.050000000000000003 #
straight-curve $-1 -1 -1 $-1 -1.6000000000000001 -1.25 0.050000000000000003 1000 0 0 I I #
straight-curve $-1 -1 -1 $-1 -1.6000000000000001 -1.25 0.47499999999999998 0 0 -1000 I I #
point $-1 -1 -1 $-1 -1.6000000000000001 -1.25 0.050000000000000003 #
End-of-ACIS-data 