2400 0 3 0           
12 BoardModeler 14 ACIS 24.0.2 NT 24 Tue Sep 29 11:44:07 2015 
1 9.9999999999999995e-007 1e-010 
body $3 -1 -1 $-1 $4 $-1 $-1 F #
body $5 -1 -1 $-1 $6 $-1 $-1 F #
body $7 -1 -1 $-1 $8 $-1 $-1 F #
rgb_color-st-attrib $-1 -1 $-1 $-1 $0 2 1 2 1 1 1 1 1 1 1 1 1 1 1 0 1 1 1 0.75294117647059 0.75294117647059 0.75294117647059 #
lump $-1 -1 -1 $-1 $-1 $9 $0 F #
rgb_color-st-attrib $-1 -1 $-1 $-1 $1 2 1 2 1 1 1 1 1 1 1 1 1 1 1 0 1 1 1 0.75294117647059 0.75294117647059 0.75294117647059 #
lump $-1 -1 -1 $-1 $-1 $10 $1 F #
rgb_color-st-attrib $-1 -1 $-1 $-1 $2 2 1 2 1 1 1 1 1 1 1 1 1 1 1 0 1 1 1 0.75294117647059 0.75294117647059 0.75294117647059 #
lump $-1 -1 -1 $-1 $-1 $11 $2 F #
shell $-1 -1 -1 $-1 $-1 $-1 $12 $-1 $4 F #
shell $-1 -1 -1 $-1 $-1 $-1 $13 $-1 $6 F #
shell $-1 -1 -1 $-1 $-1 $-1 $14 $-1 $8 F #
face $15 -1 -1 $-1 $16 $17 $9 $-1 $18 reversed single F F #
face $19 -1 -1 $-1 $20 $21 $10 $-1 $22 reversed single F F #
face $23 -1 -1 $-1 $24 $25 $11 $-1 $26 reversed single F F #
rgb_color-st-attrib $-1 -1 $-1 $-1 $12 2 1 2 1 1 1 1 1 1 1 1 1 1 1 0 1 1 1 0.75294117647059 0.75294117647059 0.75294117647059 #
face $27 -1 -1 $-1 $28 $29 $9 $-1 $30 forward single F F #
loop $-1 -1 -1 $-1 $-1 $31 $12 F unknown #
plane-surface $-1 -1 -1 $-1 -0.32000000000000001 0 8.3399999999999999 0.86601905262873913 0 -0.50001100036301338 -0.50001100036301338 0 -0.86601905262873913 forward_v I I I I #
rgb_color-st-attrib $-1 -1 $-1 $-1 $13 2 1 2 1 1 1 1 1 1 1 1 1 1 1 0 1 1 1 0.75294117647059 0.75294117647059 0.75294117647059 #
face $32 -1 -1 $-1 $33 $34 $10 $-1 $35 forward single F F #
loop $-1 -1 -1 $-1 $-1 $36 $13 F unknown #
plane-surface $-1 -1 -1 $-1 2.2200000000000002 0 8.3399999999999999 0.86601905262873913 0 -0.50001100036301338 -0.50001100036301338 0 -0.86601905262873913 forward_v I I I I #
rgb_color-st-attrib $-1 -1 $-1 $-1 $14 2 1 2 1 1 1 1 1 1 1 1 1 1 1 0 1 1 1 0.25098039215686002 0.25098039215686002 0.25098039215686002 #
face $37 -1 -1 $-1 $38 $39 $11 $-1 $40 reversed single F F #
loop $-1 -1 -1 $-1 $-1 $41 $14 F unknown #
plane-surface $-1 -1 -1 $-1 -1.27 1.27 2.54 1 0 0 0 0 -1 forward_v I I I I #
rgb_color-st-attrib $-1 -1 $-1 $-1 $16 2 1 2 1 1 1 1 1 1 1 1 1 1 1 0 1 1 1 0.75294117647059 0.75294117647059 0.75294117647059 #
face $42 -1 -1 $-1 $43 $44 $9 $-1 $45 forward single F F #
loop $-1 -1 -1 $-1 $-1 $46 $16 F unknown #
plane-surface $-1 -1 -1 $-1 0.14680000000000001 0.32000000000000001 -2.2999999999999998 0.86601905262873913 0 -0.50001100036301338 -0.50001100036301338 0 -0.86601905262873913 forward_v I I I I #
coedge $-1 -1 -1 $-1 $47 $48 $49 $50 forward $17 $-1 #
rgb_color-st-attrib $-1 -1 $-1 $-1 $20 2 1 2 1 1 1 1 1 1 1 1 1 1 1 0 1 1 1 0.75294117647059 0.75294117647059 0.75294117647059 #
face $51 -1 -1 $-1 $52 $53 $10 $-1 $54 forward single F F #
loop $-1 -1 -1 $-1 $-1 $55 $20 F unknown #
plane-surface $-1 -1 -1 $-1 2.6867999999999999 0.32000000000000001 -2.2999999999999998 0.86601905262873913 0 -0.50001100036301338 -0.50001100036301338 0 -0.86601905262873913 forward_v I I I I #
coedge $-1 -1 -1 $-1 $56 $57 $58 $59 forward $21 $-1 #
rgb_color-st-attrib $-1 -1 $-1 $-1 $24 2 1 2 1 1 1 1 1 1 1 1 1 1 1 0 1 1 1 0.25098039215686002 0.25098039215686002 0.25098039215686002 #
face $60 -1 -1 $-1 $61 $62 $11 $-1 $63 reversed single F F #
loop $-1 -1 -1 $-1 $-1 $64 $24 F unknown #
plane-surface $-1 -1 -1 $-1 -1.27 -1.27 2.54 0 1 0 0 0 1 forward_v I I I I #
coedge $-1 -1 -1 $-1 $65 $66 $67 $68 forward $25 $-1 #
rgb_color-st-attrib $-1 -1 $-1 $-1 $28 2 1 2 1 1 1 1 1 1 1 1 1 1 1 0 1 1 1 0.75294117647059 0.75294117647059 0.75294117647059 #
face $69 -1 -1 $-1 $70 $71 $9 $-1 $72 reversed single F F #
loop $-1 -1 -1 $-1 $-1 $73 $28 F unknown #
plane-surface $-1 -1 -1 $-1 0.32000000000000001 -0.14680000000000001 -2.2999999999999998 0 -0.86601905262873913 -0.50001100036301338 -1 0 -0 forward_v I I I I #
coedge $-1 -1 -1 $-1 $74 $75 $76 $77 forward $29 $-1 #
coedge $-1 -1 -1 $-1 $78 $31 $79 $80 reversed $17 $-1 #
coedge $-1 -1 -1 $-1 $31 $78 $81 $82 reversed $17 $-1 #
coedge $-1 -1 -1 $-1 $83 $84 $31 $50 reversed $85 $-1 #
edge $-1 -1 -1 $-1 $86 -0.00014423916362237457 $87 0.00024305833699773786 $31 $88 forward @7 unknown F #
rgb_color-st-attrib $-1 -1 $-1 $-1 $33 2 1 2 1 1 1 1 1 1 1 1 1 1 1 0 1 1 1 0.75294117647059 0.75294117647059 0.75294117647059 #
face $89 -1 -1 $-1 $90 $91 $10 $-1 $92 reversed single F F #
loop $-1 -1 -1 $-1 $-1 $93 $33 F unknown #
plane-surface $-1 -1 -1 $-1 2.8599999999999999 -0.14680000000000001 -2.2999999999999998 0 -0.86601905262873913 -0.50001100036301338 -1 0 -0 forward_v I I I I #
coedge $-1 -1 -1 $-1 $94 $95 $96 $97 forward $34 $-1 #
coedge $-1 -1 -1 $-1 $98 $36 $99 $100 reversed $21 $-1 #
coedge $-1 -1 -1 $-1 $36 $98 $101 $102 reversed $21 $-1 #
coedge $-1 -1 -1 $-1 $103 $104 $36 $59 reversed $105 $-1 #
edge $-1 -1 -1 $-1 $106 -0.00014423916362237449 $107 0.00024305833699773795 $36 $108 forward @7 unknown F #
rgb_color-st-attrib $-1 -1 $-1 $-1 $38 2 1 2 1 1 1 1 1 1 1 1 1 1 1 0 1 1 1 0.25098039215686002 0.25098039215686002 0.25098039215686002 #
face $109 -1 -1 $-1 $110 $111 $11 $-1 $112 reversed single F F #
loop $-1 -1 -1 $-1 $-1 $113 $38 F unknown #
plane-surface $-1 -1 -1 $-1 3.8100000000000001 1.27 2.54 -1 0 0 0 -0 1 forward_v I I I I #
coedge $-1 -1 -1 $-1 $114 $115 $116 $117 forward $39 $-1 #
coedge $-1 -1 -1 $-1 $118 $41 $115 $119 reversed $25 $-1 #
coedge $-1 -1 -1 $-1 $41 $118 $120 $121 forward $25 $-1 #
coedge $-1 -1 -1 $-1 $122 $116 $41 $68 reversed $123 $-1 #
edge $-1 -1 -1 $-1 $124 0 $125 0.0025400000000000002 $41 $126 forward @7 unknown F #
rgb_color-st-attrib $-1 -1 $-1 $-1 $43 2 1 2 1 1 1 1 1 1 1 1 1 1 1 0 1 1 1 0.75294117647059 0.75294117647059 0.75294117647059 #
face $127 -1 -1 $-1 $128 $129 $9 $-1 $130 reversed single F F #
loop $-1 -1 -1 $-1 $-1 $131 $43 F unknown #
plane-surface $-1 -1 -1 $-1 0.32000000000000001 0.32000000000000001 -2 0 -0.86601905262873913 0.50001100036301338 1 0 -0 forward_v I I I I #
coedge $-1 -1 -1 $-1 $132 $133 $134 $135 forward $44 $-1 #
coedge $-1 -1 -1 $-1 $134 $46 $136 $137 reversed $29 $-1 #
coedge $-1 -1 -1 $-1 $46 $134 $138 $139 reversed $29 $-1 #
coedge $-1 -1 -1 $-1 $140 $141 $46 $77 reversed $71 $-1 #
edge $-1 -1 -1 $-1 $142 -0.00038729750062011176 $143 0 $46 $144 forward @7 unknown F #
coedge $-1 -1 -1 $-1 $48 $47 $145 $146 reversed $17 $-1 #
coedge $-1 -1 -1 $-1 $147 $148 $47 $80 forward $149 $-1 #
edge $-1 -1 -1 $-1 $150 -0.00046680000000000002 $87 -0.00017319999999999998 $47 $151 forward @7 unknown F #
coedge $-1 -1 -1 $-1 $152 $153 $48 $82 forward $154 $-1 #
edge $-1 -1 -1 $-1 $86 -0.00032000000000000003 $155 0.00032000000000000003 $48 $156 forward @7 unknown F #
coedge $-1 -1 -1 $-1 $157 $49 $158 $159 reversed $85 $-1 #
coedge $-1 -1 -1 $-1 $49 $157 $147 $160 reversed $85 $-1 #
loop $-1 -1 -1 $-1 $-1 $49 $161 F unknown #
vertex $-1 -1 -1 $-1 $159 $162 #
vertex $-1 -1 -1 $-1 $160 $163 #
straight-curve $-1 -1 -1 $-1 -0.254 -0.254 8.4499999999999993 447.19999999999999 447.19999999999999 774.59999999999991 I I #
rgb_color-st-attrib $-1 -1 $-1 $-1 $52 2 1 2 1 1 1 1 1 1 1 1 1 1 1 0 1 1 1 0.75294117647059 0.75294117647059 0.75294117647059 #
face $164 -1 -1 $-1 $165 $166 $10 $-1 $167 reversed single F F #
loop $-1 -1 -1 $-1 $-1 $168 $52 F unknown #
plane-surface $-1 -1 -1 $-1 2.8599999999999999 0.32000000000000001 -2 0 -0.86601905262873913 0.50001100036301338 1 0 -0 forward_v I I I I #
coedge $-1 -1 -1 $-1 $169 $170 $171 $172 forward $53 $-1 #
coedge $-1 -1 -1 $-1 $171 $55 $173 $174 reversed $34 $-1 #
coedge $-1 -1 -1 $-1 $55 $171 $175 $176 reversed $34 $-1 #
coedge $-1 -1 -1 $-1 $177 $178 $55 $97 reversed $91 $-1 #
edge $-1 -1 -1 $-1 $179 -0.00038729750062011176 $180 0 $55 $181 forward @7 unknown F #
coedge $-1 -1 -1 $-1 $57 $56 $182 $183 reversed $21 $-1 #
coedge $-1 -1 -1 $-1 $184 $185 $56 $100 forward $186 $-1 #
edge $-1 -1 -1 $-1 $187 -0.00046680000000000002 $107 -0.00017319999999999998 $56 $188 forward @7 unknown F #
coedge $-1 -1 -1 $-1 $189 $190 $57 $102 forward $191 $-1 #
edge $-1 -1 -1 $-1 $106 -0.00032000000000000003 $192 0.00032000000000000003 $57 $193 forward @7 unknown F #
coedge $-1 -1 -1 $-1 $194 $58 $195 $196 reversed $105 $-1 #
coedge $-1 -1 -1 $-1 $58 $194 $184 $197 reversed $105 $-1 #
loop $-1 -1 -1 $-1 $-1 $58 $198 F unknown #
vertex $-1 -1 -1 $-1 $196 $199 #
vertex $-1 -1 -1 $-1 $197 $200 #
straight-curve $-1 -1 -1 $-1 2.286 -0.254 8.4499999999999993 447.19999999999999 447.19999999999999 774.59999999999991 I I #
rgb_color-st-attrib $-1 -1 $-1 $-1 $61 2 1 2 1 1 1 1 1 1 1 1 1 1 1 0 1 1 1 0.25098039215686002 0.25098039215686002 0.25098039215686002 #
face $201 -1 -1 $-1 $202 $203 $11 $-1 $204 forward single F F #
loop $-1 -1 -1 $-1 $-1 $205 $61 F unknown #
plane-surface $-1 -1 -1 $-1 -1.27 1.27 2.54 0 -1 0 0 0 -1 forward_v I I I I #
coedge $-1 -1 -1 $-1 $206 $207 $208 $209 forward $62 $-1 #
coedge $-1 -1 -1 $-1 $210 $64 $207 $211 reversed $39 $-1 #
coedge $-1 -1 -1 $-1 $64 $210 $65 $119 forward $39 $-1 #
coedge $-1 -1 -1 $-1 $67 $208 $64 $117 reversed $123 $-1 #
edge $-1 -1 -1 $-1 $125 0 $212 0.0050800000000000003 $64 $213 forward @7 unknown F #
coedge $-1 -1 -1 $-1 $66 $65 $214 $215 reversed $25 $-1 #
edge $-1 -1 -1 $-1 $216 0 $125 0.0025400000000000002 $65 $217 forward @7 unknown F #
coedge $-1 -1 -1 $-1 $218 $205 $66 $121 reversed $111 $-1 #
edge $-1 -1 -1 $-1 $219 0 $124 0.0025400000000000002 $66 $220 forward @7 unknown F #
coedge $-1 -1 -1 $-1 $208 $67 $205 $221 reversed $123 $-1 #
loop $-1 -1 -1 $-1 $-1 $67 $202 F unknown #
vertex $-1 -1 -1 $-1 $221 $222 #
vertex $-1 -1 -1 $-1 $117 $223 #
straight-curve $-1 -1 -1 $-1 -1.27 1.27 0 0 -1000 0 I I #
rgb_color-st-attrib $-1 -1 $-1 $-1 $70 2 1 2 1 1 1 1 1 1 1 1 1 1 1 0 1 1 1 0.75294117647059 0.75294117647059 0.75294117647059 #
face $224 -1 -1 $-1 $225 $226 $9 $-1 $227 reversed single F F #
loop $-1 -1 -1 $-1 $-1 $228 $70 F unknown #
plane-surface $-1 -1 -1 $-1 0.32000000000000001 -0.32000000000000001 8.6400000000000006 0 1 0 0 0 1 forward_v I I I I #
coedge $-1 -1 -1 $-1 $141 $140 $229 $230 reversed $71 $-1 #
coedge $-1 -1 -1 $-1 $231 $73 $232 $233 reversed $44 $-1 #
coedge $-1 -1 -1 $-1 $73 $231 $234 $235 reversed $44 $-1 #
coedge $-1 -1 -1 $-1 $75 $74 $73 $135 reversed $29 $-1 #
edge $-1 -1 -1 $-1 $236 0.0023622478206682443 $237 0.0027495453212883561 $134 $238 forward @7 unknown F #
coedge $-1 -1 -1 $-1 $239 $240 $74 $137 forward $241 $-1 #
edge $-1 -1 -1 $-1 $237 -0.00064000000000000005 $143 0 $74 $242 forward @7 unknown F #
coedge $-1 -1 -1 $-1 $234 $243 $75 $139 forward $244 $-1 #
edge $-1 -1 -1 $-1 $142 -0.00046680000000000002 $236 -0.00017319999999999998 $75 $245 forward @7 unknown F #
coedge $-1 -1 -1 $-1 $131 $76 $243 $246 reversed $71 $-1 #
coedge $-1 -1 -1 $-1 $76 $131 $247 $248 reversed $71 $-1 #
vertex $-1 -1 -1 $-1 $246 $249 #
vertex $-1 -1 -1 $-1 $137 $250 #
straight-curve $-1 -1 -1 $-1 0.32000000000000001 0.32000000000000001 -2 447.19999999999999 447.19999999999999 774.59999999999991 I I #
coedge $-1 -1 -1 $-1 $251 $252 $78 $146 forward $226 $-1 #
edge $-1 -1 -1 $-1 $155 -0.00014423916362237457 $150 0.00024305833699773786 $78 $253 forward @7 unknown F #
coedge $-1 -1 -1 $-1 $254 $79 $84 $160 forward $149 $-1 #
coedge $-1 -1 -1 $-1 $79 $254 $251 $255 forward $149 $-1 #
loop $-1 -1 -1 $-1 $-1 $254 $256 F unknown #
vertex $-1 -1 -1 $-1 $80 $257 #
straight-curve $-1 -1 -1 $-1 -0.14680000000000001 -0.32000000000000001 8.6400000000000006 0 -1000 0 I I #
coedge $-1 -1 -1 $-1 $258 $81 $259 $260 forward $154 $-1 #
coedge $-1 -1 -1 $-1 $81 $258 $261 $262 reversed $154 $-1 #
loop $-1 -1 -1 $-1 $-1 $153 $263 F unknown #
vertex $-1 -1 -1 $-1 $260 $264 #
straight-curve $-1 -1 -1 $-1 -0.32000000000000001 0 8.3399999999999999 0 1000 0 I I #
coedge $-1 -1 -1 $-1 $84 $83 $265 $266 reversed $85 $-1 #
coedge $-1 -1 -1 $-1 $261 $228 $83 $159 forward $129 $-1 #
edge $-1 -1 -1 $-1 $267 -0.00064000000000000005 $86 0 $158 $268 forward @7 unknown F #
edge $-1 -1 -1 $-1 $87 -0.00046680000000000002 $269 -0.00017319999999999998 $147 $270 forward @7 unknown F #
face $271 -1 -1 $-1 $272 $85 $9 $-1 $273 forward single F F #
point $-1 -1 -1 $-1 -0.32000000000000001 -0.32000000000000001 8.3399999999999999 #
point $-1 -1 -1 $-1 -0.14680000000000001 -0.14680000000000001 8.6400000000000006 #
rgb_color-st-attrib $-1 -1 $-1 $-1 $90 2 1 2 1 1 1 1 1 1 1 1 1 1 1 0 1 1 1 0.75294117647059 0.75294117647059 0.75294117647059 #
face $274 -1 -1 $-1 $275 $276 $10 $-1 $277 reversed single F F #
loop $-1 -1 -1 $-1 $-1 $278 $90 F unknown #
plane-surface $-1 -1 -1 $-1 2.8599999999999999 -0.32000000000000001 8.6400000000000006 0 1 0 0 0 1 forward_v I I I I #
coedge $-1 -1 -1 $-1 $178 $177 $279 $280 reversed $91 $-1 #
coedge $-1 -1 -1 $-1 $281 $93 $282 $283 reversed $53 $-1 #
coedge $-1 -1 -1 $-1 $93 $281 $284 $285 reversed $53 $-1 #
coedge $-1 -1 -1 $-1 $95 $94 $93 $172 reversed $34 $-1 #
edge $-1 -1 -1 $-1 $286 0.0023622478206682443 $287 0.0027495453212883561 $171 $288 forward @7 unknown F #
coedge $-1 -1 -1 $-1 $289 $290 $94 $174 forward $291 $-1 #
edge $-1 -1 -1 $-1 $287 -0.00064000000000000005 $180 0 $94 $292 forward @7 unknown F #
coedge $-1 -1 -1 $-1 $284 $293 $95 $176 forward $294 $-1 #
edge $-1 -1 -1 $-1 $179 -0.00046680000000000002 $286 -0.00017319999999999998 $95 $295 forward @7 unknown F #
coedge $-1 -1 -1 $-1 $168 $96 $293 $296 reversed $91 $-1 #
coedge $-1 -1 -1 $-1 $96 $168 $297 $298 reversed $91 $-1 #
vertex $-1 -1 -1 $-1 $296 $299 #
vertex $-1 -1 -1 $-1 $174 $300 #
straight-curve $-1 -1 -1 $-1 2.8599999999999999 0.32000000000000001 -2 447.19999999999999 447.19999999999999 774.59999999999991 I I #
coedge $-1 -1 -1 $-1 $301 $302 $98 $183 forward $276 $-1 #
edge $-1 -1 -1 $-1 $192 -0.00014423916362237449 $187 0.00024305833699773795 $98 $303 forward @7 unknown F #
coedge $-1 -1 -1 $-1 $304 $99 $104 $197 forward $186 $-1 #
coedge $-1 -1 -1 $-1 $99 $304 $301 $305 forward $186 $-1 #
loop $-1 -1 -1 $-1 $-1 $304 $306 F unknown #
vertex $-1 -1 -1 $-1 $100 $307 #
straight-curve $-1 -1 -1 $-1 2.3932000000000002 -0.32000000000000001 8.6400000000000006 0 -1000 0 I I #
coedge $-1 -1 -1 $-1 $308 $101 $309 $310 forward $191 $-1 #
coedge $-1 -1 -1 $-1 $101 $308 $311 $312 reversed $191 $-1 #
loop $-1 -1 -1 $-1 $-1 $190 $313 F unknown #
vertex $-1 -1 -1 $-1 $310 $314 #
straight-curve $-1 -1 -1 $-1 2.2200000000000002 0 8.3399999999999999 0 1000 0 I I #
coedge $-1 -1 -1 $-1 $104 $103 $315 $316 reversed $105 $-1 #
coedge $-1 -1 -1 $-1 $311 $278 $103 $196 forward $166 $-1 #
edge $-1 -1 -1 $-1 $317 -0.00063999999999999973 $106 0 $195 $318 forward @7 unknown F #
edge $-1 -1 -1 $-1 $107 -0.00046679999999999964 $319 -0.00017320000000000001 $184 $320 forward @7 unknown F #
face $321 -1 -1 $-1 $322 $105 $10 $-1 $323 forward single F F #
point $-1 -1 -1 $-1 2.2200000000000002 -0.32000000000000001 8.3399999999999999 #
point $-1 -1 -1 $-1 2.3932000000000002 -0.14680000000000001 8.6400000000000006 #
rgb_color-st-attrib $-1 -1 $-1 $-1 $110 2 1 2 1 1 1 1 1 1 1 1 1 1 1 0 1 1 1 0.25098039215686002 0.25098039215686002 0.25098039215686002 #
face $324 -1 -1 $-1 $-1 $325 $11 $-1 $326 reversed single F F #
loop $-1 -1 -1 $-1 $327 $328 $110 F unknown #
plane-surface $-1 -1 -1 $-1 1.27 0 2.54 0 0 1 1 0 0 forward_v I I I I #
coedge $-1 -1 -1 $-1 $120 $329 $122 $221 forward $111 $-1 #
coedge $-1 -1 -1 $-1 $330 $113 $329 $331 reversed $62 $-1 #
coedge $-1 -1 -1 $-1 $113 $330 $114 $211 forward $62 $-1 #
coedge $-1 -1 -1 $-1 $116 $122 $113 $209 reversed $123 $-1 #
edge $-1 -1 -1 $-1 $212 -0.0025400000000000002 $332 0 $113 $333 forward @7 unknown F #
coedge $-1 -1 -1 $-1 $115 $114 $334 $335 reversed $39 $-1 #
edge $-1 -1 -1 $-1 $336 0 $212 0.0025400000000000002 $114 $337 forward @7 unknown F #
vertex $-1 -1 -1 $-1 $117 $338 #
straight-curve $-1 -1 -1 $-1 -1.27 -1.27 0 1000 0 0 I I #
coedge $-1 -1 -1 $-1 $334 $339 $118 $215 forward $340 $-1 #
edge $-1 -1 -1 $-1 $219 0 $216 0.0025400000000000002 $118 $341 forward @7 unknown F #
vertex $-1 -1 -1 $-1 $335 $342 #
straight-curve $-1 -1 -1 $-1 -1.27 -1.27 2.54 0 0 -1000 I I #
coedge $-1 -1 -1 $-1 $329 $120 $339 $343 reversed $111 $-1 #
vertex $-1 -1 -1 $-1 $343 $344 #
straight-curve $-1 -1 -1 $-1 -1.27 1.27 2.54 0 0 -1000 I I #
edge $-1 -1 -1 $-1 $332 -0.0050800000000000003 $124 0 $205 $345 forward @7 unknown F #
point $-1 -1 -1 $-1 -1.27 1.27 0 #
point $-1 -1 -1 $-1 -1.27 -1.27 0 #
rgb_color-st-attrib $-1 -1 $-1 $-1 $128 2 1 2 1 1 1 1 1 1 1 1 1 1 1 0 1 1 1 0.75294117647059 0.75294117647059 0.75294117647059 #
face $346 -1 -1 $-1 $347 $348 $9 $-1 $349 reversed single F F #
loop $-1 -1 -1 $-1 $-1 $350 $128 F unknown #
plane-surface $-1 -1 -1 $-1 0.32000000000000001 0.14680000000000001 8.6400000000000006 0 -0.86601905262873913 -0.50001100036301338 -1 0 -0 forward_v I I I I #
coedge $-1 -1 -1 $-1 $158 $232 $240 $351 reversed $129 $-1 #
coedge $-1 -1 -1 $-1 $352 $353 $131 $230 forward $348 $-1 #
edge $-1 -1 -1 $-1 $354 -0.0001442391636223749 $355 0.00024305833699773681 $131 $356 forward @7 unknown F #
coedge $-1 -1 -1 $-1 $133 $132 $357 $358 forward $44 $-1 #
coedge $-1 -1 -1 $-1 $228 $261 $132 $233 forward $129 $-1 #
edge $-1 -1 -1 $-1 $359 -0.00064000000000000005 $237 0 $132 $360 forward @7 unknown F #
coedge $-1 -1 -1 $-1 $361 $138 $133 $235 forward $244 $-1 #
edge $-1 -1 -1 $-1 $236 -0.00046680000000000002 $362 -0.00017319999999999998 $133 $363 forward @7 unknown F #
vertex $-1 -1 -1 $-1 $235 $364 #
vertex $-1 -1 -1 $-1 $137 $365 #
straight-curve $-1 -1 -1 $-1 0.051900000000000002 -0.051900000000000002 -5.2400000000000002 447.19999999999999 -447.19999999999999 774.59999999999991 I I #
coedge $-1 -1 -1 $-1 $366 $136 $367 $368 reversed $241 $-1 #
coedge $-1 -1 -1 $-1 $136 $366 $228 $351 forward $241 $-1 #
loop $-1 -1 -1 $-1 $-1 $239 $369 F unknown #
straight-curve $-1 -1 -1 $-1 0.32000000000000001 0.32000000000000001 -2 0 1000 0 I I #
coedge $-1 -1 -1 $-1 $138 $361 $140 $246 forward $244 $-1 #
loop $-1 -1 -1 $-1 $-1 $138 $347 F unknown #
straight-curve $-1 -1 -1 $-1 0.14680000000000001 -0.32000000000000001 -2.2999999999999998 0 -1000 0 I I #
edge $-1 -1 -1 $-1 $355 -0.00046680000000000002 $142 -0.00017319999999999998 $140 $370 forward @7 unknown F #
coedge $-1 -1 -1 $-1 $259 $367 $141 $248 forward $371 $-1 #
edge $-1 -1 -1 $-1 $143 0 $354 0.00064000000000000005 $141 $372 forward @7 unknown F #
point $-1 -1 -1 $-1 0.14680000000000001 0.14680000000000001 -2.2999999999999998 #
point $-1 -1 -1 $-1 0.32000000000000001 0.32000000000000001 -2 #
coedge $-1 -1 -1 $-1 $350 $145 $148 $255 reversed $226 $-1 #
coedge $-1 -1 -1 $-1 $145 $350 $373 $374 reversed $226 $-1 #
straight-curve $-1 -1 -1 $-1 -0.254 0.254 8.4499999999999993 447.19999999999999 -447.19999999999999 774.59999999999991 I I #
coedge $-1 -1 -1 $-1 $148 $147 $375 $376 forward $149 $-1 #
edge $-1 -1 -1 $-1 $377 0.00017319999999999998 $150 0.00046680000000000002 $251 $378 forward @7 unknown F #
face $379 -1 -1 $-1 $369 $149 $9 $-1 $380 forward single F F #
point $-1 -1 -1 $-1 -0.14680000000000001 0.14680000000000001 8.6400000000000006 #
coedge $-1 -1 -1 $-1 $153 $152 $353 $381 forward $154 $-1 #
coedge $-1 -1 -1 $-1 $373 $247 $152 $260 reversed $371 $-1 #
edge $-1 -1 -1 $-1 $155 0.00030000000000000073 $354 0.01064 $259 $382 forward @7 unknown F #
coedge $-1 -1 -1 $-1 $232 $158 $153 $262 forward $129 $-1 #
edge $-1 -1 -1 $-1 $86 0.00030000000000000073 $359 0.01064 $261 $383 forward @7 unknown F #
face $384 -1 -1 $-1 $161 $154 $9 $-1 $385 forward single F F #
point $-1 -1 -1 $-1 -0.32000000000000001 0.32000000000000001 8.3399999999999999 #
coedge $-1 -1 -1 $-1 $386 $375 $157 $266 forward $387 $-1 #
edge $-1 -1 -1 $-1 $269 -0.00038729750062011246 $267 0 $157 $388 forward @7 unknown F #
vertex $-1 -1 -1 $-1 $389 $390 #
straight-curve $-1 -1 -1 $-1 -0.32000000000000001 -0.32000000000000001 8.3399999999999999 -1000 0 0 I I #
vertex $-1 -1 -1 $-1 $376 $391 #
straight-curve $-1 -1 -1 $-1 0.32000000000000001 -0.14680000000000001 8.6400000000000006 1000 0 0 I I #
rgb_color-st-attrib $-1 -1 $-1 $-1 $161 2 1 2 1 1 1 1 1 1 1 1 1 1 1 0 1 1 1 0.75294117647059 0.75294117647059 0.75294117647059 #
face $392 -1 -1 $-1 $-1 $387 $9 $-1 $393 forward single F F #
plane-surface $-1 -1 -1 $-1 0.32000000000000001 -0.32000000000000001 8.3399999999999999 0 -0.86601905262873913 0.50001100036301338 1 0 -0 forward_v I I I I #
rgb_color-st-attrib $-1 -1 $-1 $-1 $165 2 1 2 1 1 1 1 1 1 1 1 1 1 1 0 1 1 1 0.75294117647059 0.75294117647059 0.75294117647059 #
face $394 -1 -1 $-1 $395 $396 $10 $-1 $397 reversed single F F #
loop $-1 -1 -1 $-1 $-1 $398 $165 F unknown #
plane-surface $-1 -1 -1 $-1 2.8599999999999999 0.14680000000000001 8.6400000000000006 0 -0.86601905262873913 -0.50001100036301338 -1 0 -0 forward_v I I I I #
coedge $-1 -1 -1 $-1 $195 $282 $290 $399 reversed $166 $-1 #
coedge $-1 -1 -1 $-1 $400 $401 $168 $280 forward $396 $-1 #
edge $-1 -1 -1 $-1 $402 -0.00014423916362237482 $403 0.00024305833699773692 $168 $404 forward @7 unknown F #
coedge $-1 -1 -1 $-1 $170 $169 $405 $406 forward $53 $-1 #
coedge $-1 -1 -1 $-1 $278 $311 $169 $283 forward $166 $-1 #
edge $-1 -1 -1 $-1 $407 -0.00063999999999999973 $287 0 $169 $408 forward @7 unknown F #
coedge $-1 -1 -1 $-1 $409 $175 $170 $285 forward $294 $-1 #
edge $-1 -1 -1 $-1 $286 -0.00046679999999999964 $410 -0.00017320000000000001 $170 $411 forward @7 unknown F #
vertex $-1 -1 -1 $-1 $285 $412 #
vertex $-1 -1 -1 $-1 $174 $413 #
straight-curve $-1 -1 -1 $-1 2.5918999999999999 -0.051900000000000002 -5.2400000000000002 447.19999999999999 -447.19999999999999 774.59999999999991 I I #
coedge $-1 -1 -1 $-1 $414 $173 $415 $416 reversed $291 $-1 #
coedge $-1 -1 -1 $-1 $173 $414 $278 $399 forward $291 $-1 #
loop $-1 -1 -1 $-1 $-1 $289 $417 F unknown #
straight-curve $-1 -1 -1 $-1 2.8599999999999999 0.32000000000000001 -2 0 1000 0 I I #
coedge $-1 -1 -1 $-1 $175 $409 $177 $296 forward $294 $-1 #
loop $-1 -1 -1 $-1 $-1 $175 $395 F unknown #
straight-curve $-1 -1 -1 $-1 2.6867999999999999 -0.32000000000000001 -2.2999999999999998 0 -1000 0 I I #
edge $-1 -1 -1 $-1 $403 -0.00046679999999999964 $179 -0.00017320000000000001 $177 $418 forward @7 unknown F #
coedge $-1 -1 -1 $-1 $309 $415 $178 $298 forward $419 $-1 #
edge $-1 -1 -1 $-1 $180 0 $402 0.00063999999999999973 $178 $420 forward @7 unknown F #
point $-1 -1 -1 $-1 2.6867999999999999 0.14680000000000001 -2.2999999999999998 #
point $-1 -1 -1 $-1 2.8599999999999999 0.32000000000000001 -2 #
coedge $-1 -1 -1 $-1 $398 $182 $185 $305 reversed $276 $-1 #
coedge $-1 -1 -1 $-1 $182 $398 $421 $422 reversed $276 $-1 #
straight-curve $-1 -1 -1 $-1 2.286 0.254 8.4499999999999993 447.19999999999999 -447.19999999999999 774.59999999999991 I I #
coedge $-1 -1 -1 $-1 $185 $184 $423 $424 forward $186 $-1 #
edge $-1 -1 -1 $-1 $425 0.00017320000000000001 $187 0.00046679999999999964 $301 $426 forward @7 unknown F #
face $427 -1 -1 $-1 $417 $186 $10 $-1 $428 forward single F F #
point $-1 -1 -1 $-1 2.3932000000000002 0.14680000000000001 8.6400000000000006 #
coedge $-1 -1 -1 $-1 $190 $189 $401 $429 forward $191 $-1 #
coedge $-1 -1 -1 $-1 $421 $297 $189 $310 reversed $419 $-1 #
edge $-1 -1 -1 $-1 $192 0.00030000000000000073 $402 0.01064 $309 $430 forward @7 unknown F #
coedge $-1 -1 -1 $-1 $282 $195 $190 $312 forward $166 $-1 #
edge $-1 -1 -1 $-1 $106 0.00030000000000000073 $407 0.01064 $311 $431 forward @7 unknown F #
face $432 -1 -1 $-1 $198 $191 $10 $-1 $433 forward single F F #
point $-1 -1 -1 $-1 2.2200000000000002 0.32000000000000001 8.3399999999999999 #
coedge $-1 -1 -1 $-1 $434 $423 $194 $316 forward $435 $-1 #
edge $-1 -1 -1 $-1 $319 -0.00038729750062011246 $317 0 $194 $436 forward @7 unknown F #
vertex $-1 -1 -1 $-1 $437 $438 #
straight-curve $-1 -1 -1 $-1 2.2200000000000002 -0.32000000000000001 8.3399999999999999 -1000 0 0 I I #
vertex $-1 -1 -1 $-1 $424 $439 #
straight-curve $-1 -1 -1 $-1 2.8599999999999999 -0.14680000000000001 8.6400000000000006 1000 0 0 I I #
rgb_color-st-attrib $-1 -1 $-1 $-1 $198 2 1 2 1 1 1 1 1 1 1 1 1 1 1 0 1 1 1 0.75294117647059 0.75294117647059 0.75294117647059 #
face $440 -1 -1 $-1 $-1 $435 $10 $-1 $441 forward single F F #
plane-surface $-1 -1 -1 $-1 2.8599999999999999 -0.32000000000000001 8.3399999999999999 0 -0.86601905262873913 0.50001100036301338 1 0 -0 forward_v I I I I #
rgb_color-st-attrib $-1 -1 $-1 $-1 $202 2 1 2 1 1 1 1 1 1 1 1 1 1 1 0 1 1 1 0.25098039215686002 0.25098039215686002 0.25098039215686002 #
loop $-1 -1 -1 $-1 $442 $443 $202 F unknown #
plane-surface $-1 -1 -1 $-1 1.27 0 0 0 0 1 1 0 0 forward_v I I I I #
loop $-1 -1 -1 $-1 $340 $444 $110 F unknown #
coedge $-1 -1 -1 $-1 $445 $446 $-1 $447 reversed $203 $-1 #
coedge $-1 -1 -1 $-1 $205 $218 $206 $331 forward $111 $-1 #
coedge $-1 -1 -1 $-1 $207 $206 $448 $449 reversed $62 $-1 #
edge $-1 -1 -1 $-1 $450 0 $332 0.0025400000000000002 $206 $451 forward @7 unknown F #
vertex $-1 -1 -1 $-1 $209 $452 #
straight-curve $-1 -1 -1 $-1 3.8100000000000001 1.27 0 0 1000 0 I I #
coedge $-1 -1 -1 $-1 $448 $214 $210 $335 forward $340 $-1 #
edge $-1 -1 -1 $-1 $216 0 $336 0.0050800000000000003 $210 $453 forward @7 unknown F #
vertex $-1 -1 -1 $-1 $449 $454 #
straight-curve $-1 -1 -1 $-1 3.8100000000000001 -1.27 2.54 0 0 -1000 I I #
point $-1 -1 -1 $-1 3.8100000000000001 -1.27 0 #
coedge $-1 -1 -1 $-1 $214 $448 $218 $343 forward $340 $-1 #
loop $-1 -1 -1 $-1 $-1 $214 $110 F unknown #
straight-curve $-1 -1 -1 $-1 -1.27 1.27 2.54 0 -1000 0 I I #
point $-1 -1 -1 $-1 -1.27 -1.27 2.54 #
edge $-1 -1 -1 $-1 $450 -0.0050800000000000003 $219 0 $218 $455 forward @7 unknown F #
point $-1 -1 -1 $-1 -1.27 1.27 2.54 #
straight-curve $-1 -1 -1 $-1 -1.27 1.27 0 -1000 0 0 I I #
rgb_color-st-attrib $-1 -1 $-1 $-1 $225 2 1 2 1 1 1 1 1 1 1 1 1 1 1 0 1 1 1 0.75294117647059 0.75294117647059 0.75294117647059 #
face $456 -1 -1 $-1 $457 $244 $9 $-1 $458 forward single F F #
loop $-1 -1 -1 $-1 $-1 $229 $225 F unknown #
plane-surface $-1 -1 -1 $-1 -0.32000000000000001 0 -2 0.86601905262873913 0 0.50001100036301338 0.50001100036301338 0 -0.86601905262873913 forward_v I I I I #
coedge $-1 -1 -1 $-1 $252 $251 $459 $460 forward $226 $-1 #
edge $-1 -1 -1 $-1 $267 0.00030000000000000073 $237 0.01064 $228 $461 forward @7 unknown F #
coedge $-1 -1 -1 $-1 $357 $229 $361 $462 reversed $348 $-1 #
coedge $-1 -1 -1 $-1 $229 $357 $258 $381 reversed $348 $-1 #
vertex $-1 -1 -1 $-1 $381 $463 #
vertex $-1 -1 -1 $-1 $246 $464 #
straight-curve $-1 -1 -1 $-1 -0.254 0.254 -2.1099999999999999 447.19999999999999 -447.19999999999999 -774.59999999999991 I I #
coedge $-1 -1 -1 $-1 $353 $352 $231 $358 reversed $348 $-1 #
edge $-1 -1 -1 $-1 $359 -0.0001442391636223749 $362 0.00024305833699773681 $231 $465 forward @7 unknown F #
vertex $-1 -1 -1 $-1 $381 $466 #
straight-curve $-1 -1 -1 $-1 0.32000000000000001 -0.32000000000000001 -2 1000 0 0 I I #
coedge $-1 -1 -1 $-1 $243 $234 $352 $462 forward $244 $-1 #
vertex $-1 -1 -1 $-1 $462 $467 #
straight-curve $-1 -1 -1 $-1 -0.32000000000000001 -0.14680000000000001 -2.2999999999999998 -1000 0 0 I I #
point $-1 -1 -1 $-1 0.14680000000000001 -0.14680000000000001 -2.2999999999999998 #
point $-1 -1 -1 $-1 0.32000000000000001 -0.32000000000000001 -2 #
coedge $-1 -1 -1 $-1 $240 $239 $386 $389 forward $241 $-1 #
coedge $-1 -1 -1 $-1 $247 $373 $239 $368 forward $371 $-1 #
edge $-1 -1 -1 $-1 $468 0.00030000000000000073 $143 0.01064 $367 $469 forward @7 unknown F #
face $470 -1 -1 $-1 $263 $241 $9 $-1 $471 reversed single F F #
straight-curve $-1 -1 -1 $-1 0.32000000000000001 0.14680000000000001 -2.2999999999999998 1000 0 0 I I #
loop $-1 -1 -1 $-1 $-1 $259 $457 F unknown #
straight-curve $-1 -1 -1 $-1 0.32000000000000001 0.32000000000000001 -2 -1000 0 0 I I #
coedge $-1 -1 -1 $-1 $367 $259 $252 $374 forward $371 $-1 #
edge $-1 -1 -1 $-1 $155 -0.00064000000000000005 $468 0 $252 $472 forward @7 unknown F #
coedge $-1 -1 -1 $-1 $265 $459 $254 $376 reversed $387 $-1 #
edge $-1 -1 -1 $-1 $269 -0.00046680000000000002 $377 -0.00017319999999999998 $254 $473 forward @7 unknown F #
vertex $-1 -1 -1 $-1 $376 $474 #
straight-curve $-1 -1 -1 $-1 0.32000000000000001 0.14680000000000001 8.6400000000000006 -1000 0 0 I I #
rgb_color-st-attrib $-1 -1 $-1 $-1 $256 2 1 2 1 1 1 1 1 1 1 1 1 1 1 0 1 1 1 0.75294117647059 0.75294117647059 0.75294117647059 #
plane-surface $-1 -1 -1 $-1 0.32000000000000001 -0.32000000000000001 8.6400000000000006 0 0 1 1 0 0 forward_v I I I I #
edge $-1 -1 -1 $-1 $354 -0.00032000000000000003 $359 0.00032000000000000003 $353 $475 forward @7 unknown F #
straight-curve $-1 -1 -1 $-1 -0.32000000000000001 0.32000000000000001 8.6400000000000006 0 0 -1000 I I #
straight-curve $-1 -1 -1 $-1 -0.32000000000000001 -0.32000000000000001 8.6400000000000006 0 0 -1000 I I #
rgb_color-st-attrib $-1 -1 $-1 $-1 $263 2 1 2 1 1 1 1 1 1 1 1 1 1 1 0 1 1 1 0.75294117647059 0.75294117647059 0.75294117647059 #
plane-surface $-1 -1 -1 $-1 -0.32000000000000001 0 0 -1 0 0 0 -0 1 forward_v I I I I #
coedge $-1 -1 -1 $-1 $459 $265 $366 $389 reversed $387 $-1 #
loop $-1 -1 -1 $-1 $-1 $265 $272 F unknown #
straight-curve $-1 -1 -1 $-1 0.32000000000000001 -0.32000000000000001 8.3399999999999999 447.19999999999999 -447.19999999999999 -774.59999999999991 I I #
edge $-1 -1 -1 $-1 $468 -0.00064000000000000005 $267 0 $366 $476 forward @7 unknown F #
point $-1 -1 -1 $-1 0.32000000000000001 -0.32000000000000001 8.3399999999999999 #
point $-1 -1 -1 $-1 0.14680000000000001 -0.14680000000000001 8.6400000000000006 #
rgb_color-st-attrib $-1 -1 $-1 $-1 $272 2 1 2 1 1 1 1 1 1 1 1 1 1 1 0 1 1 1 0.75294117647059 0.75294117647059 0.75294117647059 #
plane-surface $-1 -1 -1 $-1 0.14680000000000001 -0.32000000000000001 8.6400000000000006 0.86601905262873913 0 0.50001100036301338 0.50001100036301338 0 -0.86601905262873913 forward_v I I I I #
rgb_color-st-attrib $-1 -1 $-1 $-1 $275 2 1 2 1 1 1 1 1 1 1 1 1 1 1 0 1 1 1 0.75294117647059 0.75294117647059 0.75294117647059 #
face $477 -1 -1 $-1 $478 $294 $10 $-1 $479 forward single F F #
loop $-1 -1 -1 $-1 $-1 $279 $275 F unknown #
plane-surface $-1 -1 -1 $-1 2.2200000000000002 0 -2 0.86601905262873913 0 0.50001100036301338 0.50001100036301338 0 -0.86601905262873913 forward_v I I I I #
coedge $-1 -1 -1 $-1 $302 $301 $480 $481 forward $276 $-1 #
edge $-1 -1 -1 $-1 $317 0.00030000000000000073 $287 0.01064 $278 $482 forward @7 unknown F #
coedge $-1 -1 -1 $-1 $405 $279 $409 $483 reversed $396 $-1 #
coedge $-1 -1 -1 $-1 $279 $405 $308 $429 reversed $396 $-1 #
vertex $-1 -1 -1 $-1 $429 $484 #
vertex $-1 -1 -1 $-1 $296 $485 #
straight-curve $-1 -1 -1 $-1 2.286 0.254 -2.1099999999999999 447.19999999999999 -447.19999999999999 -774.59999999999991 I I #
coedge $-1 -1 -1 $-1 $401 $400 $281 $406 reversed $396 $-1 #
edge $-1 -1 -1 $-1 $407 -0.00014423916362237482 $410 0.00024305833699773692 $281 $486 forward @7 unknown F #
vertex $-1 -1 -1 $-1 $429 $487 #
straight-curve $-1 -1 -1 $-1 2.8599999999999999 -0.32000000000000001 -2 1000 0 0 I I #
coedge $-1 -1 -1 $-1 $293 $284 $400 $483 forward $294 $-1 #
vertex $-1 -1 -1 $-1 $483 $488 #
straight-curve $-1 -1 -1 $-1 2.2200000000000002 -0.14680000000000001 -2.2999999999999998 -1000 0 0 I I #
point $-1 -1 -1 $-1 2.6867999999999999 -0.14680000000000001 -2.2999999999999998 #
point $-1 -1 -1 $-1 2.8599999999999999 -0.32000000000000001 -2 #
coedge $-1 -1 -1 $-1 $290 $289 $434 $437 forward $291 $-1 #
coedge $-1 -1 -1 $-1 $297 $421 $289 $416 forward $419 $-1 #
edge $-1 -1 -1 $-1 $489 0.00030000000000000073 $180 0.01064 $415 $490 forward @7 unknown F #
face $491 -1 -1 $-1 $313 $291 $10 $-1 $492 reversed single F F #
straight-curve $-1 -1 -1 $-1 2.8599999999999999 0.14680000000000001 -2.2999999999999998 1000 0 0 I I #
loop $-1 -1 -1 $-1 $-1 $309 $478 F unknown #
straight-curve $-1 -1 -1 $-1 2.8599999999999999 0.32000000000000001 -2 -1000 0 0 I I #
coedge $-1 -1 -1 $-1 $415 $309 $302 $422 forward $419 $-1 #
edge $-1 -1 -1 $-1 $192 -0.00063999999999999973 $489 0 $302 $493 forward @7 unknown F #
coedge $-1 -1 -1 $-1 $315 $480 $304 $424 reversed $435 $-1 #
edge $-1 -1 -1 $-1 $319 -0.00046680000000000002 $425 -0.00017319999999999998 $304 $494 forward @7 unknown F #
vertex $-1 -1 -1 $-1 $424 $495 #
straight-curve $-1 -1 -1 $-1 2.8599999999999999 0.14680000000000001 8.6400000000000006 -1000 0 0 I I #
rgb_color-st-attrib $-1 -1 $-1 $-1 $306 2 1 2 1 1 1 1 1 1 1 1 1 1 1 0 1 1 1 0.75294117647059 0.75294117647059 0.75294117647059 #
plane-surface $-1 -1 -1 $-1 2.8599999999999999 -0.32000000000000001 8.6400000000000006 0 0 1 1 0 0 forward_v I I I I #
edge $-1 -1 -1 $-1 $402 -0.00032000000000000003 $407 0.00032000000000000003 $401 $496 forward @7 unknown F #
straight-curve $-1 -1 -1 $-1 2.2200000000000002 0.32000000000000001 8.6400000000000006 0 0 -1000 I I #
straight-curve $-1 -1 -1 $-1 2.2200000000000002 -0.32000000000000001 8.6400000000000006 0 0 -1000 I I #
rgb_color-st-attrib $-1 -1 $-1 $-1 $313 2 1 2 1 1 1 1 1 1 1 1 1 1 1 0 1 1 1 0.75294117647059 0.75294117647059 0.75294117647059 #
plane-surface $-1 -1 -1 $-1 2.2200000000000002 0 0 -1 0 0 0 -0 1 forward_v I I I I #
coedge $-1 -1 -1 $-1 $480 $315 $414 $437 reversed $435 $-1 #
loop $-1 -1 -1 $-1 $-1 $315 $322 F unknown #
straight-curve $-1 -1 -1 $-1 2.8599999999999999 -0.32000000000000001 8.3399999999999999 447.19999999999999 -447.19999999999999 -774.59999999999991 I I #
edge $-1 -1 -1 $-1 $489 -0.00064000000000000005 $317 0 $414 $497 forward @7 unknown F #
point $-1 -1 -1 $-1 2.8599999999999999 -0.32000000000000001 8.3399999999999999 #
point $-1 -1 -1 $-1 2.6867999999999999 -0.14680000000000001 8.6400000000000006 #
rgb_color-st-attrib $-1 -1 $-1 $-1 $322 2 1 2 1 1 1 1 1 1 1 1 1 1 1 0 1 1 1 0.75294117647059 0.75294117647059 0.75294117647059 #
plane-surface $-1 -1 -1 $-1 2.6867999999999999 -0.32000000000000001 8.6400000000000006 0.86601905262873913 0 0.50001100036301338 0.50001100036301338 0 -0.86601905262873913 forward_v I I I I #
loop $-1 -1 -1 $-1 $123 $498 $202 F unknown #
coedge $-1 -1 -1 $-1 $499 $500 $-1 $501 reversed $325 $-1 #
coedge $-1 -1 -1 $-1 $502 $503 $-1 $504 reversed $327 $-1 #
coedge $-1 -1 -1 $-1 $505 $328 $-1 $506 reversed $203 $-1 #
coedge $-1 -1 -1 $-1 $328 $505 $-1 $507 reversed $203 $-1 #
edge $-1 -1 -1 $-1 $508 0.00095 $509 0.0015900000000000001 $328 $510 forward @7 unknown F #
coedge $-1 -1 -1 $-1 $339 $334 $330 $449 forward $340 $-1 #
edge $-1 -1 -1 $-1 $336 -0.0025400000000000002 $450 0 $330 $511 forward @7 unknown F #
vertex $-1 -1 -1 $-1 $343 $512 #
straight-curve $-1 -1 -1 $-1 3.8100000000000001 1.27 2.54 0 0 -1000 I I #
point $-1 -1 -1 $-1 3.8100000000000001 1.27 0 #
straight-curve $-1 -1 -1 $-1 -1.27 -1.27 2.54 1000 0 0 I I #
point $-1 -1 -1 $-1 3.8100000000000001 -1.27 2.54 #
straight-curve $-1 -1 -1 $-1 -1.27 1.27 2.54 -1000 0 0 I I #
rgb_color-st-attrib $-1 -1 $-1 $-1 $347 2 1 2 1 1 1 1 1 1 1 1 1 1 1 0 1 1 1 0.75294117647059 0.75294117647059 0.75294117647059 #
face $513 -1 -1 $-1 $256 $371 $9 $-1 $514 forward single F F #
plane-surface $-1 -1 -1 $-1 0.32000000000000001 0.32000000000000001 -2.2999999999999998 0 0 -1 -1 0 0 forward_v I I I I #
coedge $-1 -1 -1 $-1 $375 $386 $350 $460 reversed $387 $-1 #
edge $-1 -1 -1 $-1 $377 0.00020881856096362819 $468 0.00059611606158374065 $350 $515 forward @7 unknown F #
straight-curve $-1 -1 -1 $-1 0.32000000000000001 -0.32000000000000001 8.6400000000000006 0 0 -1000 I I #
edge $-1 -1 -1 $-1 $362 -0.00046680000000000002 $355 -0.00017319999999999998 $352 $516 forward @7 unknown F #
point $-1 -1 -1 $-1 -0.32000000000000001 0.32000000000000001 -2 #
point $-1 -1 -1 $-1 -0.14680000000000001 0.14680000000000001 -2.2999999999999998 #
straight-curve $-1 -1 -1 $-1 -0.254 -0.254 -2.1099999999999999 447.19999999999999 447.19999999999999 -774.59999999999991 I I #
point $-1 -1 -1 $-1 -0.32000000000000001 -0.32000000000000001 -2 #
point $-1 -1 -1 $-1 -0.14680000000000001 -0.14680000000000001 -2.2999999999999998 #
vertex $-1 -1 -1 $-1 $460 $517 #
straight-curve $-1 -1 -1 $-1 0.32000000000000001 0.32000000000000001 8.6400000000000006 0 0 -1000 I I #
rgb_color-st-attrib $-1 -1 $-1 $-1 $369 2 1 2 1 1 1 1 1 1 1 1 1 1 1 0 1 1 1 0.75294117647059 0.75294117647059 0.75294117647059 #
plane-surface $-1 -1 -1 $-1 0.32000000000000001 0 0 -1 0 0 0 -0 1 forward_v I I I I #
straight-curve $-1 -1 -1 $-1 0.32000000000000001 0.32000000000000001 8.3399999999999999 1000 0 0 I I #
straight-curve $-1 -1 -1 $-1 0.14680000000000001 0.32000000000000001 8.6400000000000006 0 1000 0 I I #
point $-1 -1 -1 $-1 0.14680000000000001 0.14680000000000001 8.6400000000000006 #
straight-curve $-1 -1 -1 $-1 -0.32000000000000001 0 -2 0 -1000 0 I I #
straight-curve $-1 -1 -1 $-1 0.32000000000000001 -0.32000000000000001 8.3399999999999999 0 -1000 0 I I #
rgb_color-st-attrib $-1 -1 $-1 $-1 $395 2 1 2 1 1 1 1 1 1 1 1 1 1 1 0 1 1 1 0.75294117647059 0.75294117647059 0.75294117647059 #
face $518 -1 -1 $-1 $306 $419 $10 $-1 $519 forward single F F #
plane-surface $-1 -1 -1 $-1 2.8599999999999999 0.32000000000000001 -2.2999999999999998 0 0 -1 -1 0 0 forward_v I I I I #
coedge $-1 -1 -1 $-1 $423 $434 $398 $481 reversed $435 $-1 #
edge $-1 -1 -1 $-1 $425 0.00020881856096362819 $489 0.00059611606158374065 $398 $520 forward @7 unknown F #
straight-curve $-1 -1 -1 $-1 2.8599999999999999 -0.32000000000000001 8.6400000000000006 0 0 -1000 I I #
edge $-1 -1 -1 $-1 $410 -0.00046680000000000002 $403 -0.00017319999999999998 $400 $521 forward @7 unknown F #
point $-1 -1 -1 $-1 2.2200000000000002 0.32000000000000001 -2 #
point $-1 -1 -1 $-1 2.3932000000000002 0.14680000000000001 -2.2999999999999998 #
straight-curve $-1 -1 -1 $-1 2.286 -0.254 -2.1099999999999999 447.19999999999999 447.19999999999999 -774.59999999999991 I I #
point $-1 -1 -1 $-1 2.2200000000000002 -0.32000000000000001 -2 #
point $-1 -1 -1 $-1 2.3932000000000002 -0.14680000000000001 -2.2999999999999998 #
vertex $-1 -1 -1 $-1 $481 $522 #
straight-curve $-1 -1 -1 $-1 2.8599999999999999 0.32000000000000001 8.6400000000000006 0 0 -1000 I I #
rgb_color-st-attrib $-1 -1 $-1 $-1 $417 2 1 2 1 1 1 1 1 1 1 1 1 1 1 0 1 1 1 0.75294117647059 0.75294117647059 0.75294117647059 #
plane-surface $-1 -1 -1 $-1 2.8599999999999999 0 0 -1 0 0 0 -0 1 forward_v I I I I #
straight-curve $-1 -1 -1 $-1 2.8599999999999999 0.32000000000000001 8.3399999999999999 1000 0 0 I I #
straight-curve $-1 -1 -1 $-1 2.6867999999999999 0.32000000000000001 8.6400000000000006 0 1000 0 I I #
point $-1 -1 -1 $-1 2.6867999999999999 0.14680000000000001 8.6400000000000006 #
straight-curve $-1 -1 -1 $-1 2.2200000000000002 0 -2 0 -1000 0 I I #
straight-curve $-1 -1 -1 $-1 2.8599999999999999 -0.32000000000000001 8.3399999999999999 0 -1000 0 I I #
coedge $-1 -1 -1 $-1 $523 $524 $-1 $525 reversed $442 $-1 #
coedge $-1 -1 -1 $-1 $526 $443 $-1 $527 forward $325 $-1 #
coedge $-1 -1 -1 $-1 $443 $526 $-1 $528 reversed $325 $-1 #
edge $-1 -1 -1 $-1 $529 -0.00064000000000000005 $530 0 $443 $531 forward @7 unknown F #
coedge $-1 -1 -1 $-1 $532 $444 $-1 $533 reversed $327 $-1 #
coedge $-1 -1 -1 $-1 $444 $532 $-1 $534 reversed $327 $-1 #
edge $-1 -1 -1 $-1 $535 -0.0015899999999999998 $536 -0.00095000000000000021 $444 $537 forward @7 unknown F #
coedge $-1 -1 -1 $-1 $446 $445 $-1 $538 forward $203 $-1 #
edge $-1 -1 -1 $-1 $539 -0.00032000000000000003 $508 0.00032000000000000003 $445 $540 forward @7 unknown F #
edge $-1 -1 -1 $-1 $509 0 $541 0.00064000000000000005 $446 $542 forward @7 unknown F #
vertex $-1 -1 -1 $-1 $506 $543 #
vertex $-1 -1 -1 $-1 $507 $544 #
straight-curve $-1 -1 -1 $-1 1.27 -0.32000000000000001 0 -1000 0 0 I I #
straight-curve $-1 -1 -1 $-1 3.8100000000000001 1.27 2.54 0 1000 0 I I #
point $-1 -1 -1 $-1 3.8100000000000001 1.27 2.54 #
rgb_color-st-attrib $-1 -1 $-1 $-1 $457 2 1 2 1 1 1 1 1 1 1 1 1 1 1 0 1 1 1 0.75294117647059 0.75294117647059 0.75294117647059 #
plane-surface $-1 -1 -1 $-1 0.32000000000000001 0.32000000000000001 8.6400000000000006 0 1 0 0 0 1 forward_v I I I I #
straight-curve $-1 -1 -1 $-1 0.051900000000000002 0.051900000000000002 8.8000000000000007 447.19999999999999 447.19999999999999 -774.59999999999991 I I #
straight-curve $-1 -1 -1 $-1 -0.14680000000000001 0.32000000000000001 -2.2999999999999998 0 1000 0 I I #
point $-1 -1 -1 $-1 0.32000000000000001 0.32000000000000001 8.3399999999999999 #
rgb_color-st-attrib $-1 -1 $-1 $-1 $478 2 1 2 1 1 1 1 1 1 1 1 1 1 1 0 1 1 1 0.75294117647059 0.75294117647059 0.75294117647059 #
plane-surface $-1 -1 -1 $-1 2.8599999999999999 0.32000000000000001 8.6400000000000006 0 1 0 0 0 1 forward_v I I I I #
straight-curve $-1 -1 -1 $-1 2.5918999999999999 0.051900000000000002 8.8000000000000007 447.19999999999999 447.19999999999999 -774.59999999999991 I I #
straight-curve $-1 -1 -1 $-1 2.3932000000000002 0.32000000000000001 -2.2999999999999998 0 1000 0 I I #
point $-1 -1 -1 $-1 2.8599999999999999 0.32000000000000001 8.3399999999999999 #
coedge $-1 -1 -1 $-1 $545 $498 $-1 $546 forward $442 $-1 #
coedge $-1 -1 -1 $-1 $498 $545 $-1 $547 reversed $442 $-1 #
edge $-1 -1 -1 $-1 $548 -0.00064000000000000005 $549 0 $498 $550 forward @7 unknown F #
coedge $-1 -1 -1 $-1 $500 $499 $-1 $551 forward $325 $-1 #
edge $-1 -1 -1 $-1 $529 -0.0015900000000000001 $552 -0.00095 $499 $553 forward @7 unknown F #
edge $-1 -1 -1 $-1 $530 -0.00064000000000000005 $554 0 $500 $555 forward @7 unknown F #
vertex $-1 -1 -1 $-1 $527 $556 #
vertex $-1 -1 -1 $-1 $528 $557 #
straight-curve $-1 -1 -1 $-1 -0.32000000000000001 -0.32000000000000001 2.54 0 -1000 0 I I #
coedge $-1 -1 -1 $-1 $503 $502 $-1 $558 forward $327 $-1 #
edge $-1 -1 -1 $-1 $559 -0.00032000000000000003 $535 0.00032000000000000003 $502 $560 forward @7 unknown F #
edge $-1 -1 -1 $-1 $536 0 $561 0.00064000000000000005 $503 $562 forward @7 unknown F #
vertex $-1 -1 -1 $-1 $533 $563 #
vertex $-1 -1 -1 $-1 $534 $564 #
straight-curve $-1 -1 -1 $-1 1.27 -0.32000000000000001 0 -1000 0 0 I I #
edge $-1 -1 -1 $-1 $539 0 $541 0.00064000000000000005 $505 $565 forward @7 unknown F #
vertex $-1 -1 -1 $-1 $538 $566 #
straight-curve $-1 -1 -1 $-1 0.32000000000000001 0 0 0 -1000 0 I I #
vertex $-1 -1 -1 $-1 $507 $567 #
straight-curve $-1 -1 -1 $-1 -0.32000000000000001 -0.32000000000000001 0 0 1000 0 I I #
point $-1 -1 -1 $-1 0.32000000000000001 -0.32000000000000001 0 #
point $-1 -1 -1 $-1 -0.32000000000000001 -0.32000000000000001 0 #
coedge $-1 -1 -1 $-1 $524 $523 $-1 $568 forward $442 $-1 #
edge $-1 -1 -1 $-1 $548 0.00095000000000000021 $569 0.0015899999999999998 $523 $570 forward @7 unknown F #
edge $-1 -1 -1 $-1 $549 -0.00063999999999999973 $571 0 $524 $572 forward @7 unknown F #
vertex $-1 -1 -1 $-1 $546 $573 #
vertex $-1 -1 -1 $-1 $547 $574 #
straight-curve $-1 -1 -1 $-1 2.2200000000000002 -0.32000000000000001 2.54 0 -1000 0 I I #
edge $-1 -1 -1 $-1 $552 -0.00064000000000000005 $554 0 $526 $575 forward @7 unknown F #
vertex $-1 -1 -1 $-1 $551 $576 #
straight-curve $-1 -1 -1 $-1 1.27 0.32000000000000001 2.54 1000 0 0 I I #
vertex $-1 -1 -1 $-1 $528 $577 #
straight-curve $-1 -1 -1 $-1 0.32000000000000001 -0.32000000000000001 2.54 1000 0 0 I I #
point $-1 -1 -1 $-1 -0.32000000000000001 0.32000000000000001 2.54 #
point $-1 -1 -1 $-1 -0.32000000000000001 -0.32000000000000001 2.54 #
edge $-1 -1 -1 $-1 $559 0 $561 0.00063999999999999973 $532 $578 forward @7 unknown F #
vertex $-1 -1 -1 $-1 $558 $579 #
straight-curve $-1 -1 -1 $-1 2.8599999999999999 0 0 0 -1000 0 I I #
vertex $-1 -1 -1 $-1 $534 $580 #
straight-curve $-1 -1 -1 $-1 2.2200000000000002 -0.32000000000000001 0 0 1000 0 I I #
point $-1 -1 -1 $-1 2.8599999999999999 -0.32000000000000001 0 #
point $-1 -1 -1 $-1 2.2200000000000002 -0.32000000000000001 0 #
straight-curve $-1 -1 -1 $-1 0.32000000000000001 0.32000000000000001 0 -1000 0 0 I I #
point $-1 -1 -1 $-1 0.32000000000000001 0.32000000000000001 0 #
point $-1 -1 -1 $-1 -0.32000000000000001 0.32000000000000001 0 #
edge $-1 -1 -1 $-1 $569 -0.00064000000000000005 $571 0 $545 $581 forward @7 unknown F #
vertex $-1 -1 -1 $-1 $568 $582 #
straight-curve $-1 -1 -1 $-1 1.27 0.32000000000000001 2.54 1000 0 0 I I #
vertex $-1 -1 -1 $-1 $547 $583 #
straight-curve $-1 -1 -1 $-1 2.8599999999999999 -0.32000000000000001 2.54 1000 0 0 I I #
point $-1 -1 -1 $-1 2.2200000000000002 0.32000000000000001 2.54 #
point $-1 -1 -1 $-1 2.2200000000000002 -0.32000000000000001 2.54 #
straight-curve $-1 -1 -1 $-1 0.32000000000000001 -0.32000000000000001 2.54 0 -1000 0 I I #
point $-1 -1 -1 $-1 0.32000000000000001 0.32000000000000001 2.54 #
point $-1 -1 -1 $-1 0.32000000000000001 -0.32000000000000001 2.54 #
straight-curve $-1 -1 -1 $-1 2.8599999999999999 0.32000000000000001 0 -1000 0 0 I I #
point $-1 -1 -1 $-1 2.8599999999999999 0.32000000000000001 0 #
point $-1 -1 -1 $-1 2.2200000000000002 0.32000000000000001 0 #
straight-curve $-1 -1 -1 $-1 2.8599999999999999 -0.32000000000000001 2.54 0 -1000 0 I I #
point $-1 -1 -1 $-1 2.8599999999999999 0.32000000000000001 2.54 #
point $-1 -1 -1 $-1 2.8599999999999999 -0.32000000000000001 2.54 #
End-of-ACIS-data 